<?xml version="1.0" encoding="UTF-8" standalone="no"?>
<svg
   xmlns:dc="http://purl.org/dc/elements/1.1/"
   xmlns:cc="http://creativecommons.org/ns#"
   xmlns:rdf="http://www.w3.org/1999/02/22-rdf-syntax-ns#"
   xmlns:svg="http://www.w3.org/2000/svg"
   xmlns="http://www.w3.org/2000/svg"
   xmlns:sodipodi="http://sodipodi.sourceforge.net/DTD/sodipodi-0.dtd"
   xmlns:inkscape="http://www.inkscape.org/namespaces/inkscape"
   width="126"
   height="73"
   viewBox="0 0 126 73"
   fill="none"
   version="1.1"
   id="svg322"
   sodipodi:docname="alignment.svg"
   inkscape:version="1.0.2 (e86c870879, 2021-01-15, custom)">
  <metadata
     id="metadata328">
    <rdf:RDF>
      <cc:Work
         rdf:about="">
        <dc:format>image/svg+xml</dc:format>
        <dc:type
           rdf:resource="http://purl.org/dc/dcmitype/StillImage" />
        <dc:title></dc:title>
      </cc:Work>
    </rdf:RDF>
  </metadata>
  <defs
     id="defs326" />
  <sodipodi:namedview
     pagecolor="#ffffff"
     bordercolor="#666666"
     borderopacity="1"
     objecttolerance="10"
     gridtolerance="10"
     guidetolerance="10"
     inkscape:pageopacity="0"
     inkscape:pageshadow="2"
     inkscape:window-width="1680"
     inkscape:window-height="987"
     id="namedview324"
     showgrid="false"
     inkscape:zoom="3.5597499"
     inkscape:cx="38.169751"
     inkscape:cy="47.689156"
     inkscape:window-x="1912"
     inkscape:window-y="16"
     inkscape:window-maximized="1"
     inkscape:current-layer="svg322" />
  <g
     id="g1732">
    <rect
       style="fill:#ffffff;fill-rule:evenodd"
       id="rect330"
       width="126.13245"
       height="73.038841"
       x="-0.10887544"
       y="0.26857269" />
    <g
       id="g807"
       transform="translate(1.96643,9.5512326)">
      <g
         id="g728"
         transform="translate(-7.8657208,1.9664304)">
        <path
           d="m 72.949308,-5.7589733 c 0.524517,0 0.949677,-0.4283375 0.949677,-0.9567205 0,-0.528383 -0.42516,-0.9567195 -0.949677,-0.9567195 -0.524609,0 -0.949768,0.4283365 -0.949768,0.9567195 0,0.528383 0.425159,0.9567205 0.949768,0.9567205 z"
           fill="#f2f2f2"
           id="path170"
           style="stroke-width:0.918271" />
        <path
           d="m 72.949308,-1.9461068 c 0.524517,0 0.949677,-0.4283375 0.949677,-0.9567205 0,-0.5283819 -0.42516,-0.9567193 -0.949677,-0.9567193 -0.524609,0 -0.949768,0.4283374 -0.949768,0.9567193 0,0.528383 0.425159,0.9567205 0.949768,0.9567205 z"
           fill="#f2f2f2"
           id="path172"
           style="stroke-width:0.918271" />
        <path
           d="m 76.914682,-5.7589733 c 0.524516,0 0.949768,-0.4283375 0.949768,-0.9567205 0,-0.528383 -0.425252,-0.9567195 -0.949768,-0.9567195 -0.524517,0 -0.949768,0.4283365 -0.949768,0.9567195 0,0.528383 0.425251,0.9567205 0.949768,0.9567205 z"
           fill="#f2f2f2"
           id="path174"
           style="stroke-width:0.918271" />
        <path
           d="m 76.914682,-1.9461068 c 0.524516,0 0.949768,-0.4283375 0.949768,-0.9567205 0,-0.5283819 -0.425252,-0.9567193 -0.949768,-0.9567193 -0.524517,0 -0.949768,0.4283374 -0.949768,0.9567193 0,0.528383 0.425251,0.9567205 0.949768,0.9567205 z"
           fill="#f2f2f2"
           id="path176"
           style="stroke-width:0.918271" />
        <path
           d="m 80.879688,-5.7589733 c 0.524517,0 0.949677,-0.4283375 0.949677,-0.9567205 0,-0.528383 -0.42516,-0.9567195 -0.949677,-0.9567195 -0.524517,0 -0.949769,0.4283365 -0.949769,0.9567195 0,0.528383 0.425252,0.9567205 0.949769,0.9567205 z"
           fill="#f2f2f2"
           id="path178"
           style="stroke-width:0.918271" />
        <path
           d="m 80.879688,-1.9461068 c 0.524517,0 0.949677,-0.4283375 0.949677,-0.9567205 0,-0.5283819 -0.42516,-0.9567193 -0.949677,-0.9567193 -0.524517,0 -0.949769,0.4283374 -0.949769,0.9567193 0,0.528383 0.425252,0.9567205 0.949769,0.9567205 z"
           fill="#f2f2f2"
           id="path180"
           style="stroke-width:0.918271" />
        <path
           d="m 80.879688,1.86687 c 0.524517,0 0.949677,-0.428337 0.949677,-0.95672 0,-0.528373 -0.42516,-0.956711 -0.949677,-0.956711 -0.524517,0 -0.949769,0.428338 -0.949769,0.956711 0,0.528383 0.425252,0.95672 0.949769,0.95672 z"
           fill="#f2f2f2"
           id="path182"
           style="stroke-width:0.918271" />
        <path
           d="m 80.879688,5.679718 c 0.524517,0 0.949677,-0.428281 0.949677,-0.956655 0,-0.528465 -0.42516,-0.956747 -0.949677,-0.956747 -0.524517,0 -0.949769,0.428282 -0.949769,0.956747 0,0.528374 0.425252,0.956655 0.949769,0.956655 z"
           fill="#f2f2f2"
           id="path184"
           style="stroke-width:0.918271" />
        <path
           d="m 84.845061,-5.7589733 c 0.524609,0 0.949769,-0.4283375 0.949769,-0.9567205 0,-0.528383 -0.42516,-0.9567195 -0.949769,-0.9567195 -0.524517,0 -0.949677,0.4283365 -0.949677,0.9567195 0,0.528383 0.42516,0.9567205 0.949677,0.9567205 z"
           fill="#f2f2f2"
           id="path186"
           style="stroke-width:0.918271" />
        <path
           d="m 84.845061,-1.9461068 c 0.524609,0 0.949769,-0.4283375 0.949769,-0.9567205 0,-0.5283819 -0.42516,-0.9567193 -0.949769,-0.9567193 -0.524517,0 -0.949677,0.4283374 -0.949677,0.9567193 0,0.528383 0.42516,0.9567205 0.949677,0.9567205 z"
           fill="#f2f2f2"
           id="path188"
           style="stroke-width:0.918271" />
        <path
           d="m 84.845061,1.86687 c 0.524609,0 0.949769,-0.428337 0.949769,-0.95672 0,-0.528373 -0.42516,-0.956711 -0.949769,-0.956711 -0.524517,0 -0.949677,0.428338 -0.949677,0.956711 0,0.528383 0.42516,0.95672 0.949677,0.95672 z"
           fill="#f2f2f2"
           id="path190"
           style="stroke-width:0.918271" />
        <path
           d="m 84.845061,5.679718 c 0.524609,0 0.949769,-0.428281 0.949769,-0.956655 0,-0.528465 -0.42516,-0.956747 -0.949769,-0.956747 -0.524517,0 -0.949677,0.428282 -0.949677,0.956747 0,0.528374 0.42516,0.956655 0.949677,0.956655 z"
           fill="#f2f2f2"
           id="path192"
           style="stroke-width:0.918271" />
        <path
           d="m 88.810527,-5.7589733 c 0.524517,0 0.949768,-0.4283375 0.949768,-0.9567205 0,-0.528383 -0.425251,-0.9567195 -0.949768,-0.9567195 -0.524518,0 -0.949769,0.4283365 -0.949769,0.9567195 0,0.528383 0.425251,0.9567205 0.949769,0.9567205 z"
           fill="#f2f2f2"
           id="path194"
           style="stroke-width:0.918271" />
        <path
           d="m 88.810527,-1.9461068 c 0.524517,0 0.949768,-0.4283375 0.949768,-0.9567205 0,-0.5283819 -0.425251,-0.9567193 -0.949768,-0.9567193 -0.524518,0 -0.949769,0.4283374 -0.949769,0.9567193 0,0.528383 0.425251,0.9567205 0.949769,0.9567205 z"
           fill="#f2f2f2"
           id="path196"
           style="stroke-width:0.918271" />
        <path
           d="m 92.775992,-5.7589733 c 0.524517,0 0.949677,-0.4283375 0.949677,-0.9567205 0,-0.528383 -0.42516,-0.9567195 -0.949677,-0.9567195 -0.524609,0 -0.949769,0.4283365 -0.949769,0.9567195 0,0.528383 0.42516,0.9567205 0.949769,0.9567205 z"
           fill="#f2f2f2"
           id="path198"
           style="stroke-width:0.918271" />
        <path
           d="m 92.775992,-1.9461068 c 0.524517,0 0.949677,-0.4283375 0.949677,-0.9567205 0,-0.5283819 -0.42516,-0.9567193 -0.949677,-0.9567193 -0.524609,0 -0.949769,0.4283374 -0.949769,0.9567193 0,0.528383 0.42516,0.9567205 0.949769,0.9567205 z"
           fill="#f2f2f2"
           id="path200"
           style="stroke-width:0.918271" />
        <path
           d="m 121.7696,42.813716 h -7.05049 c 0,0.204131 -7.26721,0.369879 -7.26721,0.369879 -0.11386,0.0865 -0.21763,0.185767 -0.30945,0.295868 -0.2764,0.331588 -0.427,0.750778 -0.42608,1.183468 v 0.29596 c 0,0.490357 0.19376,0.960604 0.53811,1.307343 0.34435,0.346831 0.81083,0.541688 1.29752,0.541872 h 13.2176 c 0.48669,-4.58e-4 0.95317,-0.195408 1.29752,-0.542056 0.34435,-0.346739 0.53811,-0.816894 0.53811,-1.307159 v -0.29596 c 0,-0.490173 -0.19376,-0.960144 -0.53811,-1.306792 -0.34435,-0.34674 -0.81083,-0.541781 -1.29752,-0.542423 z"
           fill="#3f3d56"
           id="path202"
           style="stroke-width:0.918271" />
        <path
           d="m 116.18834,46.734645 h -1.90908 V 59.16171 h 1.90908 z"
           fill="#3f3d56"
           id="path204"
           style="stroke-width:0.918271" />
        <path
           d="m 121.62176,59.094217 c 0,0.207713 -2.89256,0.08035 -6.46189,0.08035 -3.5684,0 -6.46187,0.127364 -6.46187,-0.08035 0,-0.207805 2.89347,-1.855735 6.46187,-1.855735 3.56933,0 6.46189,1.64793 6.46189,1.855735 z"
           fill="#3f3d56"
           id="path206"
           style="stroke-width:0.918271" />
        <path
           d="m 105.61261,57.459601 -1.80018,-9.2e-5 -0.85666,-6.995853 2.65776,1.83e-4 z"
           fill="#ffb8b8"
           id="path208"
           style="stroke-width:0.918271" />
        <path
           d="m 102.5263,56.941328 h 3.47198 v 2.202384 h -5.6583 c 0,-0.584113 0.2303,-1.144259 0.64031,-1.557298 0.41001,-0.413039 0.96612,-0.645086 1.54601,-0.645086 z"
           fill="#2f2e41"
           id="path210"
           style="stroke-width:0.918271" />
        <path
           d="m 102.80205,56.44739 -1.71781,-0.543066 1.26189,-6.93332 2.53535,0.80156 z"
           fill="#ffb8b8"
           id="path212"
           style="stroke-width:0.918271" />
        <path
           d="m 100.01106,55.021956 3.31303,1.047289 -0.65464,2.101374 -5.399068,-1.706792 c 0.08595,-0.275941 0.225068,-0.532139 0.409273,-0.753901 0.184298,-0.221855 0.410101,-0.404958 0.664554,-0.538843 0.254545,-0.133883 0.532689,-0.215976 0.818731,-0.241505 0.28595,-0.02562 0.574103,0.0058 0.84812,0.09238 z"
           fill="#2f2e41"
           id="path214"
           style="stroke-width:0.918271" />
        <path
           d="m 116.94776,41.600954 c -0.0413,-0.352524 -0.11662,-0.700275 -0.22314,-1.038565 l -0.33609,-0.425987 -0.87603,-1.106609 -0.0377,0.0015 c -0.0651,0.0029 -0.33334,0.01772 -0.74931,0.05033 h -0.004 c -0.25712,0.02066 -0.57116,0.04729 -0.92745,0.08136 -0.0946,0.01034 -0.19284,0.0192 -0.29385,0.02957 v 1.544442 h 1.83534 c 0.089,1.83e-4 0.17539,0.03297 0.24242,0.09228 0.0671,0.05932 0.1102,0.141138 0.12121,0.230302 0.002,0.01626 0.003,0.03104 0.003,0.04729 0,0.09807 -0.0395,0.192195 -0.10836,0.261524 -0.0679,0.06933 -0.16161,0.108265 -0.25894,0.108356 h -10.6625 c -0.13581,0.09082 -0.2663,0.189623 -0.39063,0.295867 -0.37567,0.292929 -0.64628,0.701101 -0.77107,1.162808 -0.62268,2.757662 -1.75785,7.900076 -2.09274,9.410543 -0.0243,0.113773 -0.0188,0.232046 0.016,0.343065 0.0347,0.110928 0.0976,0.210927 0.18227,0.290175 0.0625,0.05868 0.13591,0.104408 0.21589,0.134618 l 1.3247,0.499999 c 0.0544,0.0203 0.1112,0.0337 0.16887,0.03995 0.007,0 0.0132,0.0015 0.0207,0.0015 0.0136,0.0013 0.0274,0.0017 0.041,0.0015 0.13397,-5.52e-4 0.26464,-0.04179 0.37493,-0.118273 0.11028,-0.07659 0.19513,-0.184848 0.24334,-0.310744 l 1.04545,-2.763539 1.61157,-4.260689 0.63728,-1.68503 c 0.73829,0.174564 6.93663,1.556288 9.01101,-0.670154 0.20478,-0.219376 0.36639,-0.475941 0.47658,-0.756014 0.17447,-0.476215 0.22956,-0.98852 0.15978,-1.491273 z"
           fill="#2f2e41"
           id="path216"
           style="stroke-width:0.918271" />
        <path
           d="m 118.74481,42.003432 c -0.0322,-0.13168 -0.0689,-0.267768 -0.1111,-0.405325 l -1.21213,-1.532687 -0.0377,0.0015 c -0.0762,0.0044 -0.43893,0.02369 -0.99632,0.06951 -0.63085,0.05326 -1.51332,0.139027 -2.50505,0.273645 -0.0294,0.003 -0.0606,0.0074 -0.09,0.01184 -0.0964,0.01332 -0.19468,0.02663 -0.29293,0.04151 v 0.273645 h 1.83563 c 0.089,9.2e-5 0.17538,0.03287 0.24242,0.0922 0.0671,0.05941 0.11019,0.141229 0.12121,0.230302 0.002,0.01626 0.003,0.03104 0.003,0.04739 0,0.09807 -0.0395,0.192102 -0.10836,0.261431 -0.0689,0.06933 -0.16161,0.108357 -0.25895,0.108357 h -6.48851 c -0.28375,0.0932 -0.55647,0.190909 -0.81818,0.295959 -1.3719,0.547382 -2.39853,1.264827 -2.60789,2.198343 -0.0707,0.313681 -0.14876,0.6584 -0.23049,1.02525 -0.30587,1.364001 -0.67741,3.034246 -1.01377,4.552149 v 0.0015 c -0.0691,0.313682 -0.13802,0.618456 -0.20413,0.914323 -0.28053,1.272266 -0.51837,2.350777 -0.64472,2.917351 -0.003,0.01626 -0.006,0.03113 -0.009,0.04739 v 0.0029 c -0.0147,0.1146 -5.5e-4,0.231129 0.0411,0.33875 l 0.002,0.0015 v 0.0016 c 0.0403,0.103116 0.10606,0.194214 0.19091,0.264737 0.0567,0.0472 0.12075,0.08466 0.18944,0.111019 l 1.32451,0.499999 c 0.0744,0.02782 0.15244,0.04234 0.23049,0.04289 0.11111,2.76e-4 0.21947,-0.02774 0.31589,-0.08136 0.13866,-0.07576 0.24609,-0.199081 0.30303,-0.347656 l 2.85215,-7.539105 0.44169,-1.170154 c 0.73829,0.174564 6.93662,1.554818 9.011,-0.670154 0.41047,-0.447015 0.64462,-1.029383 0.6584,-1.637739 0.0146,-0.418548 -0.0303,-0.837005 -0.13407,-1.242697 z"
           fill="#2f2e41"
           id="path218"
           style="stroke-width:0.918271" />
        <path
           d="m 118.58228,28.952035 c -0.0229,-0.0281 -0.0487,-0.05619 -0.0744,-0.08283 -0.39119,-0.414231 -0.8742,-0.729291 -1.40955,-0.919281 -0.53536,-0.190083 -1.10836,-0.249678 -1.67033,-0.174013 -0.49128,0.06493 -0.97705,0.161249 -1.45547,0.288521 -0.61799,0.160056 -1.18457,0.479798 -1.64187,0.927547 -0.3572,0.348392 -0.6382,0.767583 -0.82552,1.231127 -0.18733,0.463452 -0.2764,0.961155 -0.26263,1.46143 0.005,0.202662 0.007,0.409733 0.004,0.619833 0,0.09761 -9.2e-4,0.196786 -0.003,0.295867 h 1.44812 c 0.0634,-1.83e-4 0.1258,0.0072 0.18641,0.02222 0.17722,0.04252 0.33425,0.14371 0.4472,0.287328 0.11294,0.143526 0.17355,0.321119 0.17447,0.504131 v 6.882265 c 0.0983,0.0281 0.19651,0.05619 0.29384,0.08577 0.0303,0.01034 0.0597,0.0192 0.0891,0.0281 0.034,0.01034 0.0679,0.02076 0.10009,0.03104 0.29844,0.0932 0.58953,0.191827 0.8742,0.295958 h 0.47841 c 0.0891,9.2e-5 0.1754,0.03287 0.24243,0.0922 0.0671,0.05931 0.1102,0.141138 0.12213,0.230302 0.0992,0.03995 0.19651,0.07989 0.29201,0.119834 0.33884,0.141965 0.66115,0.284021 0.95592,0.421579 0.39853,0.183471 0.75207,0.358034 1.04867,0.510467 0.0937,0.04784 0.19651,0.07318 0.30119,0.07392 0.13774,-4.59e-4 0.2709,-0.045 0.382,-0.127181 0.0229,-0.01708 0.045,-0.03535 0.0661,-0.05483 0.0781,-0.0742 0.13775,-0.166575 0.17264,-0.269238 0.0349,-0.102567 0.045,-0.212304 0.0284,-0.319558 -0.15152,-1.162073 -0.19651,-2.335808 -0.13223,-3.506146 0.0413,-0.983837 0.12947,-1.992833 0.24333,-2.967763 0.0624,-0.528098 0.13132,-1.045912 0.20294,-1.544441 0.0689,-0.4764 0.14233,-0.933515 0.21488,-1.365562 0.0937,-0.54775 0.0625,-1.110007 -0.0918,-1.643707 -0.15518,-0.533608 -0.42883,-1.024516 -0.80165,-1.434891 z"
           fill="#7303c0"
           id="path220"
           style="stroke-width:0.918271" />
        <path
           d="m 112.56209,29.073337 c -0.0753,-0.0326 -0.15244,-0.05978 -0.23141,-0.08136 -0.3921,-0.106152 -0.80808,-0.06694 -1.17263,0.110377 -0.36547,0.17741 -0.65473,0.481082 -0.81634,0.855737 l -1.00918,2.346276 -0.12581,0.295867 h 3.48484 c 0.0624,-1.83e-4 0.12581,0.0073 0.18641,0.02222 l 0.11754,-0.273645 0.44628,-1.038566 c 0.17723,-0.414232 0.18458,-0.882367 0.0193,-1.301742 -0.16437,-0.419374 -0.48761,-0.755646 -0.89899,-0.935168 z"
           fill="#7303c0"
           id="path222"
           style="stroke-width:0.918271" />
        <path
           d="m 115.69615,26.620633 c 1.99173,0 3.60698,-1.62681 3.60698,-3.633601 0,-2.006699 -1.61525,-3.63351 -3.60698,-3.63351 -1.99265,0 -3.60697,1.626811 -3.60697,3.63351 0,2.006791 1.61432,3.633601 3.60697,3.633601 z"
           fill="#ffb8b8"
           id="path224"
           style="stroke-width:0.918271" />
        <path
           d="m 119.26088,33.396103 -2.05876,0.05629 -0.1506,1.457207 -0.0331,0.337281 -3.22497,1.458675 -0.29384,0.133149 v 2.593383 l 0.29384,-0.08429 0.92745,-0.2663 h 0.004 l 4.08907,-1.173184 0.0468,-0.01332 c 0.33057,-0.09605 0.62074,-0.296969 0.82919,-0.572818 0.20754,-0.275849 0.3214,-0.611937 0.32507,-0.958309 l 0.01,-1.720565 0.009,-1.267859 z"
           fill="#ffb8b8"
           id="path226"
           style="stroke-width:0.918271" />
        <path
           d="m 119.9303,30.514291 c -0.0138,-0.223049 -0.0707,-0.44123 -0.16804,-0.642057 -0.0973,-0.200733 -0.23232,-0.380347 -0.39854,-0.528373 -0.33608,-0.298898 -0.77593,-0.451331 -1.22313,-0.423691 -0.44628,0.02774 -0.86501,0.233149 -1.16161,0.571257 -0.29661,0.338016 -0.44812,0.78099 -0.42057,1.231402 l 0.22498,3.692647 c 0.006,0.09715 0.033,0.191827 0.0799,0.277226 0.0459,0.08541 0.1111,0.159412 0.18915,0.216896 0.12398,0.09321 0.27641,0.138843 0.4316,0.128742 l 1.57391,-0.0977 0.47751,-0.02957 c 0.0872,-0.0043 0.17171,-0.02636 0.25069,-0.06474 0.0781,-0.03838 0.14784,-0.09238 0.20477,-0.158676 0.0128,-0.01405 0.0239,-0.02883 0.0349,-0.04435 0.0937,-0.125895 0.13959,-0.281083 0.12948,-0.437924 z"
           fill="#7303c0"
           id="path228"
           style="stroke-width:0.918271" />
        <path
           d="m 113.98265,40.441085 h -0.18916 v -0.01919 c -0.0973,0.01332 -0.19559,0.02663 -0.29385,0.04141 v 0.273737 h 1.35721 c -0.28558,-0.10358 -0.57668,-0.202204 -0.8742,-0.295959 z m 0,0 h -0.18916 v -0.01919 c -0.0973,0.01332 -0.19559,0.02663 -0.29385,0.04141 v 0.273737 h 1.35721 c -0.28558,-0.10358 -0.57668,-0.202204 -0.8742,-0.295959 z m 1.35262,0 h -1.54178 v -7.027168 c -9.2e-4,-0.240586 -0.079,-0.474471 -0.22222,-0.666574 -0.14417,-0.192101 -0.34619,-0.331955 -0.57576,-0.398621 -0.0983,-0.02993 -0.2011,-0.0449 -0.30395,-0.04435 H 99.620975 c -0.292011,3.67e-4 -0.571901,0.117356 -0.77842,0.325344 -0.206519,0.20808 -0.322681,0.490082 -0.323048,0.784205 v 7.249113 c 1.84e-4,0.294214 0.116253,0.5764 0.322773,0.78448 0.206519,0.20808 0.486684,0.324977 0.778695,0.325068 h 15.714295 c 0.16253,-2.75e-4 0.31956,-0.06088 0.44077,-0.170339 0.12122,-0.109458 0.19743,-0.259963 0.2158,-0.422865 0.003,-0.02406 0.004,-0.0483 0.004,-0.07254 -9.1e-4,-0.176492 -0.0698,-0.345638 -0.19375,-0.470431 -0.12397,-0.124793 -0.29201,-0.195041 -0.4674,-0.195316 z m 0.36731,0.665747 c 0,0.09807 -0.0386,0.192194 -0.10746,0.261523 -0.0689,0.06933 -0.16253,0.108357 -0.25987,0.108357 H 99.620975 c -0.214141,-9.2e-5 -0.41956,-0.08586 -0.570982,-0.238476 -0.151423,-0.152525 -0.236547,-0.359411 -0.23673,-0.575205 v -7.249114 c 1.83e-4,-0.215793 0.08531,-0.422589 0.23673,-0.575205 0.151422,-0.152526 0.356841,-0.238292 0.570982,-0.238476 h 13.070585 c 0.0634,-1.83e-4 0.12581,0.0072 0.18641,0.02222 0.17723,0.04252 0.33425,0.143711 0.4472,0.287328 0.11295,0.143526 0.17356,0.321119 0.17447,0.504131 v 7.323127 h 1.83563 c 0.089,9.1e-5 0.17538,0.03287 0.24242,0.0922 0.0671,0.05932 0.11019,0.141138 0.12213,0.230302 9.2e-4,0.01626 0.003,0.03104 0.003,0.04729 z m -1.71993,-0.665747 h -0.18916 v -0.01919 c -0.0973,0.01332 -0.19559,0.02663 -0.29385,0.04141 v 0.273737 h 1.35721 c -0.28558,-0.10358 -0.57668,-0.202204 -0.8742,-0.295959 z"
           fill="#3f3d56"
           id="path230"
           style="stroke-width:0.918271" />
        <path
           d="m 106.15622,37.926397 c 0.48669,0 0.88063,-0.397428 0.88063,-0.887693 0,-0.490174 -0.39394,-0.887601 -0.88063,-0.887601 -0.48668,0 -0.88154,0.397427 -0.88154,0.887601 0,0.490265 0.39486,0.887693 0.88154,0.887693 z"
           fill="#7303c0"
           id="path232"
           style="stroke-width:0.918271" />
        <path
           d="m 114.92572,21.545712 c -0.83838,0.753993 -1.96143,1.563266 -2.98714,1.010926 -0.67401,-0.362717 -0.97337,-1.158124 -0.81634,-1.911107 0.28283,-1.353992 1.44536,-2.08558 2.57024,-2.676947 1.46189,-0.768777 3.07621,-1.439208 4.71441,-1.239392 1.63728,0.199908 3.23783,1.563083 3.16069,3.223135 -0.0624,1.334983 -1.14509,2.580344 -0.80256,3.871434 0.34526,1.299447 1.91091,1.802568 3.24424,1.868683 1.33334,0.06612 2.80166,-0.04839 3.8595,0.772175 1.34987,1.046831 1.32783,3.235806 0.36731,4.652609 -0.96051,1.416802 -2.5831,2.214045 -4.1763,2.820104 -2.11111,0.803029 -4.4325,1.383193 -6.61156,0.792837 -2.17906,-0.590358 -4.08723,-2.696507 -3.76767,-4.946915 0.13499,-0.950595 0.63177,-1.803945 1.11111,-2.634063 0.47843,-0.83021 0.96051,-1.695772 1.06153,-2.650684 0.0836,-0.795775 -0.16713,-1.674193 -0.75023,-2.186773 -0.10563,-0.08926 -0.17998,-0.209824 -0.21304,-0.344535 -0.033,-0.13471 -0.0229,-0.276492 0.0284,-0.40505 z"
           fill="#2f2e41"
           id="path234"
           style="stroke-width:0.918271" />
        <path
           d="M 13.396525,59.361434 H 126.96426 c 0.0468,0 0.0909,-0.01855 0.12397,-0.05161 0.0321,-0.03305 0.0515,-0.07787 0.0515,-0.124518 0,-0.04674 -0.0193,-0.09155 -0.0515,-0.124609 -0.0331,-0.03305 -0.0771,-0.05161 -0.12397,-0.05161 H 13.396525 c -0.02301,0 -0.0458,0.0045 -0.06707,0.01332 -0.02128,0.0088 -0.04061,0.02176 -0.0569,0.03811 -0.01629,0.01634 -0.02922,0.03581 -0.03804,0.0572 -0.0088,0.02139 -0.01336,0.04435 -0.01336,0.06759 0,0.02314 0.0045,0.04609 0.01336,0.0675 0.0088,0.02139 0.02175,0.04086 0.03804,0.0572 0.01629,0.01635 0.03563,0.0293 0.0569,0.03811 0.02127,0.0089 0.04407,0.0134 0.06707,0.01332 z"
           fill="#3f3d56"
           id="path236"
           style="stroke-width:0.918271" />
        <path
           d="m 19.15943,44.662931 v 0.29596 c 4.22e-4,0.490265 0.193967,0.96042 0.538153,1.307159 0.344188,0.346648 0.810881,0.541598 1.297629,0.542056 h 13.217624 c 0.486776,-1.84e-4 0.953625,-0.195041 1.297884,-0.541872 0.344261,-0.346739 0.537741,-0.816986 0.537924,-1.307343 v -0.29596 c 9.19e-4,-0.43269 -0.149954,-0.85188 -0.425986,-1.183468 -0.09182,-0.110101 -0.195775,-0.209366 -0.309825,-0.295868 0,0 -7.266836,-0.165748 -7.266836,-0.369879 h -7.050785 c -0.486675,6.42e-4 -0.953222,0.195683 -1.297353,0.542423 -0.344132,0.346648 -0.537758,0.816619 -0.538429,1.306792 z"
           fill="#3f3d56"
           id="path238"
           style="stroke-width:0.918271" />
        <path
           d="m 26.576394,59.16171 h 1.909271 V 46.734645 h -1.909271 z"
           fill="#3f3d56"
           id="path240"
           style="stroke-width:0.918271" />
        <path
           d="m 21.142594,59.094217 c 0,0.207713 2.893126,0.08035 6.46199,0.08035 3.568772,0 6.461879,0.127364 6.461879,-0.08035 0,-0.207805 -2.893107,-1.855735 -6.461879,-1.855735 -3.568864,0 -6.46199,1.64793 -6.46199,1.855735 z"
           fill="#3f3d56"
           id="path242"
           style="stroke-width:0.918271" />
        <path
           d="m 37.238173,57.572273 h 1.800548 l 0.856473,-6.995854 -2.657296,1.83e-4 z"
           fill="#a0616a"
           id="path244"
           style="stroke-width:0.918271" />
        <path
           d="m 42.510799,59.256292 -5.658667,2.75e-4 -1.83e-4,-2.202383 3.472445,-1.84e-4 c 0.579796,0 1.135902,0.231956 1.546003,0.644995 0.410007,0.413038 0.640402,0.973184 0.640402,1.557297 z"
           fill="#2f2e41"
           id="path246"
           style="stroke-width:0.918271" />
        <path
           d="m 40.048637,56.560062 1.717811,-0.543158 -1.261798,-6.933228 -2.53544,0.80156 z"
           fill="#a0616a"
           id="path248"
           style="stroke-width:0.918271" />
        <path
           d="m 45.580398,56.576499 -5.399162,1.7067 -0.654637,-2.101282 3.313125,-1.04738 c 0.553259,-0.174839 1.152799,-0.121213 1.666755,0.149218 0.513957,0.270433 0.900274,0.735445 1.073919,1.292744 z"
           fill="#2f2e41"
           id="path250"
           style="stroke-width:0.918271" />
        <path
           d="M 38.844324,53.340142 35.550574,44.6307 c -0.738933,0.174747 -6.9358,1.556104 -9.01137,-0.669971 -0.711293,-0.762992 -0.849952,-1.868316 -0.412303,-3.285485 l 1.211291,-1.533239 0.03765,0.002 c 0.457942,0.02424 11.225415,0.632137 11.963521,3.903941 0.622406,2.758305 1.75895,7.90081 2.092467,9.411277 0.0338,0.156565 0.01066,0.320017 -0.06519,0.460788 -0.07585,0.140771 -0.199449,0.249403 -0.348118,0.30606 l -1.324606,0.500366 c -0.07373,0.02801 -0.151974,0.04234 -0.230853,0.04234 -0.134069,0 -0.265015,-0.04104 -0.375482,-0.117539 -0.110468,-0.07649 -0.195317,-0.185031 -0.24325,-0.31111 z"
           fill="#2f2e41"
           id="path252"
           style="stroke-width:0.918271" />
        <path
           d="m 36.935053,54.375677 -3.293659,-8.709533 c -0.739024,0.174839 -6.935799,1.556011 -9.011369,-0.66988 -0.711292,-0.762992 -0.849952,-1.868316 -0.412304,-3.285485 l 1.211293,-1.53333 0.03765,0.002 c 0.457942,0.02433 11.225415,0.63223 11.963522,3.904032 0.622404,2.758306 1.75895,7.900812 2.092466,9.411277 0.03379,0.156474 0.01066,0.320018 -0.06519,0.46079 -0.07584,0.14077 -0.199449,0.249402 -0.348117,0.306059 l -1.324607,0.500367 c -0.07383,0.02792 -0.151974,0.04234 -0.230854,0.04234 -0.134067,-9.1e-5 -0.265013,-0.04104 -0.375481,-0.117539 -0.110469,-0.07659 -0.195317,-0.185032 -0.243342,-0.31111 z"
           fill="#2f2e41"
           id="path254"
           style="stroke-width:0.918271" />
        <path
           d="m 33.972065,37.47828 c -0.488154,-1.83e-4 -0.967859,-0.128099 -1.392284,-0.371073 -0.424333,-0.243066 -0.778787,-0.592928 -1.028649,-1.015426 l -1.046003,-1.785028 2.486221,-1.368868 1.055738,1.458124 7.162979,-0.760237 c 0.0349,-0.06355 0.07411,-0.124518 0.117355,-0.182553 0.137465,-0.182185 0.311478,-0.333149 0.510743,-0.443158 0.199173,-0.109917 0.419191,-0.1764 0.645545,-0.195041 0.227456,-0.01965 0.456473,0.0099 0.671532,0.08677 0.215151,0.07686 0.411478,0.199265 0.575756,0.358861 0.263453,0.254452 0.433701,0.591182 0.483288,0.95537 0.04958,0.364278 -0.02443,0.734709 -0.210101,1.051237 -0.116253,0.197152 -0.272451,0.367493 -0.458493,0.499632 -0.186042,0.13214 -0.397704,0.223232 -0.62112,0.267217 -0.223415,0.04398 -0.453535,0.03995 -0.675389,-0.01184 -0.221763,-0.05189 -0.430118,-0.150321 -0.611477,-0.288888 -0.04206,-0.03242 -0.08237,-0.06694 -0.120845,-0.103579 l -6.860592,1.762072 c -0.2236,0.05739 -0.453443,0.08641 -0.684204,0.08641 z"
           fill="#a0616a"
           id="path256"
           style="stroke-width:0.918271" />
        <path
           d="m 24.171073,42.170649 c -0.09908,-0.0719 -0.176492,-0.170063 -0.22369,-0.283654 -0.04711,-0.11359 -0.06217,-0.238015 -0.04334,-0.359687 0.408631,-2.713584 -0.06152,-6.600997 -0.528006,-9.384279 -0.09541,-0.564645 -0.05831,-1.144075 0.10854,-1.691732 0.166758,-0.547657 0.458584,-1.048392 0.851972,-1.461982 0.393479,-0.413588 0.877592,-0.728648 1.41368,-0.919924 0.536087,-0.191275 1.109089,-0.253351 1.673274,-0.181359 0.490817,0.06529 0.977134,0.161891 1.455829,0.289072 0.795223,0.201745 1.49862,0.670064 1.994579,1.327913 0.495958,0.657851 0.755002,1.466114 0.734433,2.291915 -0.06979,2.685762 0.471624,6.036811 0.70762,7.352787 0.01606,0.09045 0.0135,0.183195 -0.0075,0.272543 -0.02103,0.08935 -0.06014,0.17337 -0.114876,0.246832 -0.05372,0.07273 -0.121855,0.133333 -0.200183,0.177869 -0.07823,0.04463 -0.164921,0.07217 -0.254453,0.08109 -2.615331,0.26887 -5.435711,1.553624 -6.884101,2.295497 -0.09311,0.04839 -0.196234,0.07383 -0.301009,0.0741 -0.137741,-4.59e-4 -0.271717,-0.04491 -0.382736,-0.126998 z"
           fill="#cccccc"
           id="path258"
           style="stroke-width:0.918271" />
        <path
           d="m 31.230747,35.171398 c -0.08081,-0.03196 -0.154545,-0.0798 -0.216896,-0.14068 -0.06235,-0.06088 -0.112121,-0.133608 -0.146372,-0.213956 l -1.458583,-3.394209 c -0.08834,-0.20505 -0.135629,-0.425619 -0.139302,-0.649126 -0.0036,-0.223508 0.03646,-0.445546 0.11809,-0.653443 0.08154,-0.207897 0.20303,-0.39752 0.357391,-0.558034 0.154454,-0.160606 0.338659,-0.288979 0.542332,-0.377776 0.203672,-0.0888 0.42268,-0.136273 0.644535,-0.139761 0.221854,-0.0034 0.44224,0.03709 0.648576,0.119467 0.206335,0.08237 0.394489,0.204866 0.553717,0.360513 0.159321,0.155647 0.286501,0.341413 0.374471,0.546648 l 1.458584,3.394116 c 0.06943,0.162075 0.07217,0.345178 0.0078,0.509273 -0.06446,0.164096 -0.190909,0.295776 -0.351607,0.366115 l -1.886865,0.822772 c -0.07961,0.03498 -0.165288,0.05372 -0.252066,0.0551 -0.08687,0.0014 -0.173093,-0.0146 -0.253718,-0.04702 z"
           fill="#cccccc"
           id="path260"
           style="stroke-width:0.918271" />
        <path
           d="m 27.154814,26.733398 c 1.992099,0 3.607064,-1.626811 3.607064,-3.63351 0,-2.006792 -1.614965,-3.633603 -3.607064,-3.633603 -1.992191,0 -3.607155,1.626811 -3.607155,3.633603 0,2.006699 1.614964,3.63351 3.607155,3.63351 z"
           fill="#a0616a"
           id="path262"
           style="stroke-width:0.918271" />
        <path
           d="m 24.975112,26.327888 c -0.05106,0.05941 -0.113499,0.107897 -0.183562,0.142608 -0.06997,0.03471 -0.14619,0.05491 -0.224151,0.05941 -0.07787,0.0045 -0.155922,-0.0067 -0.229384,-0.03315 -0.07355,-0.02636 -0.141046,-0.0673 -0.198531,-0.120478 -0.804313,-0.65583 -1.442237,-1.495038 -1.861125,-2.448205 -0.468934,-1.125984 -0.537657,-2.500087 -0.004,-3.555548 0.451138,-0.892193 1.261052,-1.460053 2.06959,-1.924239 0.309917,-0.196785 0.649586,-0.341413 1.005691,-0.42819 0.179799,-0.04114 0.366208,-0.0439 0.547199,-0.008 0.180899,0.03581 0.352433,0.109458 0.503397,0.216069 0.160238,0.122774 0.284297,0.287144 0.358768,0.475483 0.07448,0.188429 0.09652,0.393662 0.06391,0.593754 0.36988,-0.490817 0.868502,-0.867768 1.439575,-1.088336 0.350412,-0.151974 0.741964,-0.178329 1.109365,-0.07484 0.519282,0.174563 0.903579,0.702753 1.117444,1.270246 0.173002,0.434433 0.236363,0.905324 0.18439,1.370428 -0.02269,0.22213 -0.08989,0.437281 -0.197704,0.632414 -0.107714,0.195041 -0.253811,0.366023 -0.429293,0.502478 -0.423506,0.294398 -0.969143,0.264555 -1.461705,0.134252 -0.492561,-0.130303 -0.970614,-0.351239 -1.471714,-0.412763 -0.501193,-0.06162 -1.056564,0.0719 -1.355186,0.522221 -0.210284,0.317079 -0.259871,0.734801 -0.302754,1.132963 l -0.223141,2.070979 c -0.0158,0.296235 -0.07916,0.587969 -0.187602,0.86391 -0.01837,0.03848 -0.04178,0.07429 -0.06951,0.106519 z"
           fill="#2f2e41"
           id="path264"
           style="stroke-width:0.918271" />
        <path
           d="m 38.022102,48.707001 h -5.85582 c -0.09486,2.76e-4 -0.188613,-0.02121 -0.274012,-0.0629 -0.08531,-0.04169 -0.160146,-0.102481 -0.218732,-0.177686 -0.05987,-0.07622 -0.101651,-0.165197 -0.12213,-0.260237 -0.02057,-0.09494 -0.01928,-0.193389 0.0036,-0.287787 0.54775,-2.311198 0.54775,-4.719825 0,-7.030933 -0.02296,-0.0944 -0.02415,-0.192837 -0.0036,-0.287878 0.02048,-0.09494 0.06226,-0.183929 0.12213,-0.260237 0.05858,-0.07521 0.133425,-0.135905 0.218732,-0.177595 0.0854,-0.04179 0.179156,-0.06327 0.274012,-0.0629 h 5.85582 c 0.149587,2.76e-4 0.294307,0.05408 0.408265,0.151698 0.113864,0.0977 0.189714,0.232966 0.213956,0.381726 0.382002,2.498985 0.382002,5.042231 0,7.541308 -0.02424,0.14876 -0.10009,0.284021 -0.213956,0.381633 -0.113958,0.0977 -0.258678,0.151516 -0.408265,0.15179 z"
           fill="#cccccc"
           id="path266"
           style="stroke-width:0.918271" />
        <path
           d="m 33.527621,43.305725 v -0.173369 c 9.1e-5,-0.117723 0.04656,-0.230486 0.1292,-0.313682 0.08255,-0.08328 0.194583,-0.130027 0.311387,-0.130211 h 3.072904 c 0.116805,1.84e-4 0.228742,0.04692 0.311386,0.130211 0.08255,0.0832 0.129018,0.195959 0.129202,0.313682 v 0.173369 c -1.84e-4,0.117631 -0.04665,0.230486 -0.129202,0.313683 -0.08265,0.0832 -0.194581,0.129934 -0.311386,0.130118 h -3.072904 c -0.116804,-1.84e-4 -0.228833,-0.04692 -0.311387,-0.130118 -0.08265,-0.0832 -0.129109,-0.196052 -0.1292,-0.313683 z"
           fill="#ffffff"
           id="path268"
           style="stroke-width:0.918271" />
        <path
           d="m 33.527621,45.131984 v -0.17346 c 9.1e-5,-0.117632 0.04656,-0.230487 0.1292,-0.313683 0.08255,-0.0832 0.194583,-0.130027 0.311387,-0.130119 h 3.072904 c 0.116805,9.2e-5 0.228742,0.04692 0.311386,0.130119 0.08255,0.0832 0.129018,0.196051 0.129202,0.313683 v 0.17346 c -1.84e-4,0.117632 -0.04665,0.230487 -0.129202,0.313683 -0.08265,0.0832 -0.194581,0.130027 -0.311386,0.130119 h -3.072904 c -0.116804,-9.2e-5 -0.228833,-0.04692 -0.311387,-0.130119 -0.08265,-0.0832 -0.129109,-0.196051 -0.1292,-0.313683 z"
           fill="#ffffff"
           id="path270"
           style="stroke-width:0.918271" />
        <path
           d="m 35.416598,38.017857 c -0.06079,-0.0775 -0.10331,-0.167952 -0.124151,-0.264554 -0.02094,-0.09651 -0.01965,-0.196602 0.0037,-0.292561 0.556748,-2.349216 0.556748,-4.797328 -9.2e-5,-7.146452 -0.02324,-0.09605 -0.02452,-0.196051 -0.0036,-0.292653 0.02085,-0.09652 0.06337,-0.18696 0.124151,-0.264554 0.0595,-0.0764 0.135629,-0.138108 0.222406,-0.180532 0.08677,-0.04234 0.182001,-0.06419 0.278511,-0.06391 h 5.951872 c 0.152157,2.76e-4 0.299172,0.05501 0.414967,0.154269 0.115886,0.09926 0.192928,0.236732 0.217538,0.38797 0.388245,2.540124 0.388245,5.125151 0,7.665276 -0.02461,0.151147 -0.101652,0.288612 -0.217538,0.387969 -0.115795,0.09926 -0.26281,0.153903 -0.414967,0.154178 h -5.951978 c -0.09642,2.76e-4 -0.191644,-0.02158 -0.27842,-0.06391 -0.08677,-0.04234 -0.162902,-0.104128 -0.222406,-0.180533 z"
           fill="#7303c0"
           id="path272"
           style="stroke-width:0.918271" />
        <path
           d="m 40.720628,32.741008 h -3.13544 c -0.116804,-1.84e-4 -0.22874,-0.04692 -0.311385,-0.13012 -0.08255,-0.08328 -0.129018,-0.196051 -0.129201,-0.313773 v -0.18843 c 1.83e-4,-0.11763 0.04664,-0.230486 0.129201,-0.313681 0.08265,-0.0832 0.194581,-0.130027 0.311385,-0.130119 h 3.13544 c 0.116804,9.2e-5 0.228834,0.04692 0.311386,0.130119 0.08265,0.0832 0.129109,0.196051 0.129201,0.313681 v 0.18843 c -9.2e-5,0.117722 -0.04656,0.230487 -0.129201,0.313773 -0.08255,0.0832 -0.194582,0.129936 -0.311386,0.13012 z"
           fill="#ffffff"
           id="path274"
           style="stroke-width:0.918271" />
        <path
           d="m 40.720628,34.597294 h -3.13544 c -0.116804,-1.84e-4 -0.22874,-0.04702 -0.311385,-0.130211 -0.08255,-0.0832 -0.129018,-0.195959 -0.129201,-0.313681 v -0.188429 c 1.83e-4,-0.117723 0.04664,-0.230487 0.129201,-0.313683 0.08265,-0.0832 0.194581,-0.130027 0.311385,-0.130119 h 3.13544 c 0.116804,9.2e-5 0.228834,0.04692 0.311386,0.130119 0.08265,0.0832 0.129109,0.19596 0.129201,0.313683 v 0.188429 c -9.2e-5,0.117722 -0.04656,0.230486 -0.129201,0.313681 -0.08255,0.0832 -0.194582,0.130027 -0.311386,0.130211 z"
           fill="#ffffff"
           id="path276"
           style="stroke-width:0.918271" />
        <path
           d="m 32.685658,41.272305 c -0.214509,-0.07548 -0.410743,-0.195593 -0.576124,-0.352525 -0.16529,-0.157025 -0.295959,-0.347199 -0.383471,-0.558402 -0.0202,-0.04931 -0.03784,-0.09963 -0.0527,-0.150779 l -7.684196,-2.203302 c -0.330209,-0.09605 -0.620843,-0.296785 -0.828831,-0.572451 -0.207989,-0.275574 -0.32213,-0.611477 -0.32562,-0.957666 l -0.01882,-2.9887 2.832409,0.0764 0.184573,1.79513 6.570694,2.971711 c 0.06189,-0.03728 0.126262,-0.07006 0.192654,-0.09835 v 0 c 0.242057,-0.102201 0.505141,-0.143526 0.766573,-0.120477 0.261524,0.02314 0.513406,0.110008 0.734066,0.253167 0.220662,0.143066 0.403397,0.3382 0.532506,0.56841 0.129109,0.230211 0.200551,0.488521 0.208357,0.752799 0.0078,0.264279 -0.0484,0.526446 -0.163728,0.764002 -0.115335,0.237466 -0.286317,0.443067 -0.498162,0.599173 -0.211847,0.156014 -0.458219,0.257759 -0.717906,0.296418 -0.259595,0.03866 -0.5247,0.01304 -0.772266,-0.07456 z"
           fill="#a0616a"
           id="path278"
           style="stroke-width:0.918271" />
        <path
           d="m 22.860241,34.800508 c -0.05767,-0.06538 -0.101932,-0.141598 -0.13012,-0.224334 -0.02829,-0.08273 -0.03995,-0.170248 -0.03435,-0.257575 l 0.225252,-3.691545 c 0.01332,-0.223232 0.07016,-0.441689 0.167309,-0.642791 0.09715,-0.201101 0.23269,-0.380899 0.398897,-0.5292 0.166208,-0.1483 0.359779,-0.262074 0.569787,-0.334893 0.209917,-0.07282 0.432047,-0.10331 0.653626,-0.08953 0.22158,0.01369 0.438383,0.07135 0.637832,0.169512 0.199448,0.09826 0.377777,0.235078 0.524701,0.402754 0.146923,0.167677 0.259595,0.362902 0.331495,0.574563 0.07199,0.211571 0.101749,0.435353 0.08778,0.658585 l -0.225252,3.691544 c -0.01102,0.176125 -0.09091,0.34068 -0.22213,0.457576 -0.131221,0.116896 -0.303214,0.176583 -0.478052,0.165931 l -2.05215,-0.127092 c -0.08669,-0.0051 -0.171534,-0.02746 -0.249586,-0.06584 -0.07805,-0.03838 -0.14775,-0.09192 -0.205051,-0.157666 z"
           fill="#cccccc"
           id="path280"
           style="stroke-width:0.918271" />
        <path
           d="M 55.888276,14.971988 H 43.845599 C 43.495095,14.97162 43.159191,14.831216 42.911349,14.58163 42.6636,14.331952 42.524206,13.993569 42.523838,13.640585 V 0.473797 c 3.68e-4,-0.353003 0.139762,-0.691431 0.387511,-0.941045 0.247842,-0.249614 0.583746,-0.390027 0.93425,-0.390431 h 12.042677 c 0.350413,4.04e-4 0.686407,0.140817 0.934158,0.390431 0.247841,0.249614 0.387235,0.588042 0.387602,0.941045 v 13.166788 c -3.67e-4,0.352984 -0.139761,0.691367 -0.387602,0.941045 -0.247751,0.249586 -0.583745,0.38999 -0.934158,0.390358 z M 43.845599,-0.561794 c -0.272635,3.12e-4 -0.533883,0.109513 -0.726629,0.303654 -0.192745,0.194151 -0.301101,0.457373 -0.301468,0.731937 v 13.166788 c 3.67e-4,0.274564 0.108723,0.53774 0.301468,0.731863 0.192746,0.194214 0.453994,0.303397 0.726629,0.303673 h 12.042677 c 0.272543,-2.76e-4 0.533883,-0.109459 0.726628,-0.303673 0.192654,-0.194123 0.301102,-0.457299 0.301378,-0.731863 V 0.473797 C 56.916006,0.199233 56.807558,-0.063989 56.614904,-0.25814 56.422159,-0.452281 56.160819,-0.561482 55.888276,-0.561794 Z"
           fill="#3f3d56"
           id="path282"
           style="stroke-width:0.918271" />
        <path
           d="M 77.917802,14.971988 H 65.875125 C 65.524712,14.97162 65.188717,14.831216 64.940967,14.58163 64.693125,14.331952 64.553732,13.993569 64.553365,13.640585 V 0.473797 c 3.67e-4,-0.353003 0.13976,-0.691431 0.387602,-0.941045 0.24775,-0.249614 0.583745,-0.390027 0.934158,-0.390431 h 12.042677 c 0.350505,4.04e-4 0.686408,0.140817 0.93425,0.390431 0.24775,0.249614 0.387144,0.588042 0.387511,0.941045 v 13.166788 c -3.67e-4,0.352984 -0.139761,0.691367 -0.387511,0.941045 -0.247842,0.249586 -0.583745,0.38999 -0.93425,0.390358 z M 65.875125,-0.561794 c -0.272543,3.12e-4 -0.533883,0.109513 -0.726628,0.303654 -0.192746,0.194151 -0.301102,0.457373 -0.301377,0.731937 v 13.166788 c 2.75e-4,0.274564 0.108631,0.53774 0.301377,0.731863 0.192745,0.194214 0.454085,0.303397 0.726628,0.303673 h 12.042677 c 0.272635,-2.76e-4 0.533883,-0.109459 0.726628,-0.303673 0.192746,-0.194123 0.301101,-0.457299 0.30147,-0.731863 V 0.473797 C 78.945531,0.199233 78.837176,-0.063989 78.64443,-0.25814 78.451685,-0.452281 78.190437,-0.561482 77.917802,-0.561794 Z"
           fill="#3f3d56"
           id="path284"
           style="stroke-width:0.918271" />
        <path
           d="M 46.271031,4.616177 H 45.096102 C 44.920896,4.615993 44.752852,4.545747 44.628977,4.420951 44.505102,4.296159 44.435405,4.126921 44.435222,3.95043 V 2.766868 c 1.83e-4,-0.176491 0.06988,-0.345729 0.193755,-0.470522 0.123875,-0.124793 0.291919,-0.19504 0.467125,-0.195225 h 1.174929 c 0.175206,1.85e-4 0.343158,0.07043 0.467032,0.195225 0.123967,0.124793 0.193573,0.294031 0.193848,0.470522 V 3.95043 c -2.75e-4,0.176491 -0.06988,0.345729 -0.193848,0.470521 -0.123874,0.124794 -0.291826,0.195042 -0.467032,0.195226 z"
           fill="#7303c0"
           id="path286"
           style="stroke-width:0.918271" />
        <path
           d="M 46.271031,8.3147 H 45.096102 C 44.920896,8.314516 44.752852,8.24427 44.628977,8.119475 44.505102,7.994683 44.435405,7.825445 44.435222,7.648953 V 6.465392 c 1.83e-4,-0.176491 0.06988,-0.345729 0.193755,-0.470523 0.123875,-0.124792 0.291919,-0.194948 0.467125,-0.195224 h 1.174929 c 0.175206,2.76e-4 0.343158,0.07043 0.467032,0.195224 0.123967,0.124794 0.193573,0.294032 0.193848,0.470523 v 1.183561 c -2.75e-4,0.176492 -0.06988,0.34573 -0.193848,0.470522 -0.123874,0.124794 -0.291826,0.195041 -0.467032,0.195225 z"
           fill="#cccccc"
           id="path288"
           style="stroke-width:0.918271" />
        <path
           d="M 54.858251,3.896711 H 49.373045 C 49.256241,3.896526 49.144212,3.849791 49.061567,3.766592 48.979017,3.683312 48.93255,3.570541 48.932458,3.452818 V 3.264389 c 9.2e-5,-0.117632 0.04656,-0.230487 0.129109,-0.313683 0.08265,-0.0832 0.194674,-0.130027 0.311478,-0.130118 h 5.485206 c 0.116803,9.1e-5 0.228741,0.04692 0.311385,0.130118 0.08255,0.0832 0.129018,0.196051 0.129201,0.313683 v 0.188429 c -1.83e-4,0.117723 -0.04664,0.230486 -0.129201,0.313774 -0.08265,0.0832 -0.194582,0.129934 -0.311385,0.130119 z"
           fill="#7303c0"
           id="path290"
           style="stroke-width:0.918271" />
        <path
           d="M 68.401842,4.384129 H 67.227005 C 67.051799,4.383945 66.883755,4.313699 66.75988,4.188904 66.636006,4.064111 66.566308,3.894874 66.566124,3.718382 V 2.534821 c 1.84e-4,-0.176492 0.06988,-0.345729 0.193756,-0.470522 0.123875,-0.124793 0.291919,-0.194949 0.467125,-0.195225 h 1.174837 c 0.175298,2.76e-4 0.34325,0.07043 0.467125,0.195225 0.123875,0.124793 0.193572,0.29403 0.193756,0.470522 v 1.183561 c -1.84e-4,0.176492 -0.06988,0.345729 -0.193756,0.470522 -0.123875,0.124793 -0.291827,0.195041 -0.467125,0.195225 z"
           fill="#cccccc"
           id="path292"
           style="stroke-width:0.918271" />
        <path
           d="M 76.988695,3.664663 H 71.503489 C 71.386685,3.664479 71.274656,3.617743 71.192011,3.534544 71.109461,3.451344 71.062994,3.338493 71.062902,3.220862 V 3.032341 c 9.2e-5,-0.117631 0.04656,-0.230486 0.129109,-0.313682 0.08265,-0.0832 0.194674,-0.130027 0.311478,-0.130119 h 5.485206 c 0.116804,9.2e-5 0.228741,0.04692 0.311385,0.130119 0.08255,0.0832 0.129018,0.196051 0.129201,0.313682 v 0.188521 c -1.83e-4,0.117631 -0.04665,0.230486 -0.129201,0.313682 -0.08265,0.0832 -0.194581,0.129935 -0.311385,0.130119 z"
           fill="#cccccc"
           id="path294"
           style="stroke-width:0.918271" />
        <path
           d="M 76.988878,7.215253 H 66.80405 C 66.687245,7.21507 66.575216,7.168333 66.492663,7.085042 66.410013,7.001842 66.363554,6.889083 66.363462,6.77136 V 6.582931 c 9.2e-5,-0.11763 0.04656,-0.230486 0.129201,-0.313681 0.08255,-0.0832 0.194582,-0.130028 0.311387,-0.130119 h 10.184828 c 0.116804,9.1e-5 0.228742,0.04692 0.311387,0.130119 0.08255,0.0832 0.129016,0.196051 0.1292,0.313681 V 6.77136 c -1.84e-4,0.117723 -0.04664,0.230486 -0.1292,0.313682 -0.08265,0.08328 -0.194583,0.130028 -0.311387,0.130211 z"
           fill="#7303c0"
           id="path296"
           style="stroke-width:0.918271" />
        <path
           d="M 76.988878,9.730216 H 66.80405 C 66.687245,9.730124 66.575216,9.683296 66.492663,9.600097 66.410013,9.516897 66.363554,9.404138 66.363462,9.286415 V 9.097986 c 9.2e-5,-0.117723 0.04656,-0.230486 0.129201,-0.313682 0.08255,-0.0832 0.194582,-0.130028 0.311387,-0.130119 h 10.184828 c 0.116804,9.1e-5 0.228742,0.04692 0.311387,0.130119 0.08255,0.0832 0.129016,0.195959 0.1292,0.313682 v 0.188429 c -1.84e-4,0.117723 -0.04664,0.230486 -0.1292,0.313682 -0.08265,0.0832 -0.194583,0.130027 -0.311387,0.130119 z"
           fill="#cccccc"
           id="path298"
           style="stroke-width:0.918271" />
        <path
           d="M 76.988878,12.245179 H 66.80405 c -0.116805,-9.2e-5 -0.228834,-0.04692 -0.311387,-0.130119 -0.08265,-0.0832 -0.129109,-0.196051 -0.129201,-0.313681 v -0.18843 c 9.2e-5,-0.117722 0.04656,-0.230487 0.129201,-0.313773 0.08255,-0.0832 0.194582,-0.129936 0.311387,-0.13012 h 10.184828 c 0.116804,1.84e-4 0.228742,0.04692 0.311387,0.13012 0.08255,0.08328 0.129016,0.196051 0.1292,0.313773 v 0.18843 c -1.84e-4,0.11763 -0.04664,0.230486 -0.1292,0.313681 -0.08265,0.0832 -0.194583,0.130027 -0.311387,0.130119 z"
           fill="#cccccc"
           id="path300"
           style="stroke-width:0.918271" />
        <path
           d="M 99.94696,14.971988 H 87.904192 C 87.55378,14.97162 87.217876,14.831216 86.970034,14.58163 86.722285,14.331952 86.582891,13.993569 86.582431,13.640585 V 0.473797 c 4.6e-4,-0.353003 0.139854,-0.691431 0.387603,-0.941045 0.247842,-0.249614 0.583746,-0.390027 0.934158,-0.390431 H 99.94696 c 0.35041,4.04e-4 0.68641,0.140817 0.93416,0.390431 0.24775,0.249614 0.38714,0.588042 0.3876,0.941045 v 13.166788 c -4.6e-4,0.352984 -0.13985,0.691367 -0.3876,0.941045 -0.24775,0.249586 -0.58375,0.38999 -0.93416,0.390358 z M 87.904192,-0.561794 c -0.272542,3.12e-4 -0.533791,0.109513 -0.726537,0.303654 -0.192744,0.194151 -0.301192,0.457373 -0.301468,0.731937 v 13.166788 c 2.76e-4,0.274564 0.108724,0.53774 0.301468,0.731863 0.192746,0.194214 0.453995,0.303397 0.726537,0.303673 H 99.94696 c 0.27254,-2.76e-4 0.53388,-0.109459 0.72654,-0.303673 0.19274,-0.194123 0.30119,-0.457299 0.30147,-0.731863 V 0.473797 c -2.8e-4,-0.274564 -0.10873,-0.537786 -0.30147,-0.731937 -0.19266,-0.194141 -0.454,-0.303342 -0.72654,-0.303654 z"
           fill="#3f3d56"
           id="path302"
           style="stroke-width:0.918271" />
        <path
           d="M 99.01822,3.664663 H 93.533015 C 93.416212,3.664479 93.304182,3.617743 93.221629,3.534544 93.138979,3.451344 93.09252,3.338493 93.092429,3.220862 V 3.032341 c 9.1e-5,-0.117631 0.04656,-0.230486 0.1292,-0.313682 0.08255,-0.0832 0.194583,-0.130027 0.311386,-0.130119 h 5.485205 c 0.116805,9.2e-5 0.228834,0.04692 0.311387,0.130119 0.08265,0.0832 0.129109,0.196051 0.1292,0.313682 v 0.188521 c -9.1e-5,0.117631 -0.04656,0.230486 -0.1292,0.313682 -0.08255,0.0832 -0.194582,0.129935 -0.311387,0.130119 z"
           fill="#cccccc"
           id="path304"
           style="stroke-width:0.918271" />
        <path
           d="M 99.017946,7.215253 H 88.833116 C 88.716312,7.21507 88.604374,7.168333 88.521731,7.085042 88.439181,7.001842 88.392713,6.889083 88.392529,6.77136 V 6.582931 c 1.84e-4,-0.11763 0.04665,-0.230486 0.129202,-0.313681 0.08265,-0.0832 0.194581,-0.130028 0.311385,-0.130119 h 10.18483 c 0.116803,9.1e-5 0.228832,0.04692 0.311385,0.130119 0.08265,0.0832 0.129109,0.196051 0.129201,0.313681 V 6.77136 c -9.2e-5,0.117723 -0.04656,0.230486 -0.129201,0.313682 -0.08255,0.08328 -0.194582,0.130028 -0.311385,0.130211 z"
           fill="#cccccc"
           id="path306"
           style="stroke-width:0.918271" />
        <path
           d="M 99.017946,9.730216 H 88.833116 C 88.716312,9.730124 88.604374,9.683296 88.521731,9.600097 88.439181,9.516897 88.392713,9.404138 88.392529,9.286415 V 9.097986 c 1.84e-4,-0.117723 0.04665,-0.230486 0.129202,-0.313682 0.08265,-0.0832 0.194581,-0.130028 0.311385,-0.130119 h 10.18483 c 0.116803,9.1e-5 0.228832,0.04692 0.311385,0.130119 0.08265,0.0832 0.129109,0.195959 0.129201,0.313682 v 0.188429 c -9.2e-5,0.117723 -0.04656,0.230486 -0.129201,0.313682 -0.08255,0.0832 -0.194582,0.130027 -0.311385,0.130119 z"
           fill="#cccccc"
           id="path308"
           style="stroke-width:0.918271" />
        <path
           d="m 99.017946,12.245179 h -10.18483 c -0.116804,-9.2e-5 -0.228742,-0.04692 -0.311385,-0.130119 -0.08255,-0.0832 -0.129018,-0.196051 -0.129202,-0.313681 v -0.18843 c 1.84e-4,-0.117722 0.04665,-0.230487 0.129202,-0.313773 0.08265,-0.0832 0.194581,-0.129936 0.311385,-0.13012 h 10.18483 c 0.116803,1.84e-4 0.228832,0.04692 0.311385,0.13012 0.08265,0.08328 0.129109,0.196051 0.129201,0.313773 v 0.18843 c -9.2e-5,0.11763 -0.04656,0.230486 -0.129201,0.313681 -0.08255,0.0832 -0.194582,0.130027 -0.311385,0.130119 z"
           fill="#cccccc"
           id="path310"
           style="stroke-width:0.918271" />
        <path
           d="M 54.858251,7.595234 H 49.373045 C 49.256241,7.59505 49.144212,7.548314 49.061567,7.465115 48.979017,7.381915 48.93255,7.269064 48.932458,7.151433 V 6.962912 c 9.2e-5,-0.117631 0.04656,-0.230486 0.129109,-0.313682 0.08265,-0.0832 0.194674,-0.130027 0.311478,-0.130119 h 5.485206 c 0.116803,9.2e-5 0.228741,0.04692 0.311385,0.130119 0.08255,0.0832 0.129018,0.196051 0.129201,0.313682 v 0.188521 c -1.83e-4,0.117631 -0.04664,0.230486 -0.129201,0.313682 -0.08265,0.0832 -0.194582,0.129935 -0.311385,0.130119 z"
           fill="#cccccc"
           id="path312"
           style="stroke-width:0.918271" />
        <path
           d="m 46.271031,12.013224 h -1.174929 c -0.175206,-1.84e-4 -0.34325,-0.07043 -0.467125,-0.195225 -0.123875,-0.124793 -0.193572,-0.29403 -0.193755,-0.470522 v -1.183561 c 1.83e-4,-0.176492 0.06988,-0.345729 0.193755,-0.470523 0.123875,-0.124792 0.291919,-0.194948 0.467125,-0.195133 h 1.174929 c 0.175206,1.85e-4 0.343158,0.07034 0.467032,0.195133 0.123967,0.124794 0.193573,0.294031 0.193848,0.470523 v 1.183561 c -2.75e-4,0.176492 -0.06988,0.345729 -0.193848,0.470522 -0.123874,0.124793 -0.291826,0.195041 -0.467032,0.195225 z"
           fill="#cccccc"
           id="path314"
           style="stroke-width:0.918271" />
        <path
           d="m 54.858251,11.293758 h -5.485206 c -0.116804,-9.3e-5 -0.228833,-0.04692 -0.311478,-0.13012 -0.08255,-0.0832 -0.129017,-0.196051 -0.129109,-0.313681 v -0.188522 c 9.2e-5,-0.11763 0.04656,-0.230486 0.129109,-0.313681 0.08265,-0.0832 0.194674,-0.130027 0.311478,-0.130119 h 5.485206 c 0.116803,9.2e-5 0.228741,0.04692 0.311385,0.130119 0.08255,0.0832 0.129018,0.196051 0.129201,0.313681 v 0.188522 c -1.83e-4,0.11763 -0.04664,0.230486 -0.129201,0.313681 -0.08265,0.0832 -0.194582,0.130027 -0.311385,0.13012 z"
           fill="#cccccc"
           id="path316"
           style="stroke-width:0.918271" />
        <path
           d="m 91.134765,2.988815 c 0,-0.0034 4.59e-4,-0.0068 4.59e-4,-0.01023 0,-0.174839 -0.03416,-0.347934 -0.10064,-0.50955 C 90.968194,2.307511 90.870857,2.160771 90.748083,2.03708 90.625402,1.913481 90.479673,1.81541 90.31925,1.748468 90.15892,1.681528 89.98702,1.647096 89.813466,1.647096 v 1.341687 z"
           fill="#7303c0"
           id="path318"
           style="stroke-width:0.918271" />
        <path
           d="M 89.666816,3.136748 V 1.795154 c -0.261065,-9.3e-5 -0.516253,0.07768 -0.733425,0.223415 -0.21717,0.145822 -0.386684,0.353168 -0.487143,0.595867 -0.10037,0.242698 -0.12718,0.509916 -0.07704,0.76795 0.05014,0.258035 0.17493,0.495316 0.358768,0.682001 0.183838,0.186592 0.418457,0.314233 0.674195,0.366849 0.255739,0.05252 0.521212,0.02764 0.762901,-0.07162 0.241689,-0.09918 0.448852,-0.268227 0.595316,-0.485859 0.146464,-0.21763 0.225711,-0.474103 0.227639,-0.737004 z"
           fill="#cccccc"
           id="path320"
           style="stroke-width:0.918271" />
      </g>
    </g>
    <rect
       style="fill:#b3b3b3;fill-opacity:0;fill-rule:evenodd;stroke:#000000;stroke-width:3;stroke-miterlimit:4;stroke-dasharray:none;stroke-opacity:0.236948"
       id="rect330-6"
       width="126.13245"
       height="73.038841"
       x="-0.10887544"
       y="0.26857269" />
  </g>
</svg>
