<svg width="613" height="257" viewBox="0 0 613 257" fill="none" xmlns="http://www.w3.org/2000/svg">
<g clip-path="url(#clip0)">
<path d="M306.008 257C475.012 257 612.016 252.111 612.016 246.08C612.016 240.05 475.012 235.161 306.008 235.161C137.005 235.161 0 240.05 0 246.08C0 252.111 137.005 257 306.008 257Z" fill="#3F3D56"/>
<path d="M544.679 185.019C545.815 183.035 546.402 180.785 546.379 178.499C546.379 172.607 542.739 167.829 538.226 167.829C533.712 167.829 530.078 172.607 530.078 178.499C530.055 180.785 530.642 183.035 531.778 185.019C530.663 187.012 530.078 189.257 530.078 191.54C530.078 193.823 530.663 196.068 531.778 198.06C530.663 200.052 530.078 202.296 530.078 204.578C530.078 206.86 530.663 209.105 531.778 211.096C530.663 213.089 530.078 215.334 530.078 217.617C530.078 219.9 530.663 222.145 531.778 224.137C530.642 226.121 530.055 228.372 530.078 230.658C530.078 236.549 533.718 241.328 538.226 241.328C542.734 241.328 546.379 236.549 546.379 230.658C546.402 228.372 545.815 226.121 544.679 224.137C545.794 222.145 546.379 219.9 546.379 217.617C546.379 215.334 545.794 213.089 544.679 211.096C545.794 209.105 546.379 206.86 546.379 204.578C546.379 202.296 545.794 200.052 544.679 198.06C545.794 196.068 546.379 193.823 546.379 191.54C546.379 189.257 545.794 187.012 544.679 185.019Z" fill="#3F3D56"/>
<path d="M538.205 176.128C542.705 176.128 546.353 171.35 546.353 165.458C546.353 159.565 542.705 154.788 538.205 154.788C533.705 154.788 530.057 159.565 530.057 165.458C530.057 171.35 533.705 176.128 538.205 176.128Z" fill="#3F3D56"/>
<path d="M538.205 163.086C542.705 163.086 546.353 158.309 546.353 152.416C546.353 146.524 542.705 141.746 538.205 141.746C533.705 141.746 530.057 146.524 530.057 152.416C530.057 158.309 533.705 163.086 538.205 163.086Z" fill="#3F3D56"/>
<path d="M507.698 63.1776C506.584 61.7602 505.57 60.2678 504.661 58.7109L526.079 55.1959L502.914 55.3675C500.693 50.533 499.481 45.2962 499.353 39.9773C499.225 34.6585 500.184 29.3695 502.171 24.4339L533.245 40.5532L504.588 19.4889C507.27 14.8446 510.879 10.8026 515.192 7.61494C519.504 4.42725 524.428 2.16223 529.654 0.961129C534.881 -0.239968 540.299 -0.351382 545.57 0.633825C550.842 1.61903 555.853 3.67973 560.293 6.68743C564.733 9.69513 568.506 13.5853 571.376 18.1154C574.246 22.6455 576.152 27.7183 576.975 33.0175C577.798 38.3167 577.521 43.7287 576.16 48.9159C574.799 54.1032 572.384 58.9544 569.066 63.1672C570.805 65.3724 572.297 67.7612 573.517 70.2909L545.719 84.7411L575.358 74.7939C577.438 80.9461 577.952 87.5201 576.853 93.9209C575.753 100.322 573.075 106.347 569.061 111.452C573.592 117.211 576.412 124.128 577.197 131.413C577.982 138.698 576.702 146.057 573.501 152.649C570.301 159.24 565.31 164.798 559.099 168.686C552.889 172.575 545.709 174.637 538.382 174.637C531.055 174.637 523.875 172.575 517.665 168.686C511.454 164.798 506.463 159.24 503.263 152.649C500.062 146.057 498.781 138.698 499.567 131.413C500.352 124.128 503.172 117.211 507.703 111.452C502.29 104.571 499.347 96.0702 499.347 87.315C499.347 78.5599 502.29 70.0588 507.703 63.1776H507.698Z" fill="#57B894"/>
<path opacity="0.1" d="M577.437 87.315C577.451 96.0724 574.506 104.578 569.081 111.452C573.613 117.211 576.432 124.128 577.218 131.413C578.003 138.698 576.722 146.057 573.522 152.649C570.321 159.24 565.33 164.798 559.12 168.686C552.909 172.575 545.73 174.637 538.402 174.637C531.075 174.637 523.896 172.575 517.685 168.686C511.475 164.798 506.484 159.24 503.283 152.649C500.083 146.057 498.802 138.698 499.587 131.413C500.372 124.128 503.192 117.211 507.724 111.452C502.467 104.812 577.437 82.9368 577.437 87.315Z" fill="black"/>
<path d="M512.222 3.63989H99.7947C93.9306 3.63989 89.1768 8.39373 89.1768 14.2579V230.133C89.1768 235.997 93.9306 240.751 99.7947 240.751H512.222C518.086 240.751 522.84 235.997 522.84 230.133V14.2579C522.84 8.39373 518.086 3.63989 512.222 3.63989Z" fill="#F2F2F2"/>
<path d="M89.4365 15.3394H228.791V241.011H100.055C97.2384 241.011 94.5377 239.892 92.5465 237.901C90.5552 235.909 89.4365 233.209 89.4365 230.393V15.3394Z" fill="#7303C0"/>
<path d="M522.84 14.2578V20.2844H89.1768V14.2578C89.1768 12.8637 89.4514 11.4832 89.9851 10.1953C90.5188 8.90733 91.301 7.73715 92.287 6.75159C93.2731 5.76604 94.4436 4.98441 95.7318 4.45137C97.02 3.91834 98.4006 3.64434 99.7947 3.64502H512.222C513.616 3.64434 514.997 3.91834 516.285 4.45137C517.573 4.98441 518.744 5.76604 519.73 6.75159C520.716 7.73715 521.498 8.90733 522.032 10.1953C522.565 11.4832 522.84 12.8637 522.84 14.2578Z" fill="#3F3D56"/>
<path d="M100.356 15.3394C102.079 15.3394 103.476 13.9425 103.476 12.2195C103.476 10.4964 102.079 9.09961 100.356 9.09961C98.6331 9.09961 97.2363 10.4964 97.2363 12.2195C97.2363 13.9425 98.6331 15.3394 100.356 15.3394Z" fill="#7303C0"/>
<path d="M108.156 15.3394C109.879 15.3394 111.276 13.9425 111.276 12.2195C111.276 10.4964 109.879 9.09961 108.156 9.09961C106.433 9.09961 105.036 10.4964 105.036 12.2195C105.036 13.9425 106.433 15.3394 108.156 15.3394Z" fill="#7303C0"/>
<path d="M115.955 15.3394C117.678 15.3394 119.075 13.9425 119.075 12.2195C119.075 10.4964 117.678 9.09961 115.955 9.09961C114.232 9.09961 112.835 10.4964 112.835 12.2195C112.835 13.9425 114.232 15.3394 115.955 15.3394Z" fill="#7303C0"/>
<path opacity="0.3" d="M497.236 48.4205H318.093C317.736 48.4205 317.448 48.7092 317.448 49.0653V53.4955C317.448 53.8516 317.736 54.1403 318.093 54.1403H497.236C497.592 54.1403 497.881 53.8516 497.881 53.4955V49.0653C497.881 48.7092 497.592 48.4205 497.236 48.4205Z" fill="#7303C0"/>
<path d="M494.636 59.3401H457.967C457.611 59.3401 457.322 59.6288 457.322 59.9849V71.6948C457.322 72.0509 457.611 72.3396 457.967 72.3396H494.636C494.992 72.3396 495.281 72.0509 495.281 71.6948V59.9849C495.281 59.6288 494.992 59.3401 494.636 59.3401Z" fill="#10D58C"/>
<path opacity="0.3" d="M497.236 117.973H318.093C317.736 117.973 317.448 118.262 317.448 118.618V123.048C317.448 123.404 317.736 123.693 318.093 123.693H497.236C497.592 123.693 497.881 123.404 497.881 123.048V118.618C497.881 118.262 497.592 117.973 497.236 117.973Z" fill="#7303C0"/>
<path d="M494.636 128.893H457.967C457.611 128.893 457.322 129.181 457.322 129.537V141.247C457.322 141.603 457.611 141.892 457.967 141.892H494.636C494.992 141.892 495.281 141.603 495.281 141.247V129.537C495.281 129.181 494.992 128.893 494.636 128.893Z" fill="#FF9838"/>
<path opacity="0.3" d="M497.236 188.69H318.093C317.736 188.69 317.448 188.979 317.448 189.335V193.765C317.448 194.121 317.736 194.41 318.093 194.41H497.236C497.592 194.41 497.881 194.121 497.881 193.765V189.335C497.881 188.979 497.592 188.69 497.236 188.69Z" fill="#7303C0"/>
<path d="M494.636 199.61H457.967C457.611 199.61 457.322 199.899 457.322 200.255V211.965C457.322 212.321 457.611 212.609 457.967 212.609H494.636C494.992 212.609 495.281 212.321 495.281 211.965V200.255C495.281 199.899 494.992 199.61 494.636 199.61Z" fill="#C71414"/>
<path d="M278.288 155.682C292.509 155.682 304.037 144.154 304.037 129.933C304.037 115.712 292.509 104.183 278.288 104.183C264.067 104.183 252.539 115.712 252.539 129.933C252.539 144.154 264.067 155.682 278.288 155.682Z" fill="#3F3D56"/>
<path d="M301.011 143.514C300.983 143.576 300.946 143.634 300.902 143.686C300.621 144.15 300.318 144.599 299.992 145.033C297.136 148.986 293.213 152.043 288.682 153.846C288.235 154.034 287.778 154.205 287.315 154.366C286.886 154.023 286.489 153.642 286.129 153.228C285.055 152.008 284.336 150.517 284.049 148.917C283.364 149.049 282.667 149.115 281.969 149.115C281.9 149.12 281.831 149.12 281.761 149.115C276.406 149.021 271.809 145.1 269.755 139.505L269.672 139.266C268.419 135.622 268.278 131.687 269.266 127.962C269.292 127.837 269.334 127.712 269.37 127.593C271.128 121.556 275.766 117.157 281.283 116.808C281.455 116.808 281.626 116.808 281.803 116.808C281.98 116.808 282.084 116.808 282.224 116.808H282.474C289.462 117.063 295.088 123.823 295.348 132.278C296.777 133.216 297.908 134.542 298.609 136.1C299.31 137.659 299.551 139.385 299.305 141.076C300.003 141.791 300.579 142.614 301.011 143.514Z" fill="#192534"/>
<path opacity="0.1" d="M300.902 143.686C300.622 144.15 300.318 144.599 299.992 145.033C299.615 144.357 299.148 143.736 298.604 143.187C298.664 142.758 298.695 142.325 298.697 141.892C298.697 140.404 298.327 138.938 297.62 137.629C296.913 136.319 295.891 135.205 294.647 134.389C294.361 125.757 288.49 118.862 281.299 118.862C276.161 118.862 271.705 122.367 269.464 127.515C269.407 127.65 269.355 127.78 269.292 127.92C269.105 128.367 268.939 128.82 268.772 129.293C268.956 128.342 269.211 127.407 269.537 126.495L269.61 126.423C271.612 120.906 276.083 116.99 281.335 116.756C281.507 116.756 281.678 116.756 281.855 116.756C282.032 116.756 282.136 116.756 282.276 116.756H282.526C289.416 117.172 294.933 123.901 295.198 132.267C296.629 133.203 297.764 134.528 298.467 136.087C299.17 137.646 299.412 139.373 299.165 141.065C299.896 141.828 300.484 142.716 300.902 143.686Z" fill="black"/>
<path d="M273.769 136.302C273.833 136.829 273.773 137.363 273.592 137.862C273.286 138.575 272.552 139.214 272.755 139.942C272.858 140.17 273.014 140.371 273.209 140.529C273.404 140.686 273.633 140.795 273.878 140.847C276.119 141.606 278.558 141.154 280.929 141.258C281.719 141.327 282.513 141.355 283.306 141.341C284.103 141.323 284.875 141.054 285.51 140.571C284.279 139.973 283.116 139.242 282.042 138.393C281.781 138.199 281.545 137.974 281.34 137.722C280.899 137.008 280.687 136.178 280.732 135.34C280.732 134.513 280.732 133.687 280.732 132.865C279.036 132.865 277.347 132.839 275.651 132.839C275.131 132.839 273.452 132.709 273.26 133.297C273.166 133.588 273.53 134.446 273.587 134.773C273.674 135.28 273.735 135.79 273.769 136.302Z" fill="#A0616A"/>
<path opacity="0.1" d="M273.769 136.302C273.833 136.829 273.773 137.363 273.592 137.862C273.286 138.575 272.552 139.214 272.755 139.942C272.858 140.17 273.014 140.371 273.209 140.529C273.404 140.686 273.633 140.795 273.878 140.847C276.119 141.606 278.558 141.154 280.929 141.258C281.719 141.327 282.513 141.355 283.306 141.341C284.103 141.323 284.875 141.054 285.51 140.571C284.279 139.973 283.116 139.242 282.042 138.393C281.781 138.199 281.545 137.974 281.34 137.722C280.899 137.008 280.687 136.178 280.732 135.34C280.732 134.513 280.732 133.687 280.732 132.865C279.036 132.865 277.347 132.839 275.651 132.839C275.131 132.839 273.452 132.709 273.26 133.297C273.166 133.588 273.53 134.446 273.587 134.773C273.674 135.28 273.735 135.79 273.769 136.302Z" fill="black"/>
<path d="M277.253 135.553C280.553 135.553 283.228 132.879 283.228 129.579C283.228 126.279 280.553 123.604 277.253 123.604C273.954 123.604 271.279 126.279 271.279 129.579C271.279 132.879 273.954 135.553 277.253 135.553Z" fill="#A0616A"/>
<path d="M288.583 146.91C288.583 147.071 288.552 147.243 288.526 147.43C288.333 148.399 288.049 149.348 287.679 150.264C287.459 150.885 287.195 151.49 286.888 152.073C286.665 152.474 286.368 152.843 286.129 153.233L285.786 153.789C285.567 154.164 285.381 154.557 285.23 154.964C284.227 155.221 283.207 155.407 282.177 155.521C281.171 155.642 280.159 155.702 279.146 155.703C273.712 155.703 267.852 154.294 263.697 151.413C263.697 151.413 264.306 150.992 264.217 150.893C264.217 150.654 264.191 150.42 264.191 150.181C264.185 149.565 264.285 148.953 264.488 148.371C264.665 147.814 264.973 147.307 265.387 146.894C265.907 146.374 266.604 146.052 267.16 145.553C267.871 144.865 268.374 143.991 268.611 143.031C268.741 142.615 268.835 142.173 268.923 141.747C269.002 141.163 269.163 140.595 269.401 140.057C269.434 139.988 269.473 139.922 269.516 139.859C269.595 139.726 269.689 139.602 269.797 139.49C270.327 138.973 270.947 138.557 271.627 138.263C272.194 137.971 272.989 137.743 273.384 138.226V138.263C273.514 138.56 273.623 138.866 273.712 139.178C274.029 139.833 274.913 139.916 275.631 139.901C278.169 139.848 280.701 139.636 283.212 139.266L284.429 139.069C285.308 138.923 285.921 139.693 286.415 140.441C287.694 142.371 288.776 144.591 288.583 146.91Z" fill="#7303C0"/>
<path opacity="0.1" d="M270.337 147.315C269.781 147.44 269.459 148.002 269.199 148.511C268.706 149.349 268.489 150.32 268.58 151.288C268.565 151.668 268.605 152.048 268.699 152.416C268.795 152.787 269.03 153.107 269.355 153.311" stroke="black" stroke-miterlimit="10"/>
<path d="M285.256 126.941C285.707 125.177 283.174 123.007 279.599 122.093C276.024 121.179 272.76 121.868 272.309 123.632C271.858 125.396 274.391 127.566 277.966 128.48C281.541 129.394 284.805 128.705 285.256 126.941Z" fill="#192534"/>
<path opacity="0.1" d="M278.298 127.229C275.121 126.417 272.771 124.629 272.579 122.986C272.431 123.171 272.325 123.385 272.267 123.615C271.814 125.377 274.347 127.546 277.919 128.461C281.491 129.376 284.757 128.685 285.199 126.901C285.249 126.704 285.263 126.5 285.24 126.298C284.289 127.608 281.413 128.024 278.298 127.229Z" fill="black"/>
<path d="M288.74 151.148C288.74 152.053 288.74 152.952 288.682 153.846C288.235 154.034 287.778 154.205 287.315 154.366C286.633 154.603 285.939 154.801 285.235 154.959C284.232 155.216 283.212 155.402 282.183 155.516C282.001 153.363 281.59 151.288 281.793 149.104C281.961 147.431 282.536 145.825 283.467 144.424C283.832 143.811 284.354 143.307 284.98 142.963C285.293 142.797 285.646 142.724 285.999 142.752C286.351 142.779 286.689 142.907 286.972 143.119C287.326 143.489 287.573 143.947 287.689 144.445C288.04 145.421 288.322 146.42 288.532 147.435C288.532 147.544 288.568 147.664 288.584 147.778C288.728 148.895 288.78 150.022 288.74 151.148Z" fill="#A0616A"/>
<path d="M304.032 200.65C304.044 204.956 302.971 209.196 300.912 212.979C300.683 213.394 300.444 213.816 300.174 214.232C300.146 214.294 300.109 214.351 300.065 214.403C299.784 214.867 299.48 215.317 299.155 215.75C297.179 218.49 294.678 220.809 291.797 222.572L291.646 222.676C290.699 223.244 289.718 223.753 288.708 224.2C288.427 224.324 288.136 224.444 287.845 224.564C287.554 224.683 287.284 224.792 286.992 224.886C286.847 224.948 286.691 225 286.54 225.052C286.523 225.05 286.505 225.05 286.488 225.052C286.171 225.167 285.843 225.266 285.521 225.364L285.276 225.422C284.985 225.51 284.694 225.583 284.403 225.645C283.398 225.903 282.376 226.088 281.345 226.202C280.346 226.323 279.341 226.383 278.335 226.384C278.231 226.384 278.127 226.384 278.023 226.384C276.627 226.379 275.235 226.251 273.863 225.999L273.613 225.957C273.359 225.916 273.093 225.864 272.849 225.801L272.365 225.692C271.852 225.58 271.346 225.441 270.847 225.276C269.831 224.971 268.836 224.601 267.868 224.168L267.758 224.122C266.341 223.479 264.985 222.708 263.708 221.818C263.599 221.754 263.495 221.683 263.396 221.605C259.801 219.042 256.926 215.598 255.046 211.604C253.166 207.609 252.345 203.198 252.662 198.795C252.979 194.392 254.423 190.144 256.855 186.459C259.287 182.775 262.626 179.778 266.55 177.756C270.475 175.735 274.853 174.756 279.265 174.915C283.677 175.073 287.974 176.364 291.743 178.662C295.512 180.961 298.627 184.19 300.788 188.04C302.95 191.889 304.084 196.23 304.084 200.645L304.032 200.65Z" fill="#3F3D56"/>
<path d="M284.517 194.446C284.456 195.853 283.854 197.182 282.837 198.156C281.819 199.13 280.466 199.673 279.057 199.673C277.649 199.673 276.296 199.13 275.278 198.156C274.261 197.182 273.659 195.853 273.598 194.446C273.598 194.358 273.598 194.27 273.598 194.186C273.598 192.738 274.173 191.35 275.197 190.326C276.221 189.302 277.609 188.727 279.057 188.727C280.505 188.727 281.894 189.302 282.918 190.326C283.942 191.35 284.517 192.738 284.517 194.186C284.512 194.27 284.517 194.358 284.517 194.446Z" fill="#192534"/>
<path opacity="0.1" d="M284.517 194.446C284.456 195.853 283.854 197.182 282.837 198.156C281.819 199.13 280.466 199.673 279.057 199.673C277.649 199.673 276.296 199.13 275.278 198.156C274.261 197.182 273.659 195.853 273.598 194.446C273.598 194.358 273.598 194.27 273.598 194.186C275.138 192.926 277.067 192.237 279.057 192.237C281.048 192.237 282.977 192.926 284.517 194.186C284.512 194.27 284.517 194.358 284.517 194.446Z" fill="black"/>
<path d="M279.052 209.973C283.816 209.973 287.679 206.111 287.679 201.347C287.679 196.582 283.816 192.72 279.052 192.72C274.288 192.72 270.426 196.582 270.426 201.347C270.426 206.111 274.288 209.973 279.052 209.973Z" fill="#192534"/>
<path d="M273.827 193.24C273.827 191.917 274.309 190.638 275.181 189.643C276.053 188.647 277.257 188.002 278.569 187.827C277.796 187.723 277.01 187.784 276.264 188.009C275.517 188.233 274.827 188.614 274.24 189.127C273.653 189.64 273.182 190.273 272.86 190.983C272.537 191.693 272.371 192.463 272.371 193.243C272.371 194.022 272.537 194.793 272.86 195.503C273.182 196.212 273.653 196.845 274.24 197.358C274.827 197.871 275.517 198.252 276.264 198.477C277.01 198.701 277.796 198.763 278.569 198.658C277.256 198.483 276.051 197.837 275.179 196.841C274.307 195.844 273.826 194.564 273.827 193.24Z" fill="#192534"/>
<path d="M269.318 204.851C268.326 203.975 267.686 202.768 267.516 201.455C267.347 200.141 267.66 198.812 268.398 197.712C268.214 197.874 268.04 198.048 267.878 198.232C267.383 198.767 267 199.395 266.751 200.08C266.503 200.765 266.394 201.493 266.431 202.221C266.468 202.948 266.65 203.661 266.966 204.318C267.283 204.974 267.727 205.56 268.274 206.042C268.82 206.524 269.458 206.892 270.149 207.124C270.839 207.356 271.569 207.448 272.296 207.394C273.023 207.339 273.731 207.14 274.38 206.808C275.028 206.476 275.604 206.017 276.073 205.46C276.232 205.278 276.379 205.087 276.515 204.888C275.514 205.754 274.233 206.228 272.91 206.221C271.586 206.215 270.31 205.728 269.318 204.851Z" fill="#192534"/>
<path d="M274.539 212.287C274.09 212.375 273.656 212.528 273.25 212.739C272.532 213.259 272.558 214.299 272.771 215.147C273.26 217.081 274.456 218.938 276.286 219.728C277.419 220.146 278.627 220.323 279.833 220.248C281.138 220.248 282.614 220.071 283.426 219.042C283.791 218.498 284.04 217.886 284.159 217.242C284.559 215.682 284.965 214.071 284.819 212.459C284.029 212.526 283.145 212.573 282.521 212.074C281.897 211.575 281.756 210.623 281.481 209.833C281.451 209.706 281.38 209.592 281.278 209.51C281.164 209.459 281.038 209.441 280.914 209.458C280.084 209.494 279.253 209.459 278.429 209.354C277.909 209.287 276.65 208.751 276.265 209.204C275.985 209.531 276.161 210.529 275.943 210.992C275.806 211.29 275.612 211.558 275.371 211.78C275.13 212.003 274.847 212.175 274.539 212.287Z" fill="#FFC1C7"/>
<path opacity="0.05" d="M274.539 212.287C274.09 212.375 273.656 212.528 273.25 212.739C272.532 213.259 272.558 214.299 272.771 215.147C273.26 217.081 274.456 218.938 276.286 219.728C277.419 220.146 278.627 220.323 279.833 220.248C281.138 220.248 282.614 220.071 283.426 219.042C283.791 218.498 284.04 217.886 284.159 217.242C284.559 215.682 284.965 214.071 284.819 212.459C284.029 212.526 283.145 212.573 282.521 212.074C281.897 211.575 281.756 210.623 281.481 209.833C281.451 209.706 281.38 209.592 281.278 209.51C281.164 209.459 281.038 209.441 280.914 209.458C280.084 209.494 279.253 209.459 278.429 209.354C277.909 209.287 276.65 208.751 276.265 209.204C275.985 209.531 276.161 210.529 275.943 210.992C275.806 211.29 275.612 211.558 275.371 211.78C275.13 212.003 274.847 212.175 274.539 212.287Z" fill="black"/>
<path d="M278.933 211.543C282.264 211.543 284.964 208.843 284.964 205.512C284.964 202.18 282.264 199.48 278.933 199.48C275.601 199.48 272.901 202.18 272.901 205.512C272.901 208.843 275.601 211.543 278.933 211.543Z" fill="#FFC1C7"/>
<path d="M292.156 218.579C292.114 218.631 292.073 218.693 292.026 218.745L291.771 219.078C290.487 220.617 289.447 222.345 288.688 224.2C288.407 224.324 288.116 224.444 287.824 224.564C287.533 224.683 287.263 224.792 286.972 224.886C286.826 224.948 286.67 225 286.519 225.052C286.502 225.05 286.484 225.05 286.467 225.052C286.15 225.167 285.822 225.266 285.5 225.364L285.256 225.422C284.964 225.51 284.673 225.583 284.382 225.645C283.377 225.903 282.356 226.088 281.325 226.202C280.326 226.323 279.32 226.383 278.314 226.384C278.21 226.384 278.106 226.384 278.002 226.384C276.607 226.379 275.214 226.251 273.842 225.999L273.592 225.957C273.338 225.916 273.073 225.864 272.828 225.801L272.345 225.692C271.832 225.58 271.325 225.441 270.826 225.276C270.965 224.405 271.354 223.592 271.944 222.936C270.774 221.537 268.85 220.986 267.608 219.665C267.499 219.54 267.399 219.408 267.306 219.27C267.241 219.171 267.187 219.064 267.145 218.953C267.108 218.865 267.085 218.772 267.077 218.678C267.038 218.486 267.022 218.29 267.03 218.095C266.999 216.618 267.067 214.934 268.211 214.008C268.773 213.615 269.404 213.332 270.072 213.176C271.233 212.813 272.364 212.357 273.452 211.814C273.552 212.046 273.618 212.291 273.65 212.542C273.754 213.145 273.743 213.779 273.884 214.377C274.156 215.444 274.816 216.371 275.735 216.977C276.651 217.577 277.694 217.957 278.782 218.085C279.853 218.241 280.706 217.684 281.715 217.305C282.161 217.162 282.574 216.928 282.926 216.618C283.382 216.093 283.625 215.416 283.607 214.72C283.607 214.034 283.529 213.348 283.571 212.641C283.572 212.569 283.581 212.497 283.597 212.427C283.598 212.247 283.656 212.071 283.763 211.924C283.869 211.778 284.018 211.668 284.19 211.611C284.384 211.595 284.58 211.631 284.756 211.715L286.701 212.459C287.544 212.75 288.356 213.125 289.124 213.577C289.974 214.128 290.688 214.865 291.213 215.731C291.737 216.597 292.06 217.57 292.156 218.579Z" fill="#7303C0"/>
<path opacity="0.1" d="M273.816 226.004L273.567 225.962C273.312 225.921 273.047 225.869 272.802 225.806L272.319 225.697C271.806 225.585 271.299 225.446 270.8 225.281C269.784 224.977 268.789 224.607 267.821 224.174C267.334 222.59 267.157 220.926 267.301 219.275C267.364 218.567 267.511 217.869 267.738 217.196C268.83 218.236 270.691 217.648 271.929 218.48C272.264 218.717 272.539 219.031 272.729 219.395C273.076 220.061 273.311 220.78 273.426 221.522C273.504 221.927 273.577 222.338 273.639 222.749C273.639 222.822 273.639 222.879 273.639 222.941C273.639 223.004 273.639 223.071 273.639 223.139C273.681 223.43 273.717 223.732 273.733 224.028C273.816 224.699 273.816 225.344 273.816 226.004Z" fill="black"/>
<path d="M273.567 225.962C273.312 225.921 273.047 225.869 272.802 225.806L272.319 225.697C271.806 225.585 271.299 225.446 270.8 225.281C269.784 224.977 268.789 224.607 267.821 224.174L267.712 224.127C267.115 222.378 266.89 220.524 267.051 218.683C267.126 218.018 267.269 217.363 267.478 216.728C268.57 217.767 270.431 217.19 271.669 218.022C272.145 218.365 272.508 218.843 272.709 219.395C272.911 219.929 273.062 220.481 273.161 221.043C273.276 221.652 273.385 222.26 273.458 222.879C273.474 222.965 273.483 223.052 273.484 223.139C273.484 223.196 273.484 223.269 273.484 223.326C273.484 223.383 273.484 223.472 273.484 223.55C273.582 224.345 273.577 225.156 273.567 225.962Z" fill="#7303C0"/>
<path opacity="0.1" d="M291.626 222.676C290.679 223.245 289.698 223.753 288.688 224.2C288.407 224.325 288.116 224.444 287.825 224.564C287.533 224.683 287.263 224.792 286.972 224.886C286.826 224.948 286.67 225 286.519 225.052C286.502 225.05 286.485 225.05 286.467 225.052C286.15 225.167 285.823 225.266 285.5 225.364L285.256 225.422C285.256 224.959 285.256 224.481 285.308 224.013C285.344 223.643 285.386 223.274 285.438 222.905C285.438 222.837 285.438 222.77 285.464 222.702C285.469 222.659 285.469 222.615 285.464 222.572C285.526 222.219 285.594 221.86 285.661 221.506C285.769 220.762 286.005 220.043 286.358 219.38C286.553 219.022 286.829 218.716 287.164 218.485C288.402 217.653 290.284 218.22 291.324 217.201C291.529 217.805 291.67 218.429 291.745 219.062C291.886 220.266 291.846 221.484 291.626 222.676Z" fill="black"/>
<path d="M291.776 222.572L291.625 222.676C290.679 223.244 289.697 223.753 288.687 224.2C288.407 224.324 288.116 224.444 287.824 224.564C287.533 224.683 287.263 224.792 286.972 224.886C286.826 224.948 286.67 225 286.519 225.052C286.502 225.05 286.484 225.05 286.467 225.052C286.15 225.167 285.822 225.266 285.5 225.364C285.5 224.751 285.5 224.142 285.552 223.534C285.552 223.378 285.552 223.217 285.594 223.061C285.594 222.993 285.594 222.915 285.594 222.848C285.594 222.78 285.594 222.733 285.594 222.686C285.672 222.125 285.765 221.579 285.88 221.028C285.978 220.465 286.13 219.913 286.332 219.379C286.533 218.828 286.895 218.349 287.372 218.007C288.609 217.175 290.492 217.741 291.532 216.712C291.755 217.365 291.902 218.042 291.969 218.729C292.108 220.012 292.043 221.309 291.776 222.572Z" fill="#7303C0"/>
<path d="M278.813 204.664C282.811 204.664 286.051 202.504 286.051 199.839C286.051 197.174 282.811 195.013 278.813 195.013C274.816 195.013 271.575 197.174 271.575 199.839C271.575 202.504 274.816 204.664 278.813 204.664Z" fill="#192534"/>
<path opacity="0.05" d="M272.797 225.078C272.797 225.188 272.797 225.302 272.797 225.422C272.797 225.541 272.797 225.65 272.797 225.765C272.795 225.779 272.795 225.793 272.797 225.806L272.314 225.697C272.306 225.606 272.306 225.513 272.314 225.422C272.313 224.939 272.416 224.463 272.616 224.024C272.816 223.585 273.109 223.195 273.473 222.879C273.521 222.829 273.575 222.785 273.634 222.749C273.913 222.522 274.23 222.346 274.57 222.229C274.882 222.109 275.213 222.045 275.548 222.042C275.593 222.037 275.638 222.037 275.683 222.042C275.766 222.037 275.849 222.037 275.933 222.042H275.761C274.965 222.126 274.226 222.495 273.681 223.082C273.62 223.138 273.566 223.201 273.52 223.269C273.104 223.787 272.852 224.417 272.797 225.078Z" fill="black"/>
<path d="M278.09 225.422C278.09 225.747 278.051 226.072 277.976 226.389C276.581 226.385 275.189 226.256 273.816 226.004L273.567 225.962C273.312 225.921 273.047 225.869 272.802 225.806V225.765C272.802 225.65 272.802 225.541 272.802 225.422C272.802 225.302 272.802 225.188 272.802 225.078C272.846 224.381 273.084 223.709 273.489 223.139C273.535 223.067 273.589 223.001 273.65 222.941C273.892 222.639 274.204 222.4 274.56 222.245C274.833 222.114 275.131 222.047 275.433 222.047C275.468 222.042 275.503 222.042 275.537 222.047C275.608 222.042 275.68 222.042 275.751 222.047C277.066 222.271 278.09 223.695 278.09 225.422Z" fill="#7303C0"/>
<path opacity="0.05" d="M286.972 224.886C286.826 224.948 286.67 225 286.519 225.052C286.445 224.308 286.118 223.61 285.594 223.076L285.438 222.92C284.919 222.454 284.269 222.159 283.576 222.073H283.405C283.484 222.068 283.564 222.068 283.644 222.073C283.691 222.068 283.738 222.068 283.784 222.073C284.12 222.081 284.452 222.144 284.767 222.26C285.017 222.346 285.256 222.461 285.479 222.603C285.537 222.633 285.59 222.671 285.635 222.718C285.99 222.973 286.291 223.296 286.52 223.668C286.75 224.04 286.903 224.454 286.972 224.886Z" fill="black"/>
<path d="M286.519 225.052C286.502 225.05 286.484 225.05 286.467 225.052C286.15 225.167 285.822 225.266 285.5 225.364L285.256 225.422C284.964 225.51 284.673 225.583 284.382 225.645C283.377 225.903 282.356 226.088 281.325 226.202C281.272 225.94 281.246 225.673 281.247 225.406C281.247 223.68 282.287 222.255 283.592 222.057C283.661 222.052 283.73 222.052 283.8 222.057C283.832 222.052 283.866 222.052 283.898 222.057C284.204 222.056 284.506 222.124 284.782 222.255C285.041 222.37 285.277 222.53 285.479 222.728C285.536 222.771 285.589 222.82 285.635 222.874C286.157 223.486 286.467 224.25 286.519 225.052Z" fill="#7303C0"/>
<path opacity="0.1" d="M278.813 204.186C274.934 204.186 271.767 202.158 271.58 199.605C271.58 199.683 271.58 199.761 271.58 199.844C271.58 202.511 274.825 204.669 278.823 204.669C282.822 204.669 286.062 202.511 286.062 199.844C286.062 199.761 286.062 199.683 286.062 199.605C285.854 202.158 282.687 204.186 278.813 204.186Z" fill="black"/>
<path d="M252.539 60.3853C252.53 64.6896 253.602 68.9272 255.659 72.7088C255.893 73.13 256.132 73.5512 256.397 73.9619C256.427 74.0241 256.465 74.0819 256.511 74.1335C256.798 74.5934 257.108 75.0378 257.442 75.4647C258.522 76.9671 259.767 78.3433 261.155 79.5673C261.412 79.8142 261.683 80.0468 261.966 80.2641C262.857 81.0084 263.802 81.6846 264.795 82.2868L264.951 82.3908C265.897 82.9578 266.876 83.4683 267.883 83.9196L268.752 84.2783C269.038 84.3979 269.308 84.5123 269.604 84.6059C269.75 84.6631 269.901 84.7151 270.057 84.7671H270.13C270.445 84.8815 270.767 84.9855 271.097 85.0791L271.336 85.1363C271.627 85.2247 271.923 85.3027 272.215 85.3599C272.61 85.4639 273 85.5523 273.405 85.6251C274.014 85.7447 274.643 85.8487 275.267 85.9215C276.266 86.0409 277.271 86.0999 278.278 86.0983H278.584C279.98 86.0897 281.372 85.9592 282.744 85.7083C282.828 85.6999 282.912 85.686 282.994 85.6667C283.249 85.6251 283.514 85.5731 283.758 85.5107C283.925 85.4795 284.075 85.4431 284.242 85.4015C284.762 85.2871 285.282 85.1519 285.76 84.9907C286.067 84.8919 286.369 84.7983 286.67 84.6943C287.278 84.4811 287.887 84.2523 288.469 83.9924C288.56 83.9623 288.649 83.9258 288.734 83.8832L288.849 83.8312C289.618 83.4845 290.367 83.098 291.095 82.6716C291.714 82.318 292.317 81.9332 292.899 81.5277H292.936C293.031 81.4724 293.121 81.4098 293.206 81.3405C296.805 78.7802 299.685 75.3371 301.568 71.3423C303.452 67.3474 304.276 62.9352 303.962 58.5297C303.647 54.1243 302.205 49.8738 299.773 46.1871C297.341 42.5003 294.001 39.5013 290.075 37.4782C286.149 35.4552 281.768 34.4763 277.354 34.6355C272.941 34.7948 268.642 36.0869 264.872 38.3876C261.102 40.6884 257.987 43.9204 255.827 47.7728C253.667 51.6253 252.535 55.9686 252.539 60.3853Z" fill="#3F3D56"/>
<path d="M284.002 70.5873C284.382 70.9215 284.646 71.3675 284.756 71.8612C284.008 72.0588 283.243 71.6896 282.546 71.3412C280.383 70.3265 278.099 69.5908 275.75 69.1521C275.562 69.1347 275.382 69.0664 275.23 68.9545C275.112 68.7953 275.051 68.6012 275.057 68.4031C275.063 68.2051 275.135 68.0148 275.261 67.8626C275.521 67.5922 276.01 67.6286 276.364 67.613C277.773 67.5409 279.182 67.7666 280.498 68.2755C281.814 68.7844 283.008 69.565 284.002 70.5664V70.5873Z" fill="#7303C0"/>
<path d="M276.395 68.5177C276.24 68.9072 276.007 69.2613 275.711 69.5588C275.415 69.8564 275.063 70.0912 274.674 70.2493C274.253 70.4001 273.801 70.4261 273.374 70.5457C273.156 70.5912 272.951 70.6867 272.776 70.8247C272.601 70.9628 272.461 71.1396 272.366 71.3412C272.308 71.5228 272.282 71.7126 272.288 71.9028C272.22 73.6967 272.168 75.5427 272.885 77.2066C273.504 78.6314 274.638 79.7545 275.761 80.8205C277.071 82.0736 278.46 83.3424 280.186 83.904C281.195 84.2315 282.386 84.2679 283.223 83.618C283.551 83.333 283.837 83.0019 284.07 82.6352C284.654 81.8704 285.143 81.0375 285.526 80.1549C286.239 78.3246 285.999 76.2758 285.75 74.3259C285.748 74.2101 285.704 74.0989 285.625 74.0139C285.516 73.9463 285.386 73.9239 285.261 73.9515C284.814 73.9969 284.365 73.9009 283.976 73.6769C283.587 73.453 283.278 73.1125 283.093 72.7036C282.985 72.3324 282.945 71.945 282.973 71.5596L283.01 69.3341C283.027 69.0952 282.999 68.8552 282.926 68.6269C282.722 68.256 282.392 67.9702 281.996 67.821C280.78 67.2126 279.514 66.7132 278.21 66.3286C277.638 66.1622 277.201 65.8814 276.947 66.495C276.692 67.1086 276.692 67.873 276.395 68.5177Z" fill="#FBBEBE"/>
<path opacity="0.1" d="M276.395 68.5177C276.24 68.9072 276.007 69.2613 275.711 69.5588C275.415 69.8564 275.063 70.0912 274.674 70.2493C274.253 70.4001 273.801 70.4261 273.374 70.5457C273.156 70.5912 272.951 70.6867 272.776 70.8247C272.601 70.9628 272.461 71.1396 272.366 71.3412C272.308 71.5228 272.282 71.7126 272.288 71.9028C272.22 73.6967 272.168 75.5427 272.885 77.2066C273.504 78.6314 274.638 79.7545 275.761 80.8205C277.071 82.0736 278.46 83.3424 280.186 83.904C281.195 84.2315 282.386 84.2679 283.223 83.618C283.551 83.333 283.837 83.0019 284.07 82.6352C284.654 81.8704 285.143 81.0375 285.526 80.1549C286.239 78.3246 285.999 76.2758 285.75 74.3259C285.748 74.2101 285.704 74.0989 285.625 74.0139C285.516 73.9463 285.386 73.9239 285.261 73.9515C284.814 73.9969 284.365 73.9009 283.976 73.6769C283.587 73.453 283.278 73.1125 283.093 72.7036C282.985 72.3324 282.945 71.945 282.973 71.5596L283.01 69.3341C283.027 69.0952 282.999 68.8552 282.926 68.6269C282.722 68.256 282.392 67.9702 281.996 67.821C280.78 67.2126 279.514 66.7132 278.21 66.3286C277.638 66.1622 277.201 65.8814 276.947 66.495C276.692 67.1086 276.692 67.873 276.395 68.5177Z" fill="black"/>
<path d="M282.416 70.3221C286.167 70.3221 289.207 67.2817 289.207 63.5312C289.207 59.7806 286.167 56.7402 282.416 56.7402C278.666 56.7402 275.625 59.7806 275.625 63.5312C275.625 67.2817 278.666 70.3221 282.416 70.3221Z" fill="#FBBEBE"/>
<path d="M273.395 85.6563C274.003 85.7759 274.633 85.8799 275.257 85.9527C276.256 86.0721 277.261 86.1311 278.267 86.1295H278.574C279.969 86.1209 281.361 85.9904 282.734 85.7395C282.818 85.7311 282.901 85.7172 282.983 85.6979C283.238 85.6563 283.503 85.6043 283.748 85.5419C283.914 85.5107 284.065 85.4743 284.231 85.4327C284.751 85.3183 285.271 85.1831 285.75 85.0219C286.057 84.9231 286.358 84.8295 286.66 84.7255C287.268 84.5123 287.876 84.2835 288.459 84.0236C288.309 83.5613 288.186 83.0908 288.09 82.6144C287.922 81.5974 287.856 80.5662 287.892 79.5361C287.892 78.7094 287.928 77.8878 287.892 77.0662C287.905 76.3998 287.809 75.7358 287.606 75.1007C287.503 74.7834 287.338 74.4899 287.12 74.2373C286.902 73.9846 286.636 73.7779 286.337 73.6292C285.563 73.286 284.398 73.1092 283.633 73.494C283.546 73.5409 283.463 73.5948 283.384 73.6552C283.217 73.7944 283.089 73.9732 283.009 74.1751C282.76 74.7991 282.489 75.4283 282.25 76.0523C282.096 76.487 281.892 76.9023 281.642 77.2898C281.264 77.7996 280.738 78.1798 280.136 78.3781C279.533 78.5765 278.884 78.5832 278.278 78.3974C278.201 78.3725 278.127 78.3429 278.054 78.309C277.014 77.8878 276.063 76.9778 274.976 77.2222C274.675 77.3022 274.397 77.4496 274.162 77.6532C273.926 77.8568 273.741 78.1113 273.619 78.3974C273.603 78.4273 273.591 78.4587 273.582 78.491C273.364 79.0348 273.237 79.6112 273.208 80.1965C273.051 82.0174 273.113 83.8505 273.395 85.6563Z" fill="#F2F2F2"/>
<path d="M261.155 79.5829C261.412 79.8298 261.683 80.0624 261.966 80.2797C262.857 81.024 263.802 81.7002 264.795 82.3024L264.951 82.4064C265.897 82.9734 266.876 83.4839 267.883 83.9352L268.752 84.2939C269.038 84.4135 269.308 84.5279 269.604 84.6215C269.75 84.6787 269.901 84.7307 270.057 84.7827H270.13C270.445 84.8971 270.767 85.0011 271.097 85.0947L271.336 85.1519C271.627 85.2403 271.924 85.3183 272.215 85.3755C272.61 85.4795 273 85.5679 273.406 85.6407C274.014 85.7603 274.643 85.8643 275.267 85.9371C276.266 86.0565 277.272 86.1155 278.278 86.1139H278.585C279.98 86.1053 281.372 85.9748 282.744 85.7239C282.828 85.7155 282.912 85.7016 282.994 85.6823C283.249 85.6407 283.514 85.5887 283.758 85.5263C283.925 85.4951 284.076 85.4587 284.242 85.4171C284.762 85.3027 285.282 85.1675 285.76 85.0063C286.067 84.9075 286.369 84.8139 286.67 84.7099C287.279 84.4967 287.887 84.2679 288.469 84.0079C288.56 83.9779 288.649 83.9414 288.735 83.8987L288.849 83.8467C289.618 83.5001 290.367 83.1136 291.095 82.6872C291.606 81.326 292.04 79.9372 292.395 78.5274C292.393 78.4997 292.393 78.4719 292.395 78.4442C291.584 77.0038 290.866 75.5063 290.06 74.0659C289.831 73.5236 289.463 73.0515 288.993 72.6972C288.522 72.343 287.967 72.1191 287.383 72.0484C286.819 71.8626 286.233 71.7541 285.641 71.726C285.304 71.6947 284.97 71.6373 284.642 71.5544C283.966 71.4036 283.218 71.258 282.968 71.5544C282.957 71.5622 282.948 71.5724 282.942 71.5841C282.936 71.5958 282.932 71.6087 282.932 71.622C282.838 71.9713 282.881 72.3431 283.051 72.662C283.166 72.9896 283.316 73.3328 283.394 73.6135C283.441 73.7476 283.467 73.8878 283.472 74.0295C283.491 74.6386 283.47 75.2483 283.41 75.8547C283.264 76.7386 282.776 77.5186 282.547 78.3766C282.443 78.7821 282.391 79.2033 282.323 79.6141C282.179 80.5418 281.936 81.4516 281.6 82.3284C281.54 82.5146 281.45 82.6901 281.335 82.8484C280.909 83.3684 280.202 83.1708 279.531 83.072C279.042 82.656 279.068 81.9176 279.011 81.2936C278.868 80.2455 278.548 79.2293 278.065 78.2882L277.888 77.9138C277.368 76.8374 276.848 75.7663 276.359 74.6847C275.73 73.3432 275.08 71.8092 275.6 70.4209C275.751 70.0049 275.995 69.6357 276.161 69.2353C276.188 69.1764 276.211 69.1156 276.229 69.0533C276.277 68.9 276.303 68.7407 276.307 68.5801C276.325 68.4366 276.314 68.2907 276.272 68.1519C276.231 68.0131 276.162 67.8845 276.068 67.7742C276.04 67.7317 276.005 67.6947 275.964 67.665C275.946 67.6465 275.925 67.6323 275.901 67.6234C275.73 67.5249 275.538 67.4688 275.341 67.4598C275.144 67.4508 274.947 67.489 274.768 67.5714C274.563 67.6459 274.363 67.7345 274.17 67.8366C273.149 68.4117 272.164 69.049 271.222 69.7449C270.945 69.9092 270.729 70.1593 270.608 70.4573C270.586 70.6548 270.553 70.851 270.509 71.0448C270.364 71.414 269.922 71.5232 269.542 71.6064C267.972 71.9689 266.493 72.6479 265.195 73.6019C263.897 74.5559 262.807 75.7648 261.992 77.1546C261.716 77.6015 261.5 78.0821 261.347 78.5846C261.255 78.9112 261.19 79.2452 261.155 79.5829Z" fill="#7303C0"/>
<path d="M285.407 59.6989C284.486 60.64 283.015 60.6764 281.699 60.6556L281.741 60.1357L279.895 60.796C280.375 60.4403 280.785 59.9997 281.106 59.4961C280.978 59.4005 280.825 59.3443 280.665 59.3341C280.506 59.324 280.346 59.3604 280.207 59.4389C279.93 59.5997 279.699 59.8289 279.536 60.1045C279.012 60.8897 278.678 61.7866 278.562 62.7237C278.445 63.6608 278.549 64.6121 278.865 65.5018C278.677 65.5942 278.469 65.6357 278.26 65.622C278.051 65.6083 277.849 65.54 277.675 65.4239C277.328 65.1861 277.061 64.8489 276.91 64.4567C276.801 64.2071 276.687 63.9367 276.427 63.8379C276.315 63.8104 276.196 63.8211 276.091 63.8681C275.986 63.9152 275.899 63.9961 275.844 64.0979C275.735 64.2997 275.691 64.5305 275.72 64.7583C275.756 65.2783 276.146 65.7982 276.239 66.3182C276.333 66.8382 277.103 67.2542 276.697 67.6026C276.222 67.7814 275.725 67.8985 275.22 67.951C275.12 67.9209 275.029 67.8668 274.955 67.7934C274.88 67.72 274.825 67.6295 274.794 67.5298C274.383 66.625 274.529 65.5694 274.274 64.6075C274.038 63.8439 273.676 63.1251 273.203 62.4808C273.089 62.2839 272.953 62.1007 272.797 61.9348C272.634 61.8152 272.499 61.6606 272.402 61.4824C272.334 61.2952 272.464 61.0196 272.662 61.056C272.34 60.7435 271.992 60.4583 271.622 60.2033C271.986 59.7457 272.34 59.2777 272.662 58.8097C272.782 58.6433 272.906 58.4405 272.818 58.2585C272.768 58.1737 272.696 58.1037 272.61 58.0557L271.69 57.4318C271.69 56.995 272.558 57.1562 272.693 56.7454C272.727 56.637 272.727 56.521 272.693 56.4126L272.371 55.2375L273.598 55.7938C273.74 55.8755 273.903 55.9135 274.066 55.903C274.388 55.8562 274.544 55.4766 274.586 55.149C274.553 54.8214 274.595 54.4904 274.711 54.1819C275.267 54.1819 275.824 54.1819 276.375 54.1819C276.411 53.9038 276.338 53.6225 276.172 53.3967L280.269 53.1679C280.966 53.0886 281.671 53.138 282.349 53.3135C282.566 53.4155 282.802 53.4688 283.041 53.4695C283.275 53.4695 283.514 53.2251 283.446 52.9963C284.061 53.3432 284.623 53.7756 285.116 54.2807C285.247 54.4399 285.407 54.5723 285.589 54.6707C285.681 54.7181 285.785 54.7371 285.888 54.725C285.99 54.713 286.087 54.6705 286.166 54.6031C286.28 54.4835 286.332 54.2703 286.499 54.2599C286.665 54.2495 286.686 54.3431 286.748 54.4211C286.983 54.7221 287.173 55.0547 287.315 55.409C287.609 55.369 287.898 55.2922 288.173 55.1802C288.045 55.3173 287.961 55.4902 287.933 55.6759C287.905 55.8617 287.934 56.0515 288.017 56.2202C288.152 56.5686 288.402 56.865 288.568 57.1978C288.732 57.5576 288.842 57.9395 288.896 58.3313C288.979 58.8201 288.979 59.4389 288.547 59.6781C288.343 59.7487 288.122 59.7608 287.911 59.713C287.7 59.6652 287.506 59.5595 287.351 59.4077C286.358 58.7005 286.176 58.9085 285.407 59.6989Z" fill="#192534"/>
<path d="M261.966 80.2797C262.857 81.024 263.802 81.7002 264.795 82.3024L264.95 82.4064C265.897 82.9734 266.876 83.4839 267.883 83.9351L268.752 84.2939C269.038 84.4135 269.308 84.5279 269.604 84.6215C269.75 84.6787 269.901 84.7307 270.057 84.7827C269.875 84.2627 269.755 83.7427 269.594 83.2228C269.165 81.8337 268.398 80.5725 267.363 79.5517C266.469 78.6573 265.044 77.3522 263.723 78.1426C263.321 78.4138 262.969 78.7535 262.683 79.1461C262.43 79.4354 262.213 79.755 262.039 80.0977C262.013 80.1445 261.992 80.2069 261.966 80.2797Z" fill="#7303C0"/>
<path d="M286.691 84.7203C287.299 84.5072 287.908 84.2784 288.49 84.0184C288.581 83.9883 288.67 83.9518 288.755 83.9092L288.87 83.8572C289.639 83.5105 290.388 83.124 291.116 82.6976C291.735 82.344 292.338 81.9593 292.92 81.5537H292.957C292.91 80.974 292.91 80.3914 292.957 79.8117C292.987 79.6172 292.974 79.4186 292.92 79.2294C292.848 79.0795 292.749 78.9439 292.629 78.829C292.553 78.7524 292.481 78.6708 292.416 78.5846C291.828 77.9242 291.35 77.2118 290.336 77.3158C289.322 77.4198 288.448 78.2934 288.022 79.2658C287.975 79.3593 287.937 79.4567 287.908 79.5569C287.618 80.4603 287.392 81.3829 287.232 82.318C287.097 82.8952 286.925 83.4516 286.8 84.0288C286.769 84.242 286.722 84.4812 286.691 84.7203Z" fill="#7303C0"/>
<path d="M169.477 237.922L169.248 238.047L169.477 237.922Z" fill="url(#paint0_linear)"/>
<path d="M137.534 209.838C135.527 215.62 137.872 225.006 138.959 229.191C139.68 232.22 140.156 235.301 140.384 238.405C142.83 238.822 145.333 238.765 147.757 238.239L146 229.613C147.253 224.501 146 210.847 146 210.847C146 210.847 148.844 205.569 149.12 197.525C149.364 189.611 151.314 187.052 151.376 186.969C155.396 189.049 160.507 211.517 160.507 211.517C160.086 216.962 160.59 225.338 162.265 229.862C163.28 232.736 163.708 235.784 163.523 238.827C163.848 239.06 164.22 239.22 164.614 239.296C165.007 239.371 165.412 239.36 165.8 239.263C168.192 238.879 171.063 236.814 171.063 236.814C171.063 236.814 170.142 212.375 169.472 211.434C168.801 210.493 169.472 205.236 169.472 205.236L168.38 196.688C168.38 196.688 168.546 182.196 166.955 179.684C165.582 177.511 165.265 173.699 165.203 172.696C165.203 172.54 165.203 172.451 165.203 172.451L162.779 169.545C162.779 169.545 139.323 167.787 137.56 169.545C137.129 169.976 136.864 170.959 136.702 172.196C136.219 175.998 136.775 182.196 136.775 182.196C136.775 182.196 137.477 186.803 138.486 191.493C139.089 194.31 139.089 197.224 138.486 200.041C138.807 203.338 138.483 206.665 137.534 209.838Z" fill="#575A89"/>
<path d="M138.98 246.574C140.02 247.958 146.187 247.37 147.232 246.938C147.872 246.678 147.825 245.472 147.653 244.235C147.544 243.444 147.383 242.638 147.315 242.051C147.149 240.543 147.835 237.485 147.835 237.485C147.835 237.485 146.452 238.952 146.119 237.485C146.041 237.206 145.889 236.952 145.678 236.753C145.468 236.553 145.207 236.414 144.923 236.352C144.206 236.134 143.435 236.182 142.75 236.487C141.658 236.955 139.843 237.964 140.15 239.326C140.608 241.25 138.975 244.006 138.975 244.006C138.679 244.375 138.519 244.833 138.519 245.306C138.519 245.778 138.679 246.237 138.975 246.606L138.98 246.574Z" fill="#CBCEDA"/>
<path opacity="0.1" d="M138.98 246.574C140.02 247.958 146.187 247.37 147.232 246.938C147.872 246.678 147.825 245.472 147.653 244.234C146.993 244.541 145.864 244.801 144.013 244.624C143.576 244.585 143.137 244.571 142.698 244.583C141.365 244.646 140.029 244.62 138.699 244.505C138.55 244.842 138.498 245.214 138.547 245.579C138.597 245.945 138.747 246.289 138.98 246.574Z" fill="black"/>
<path opacity="0.1" d="M160.471 211.517C160.05 216.962 160.554 225.338 162.229 229.862C163.244 232.736 163.672 235.784 163.487 238.827C163.812 239.06 164.184 239.22 164.578 239.296C164.971 239.371 165.376 239.36 165.765 239.263C165.245 235.733 163.107 220.508 161.724 208.481C160.724 200.151 157.658 192.202 152.807 185.357L151.34 186.969C155.36 189.065 160.471 211.517 160.471 211.517Z" fill="black"/>
<path d="M141.497 123.469L142.537 128.497L147.55 136.916L153.727 134.28C153.727 134.28 162.125 125.482 156.847 124.223C156.214 124.09 155.617 123.824 155.095 123.443C154.642 123.083 154.282 122.62 154.044 122.093C153.806 121.566 153.698 120.989 153.727 120.412C153.768 119.165 154.06 117.94 154.585 116.808L143.775 113.423C144.217 114.844 144.477 116.315 144.549 117.801C144.633 120.745 143.535 122.195 142.641 122.887C142.302 123.155 141.913 123.353 141.497 123.469Z" fill="#FBBEBE"/>
<path opacity="0.1" d="M143.774 113.423C144.217 114.844 144.477 116.315 144.549 117.801C144.744 118.037 144.954 118.259 145.178 118.467C146.759 119.983 148.864 120.831 151.054 120.833C151.952 120.835 152.843 120.693 153.696 120.412C153.736 119.165 154.028 117.94 154.554 116.808L143.774 113.423Z" fill="black"/>
<path d="M142.516 112.035C142.515 113.726 143.016 115.38 143.955 116.787C144.894 118.193 146.23 119.29 147.792 119.937C149.355 120.585 151.074 120.754 152.733 120.424C154.392 120.094 155.916 119.279 157.111 118.083C158.307 116.886 159.121 115.362 159.45 113.703C159.779 112.044 159.608 110.325 158.96 108.763C158.312 107.2 157.214 105.866 155.807 104.928C154.4 103.989 152.746 103.489 151.054 103.492C149.931 103.487 148.818 103.704 147.78 104.132C146.742 104.56 145.798 105.189 145.004 105.983C144.211 106.778 143.582 107.721 143.155 108.76C142.728 109.799 142.511 110.912 142.516 112.035Z" fill="#FBBEBE"/>
<path opacity="0.1" d="M141.497 123.469L142.537 128.497L147.55 136.916L153.727 134.28C153.727 134.28 162.125 125.481 156.847 124.223C156.214 124.09 155.617 123.824 155.095 123.443C156.046 126.043 152.115 131.513 152.115 131.513C151.657 132.184 150.607 131.763 150.607 131.763C148.07 131.378 143.405 124.093 142.646 122.882C142.306 123.152 141.915 123.352 141.497 123.469Z" fill="black"/>
<path opacity="0.1" d="M136.656 172.181C138.143 172.519 146.374 174.344 149.494 173.886C152.931 173.367 159.608 173.049 159.608 173.049C159.608 173.049 163.861 173.278 165.166 172.68C165.166 172.524 165.166 172.436 165.166 172.436L162.743 169.529C162.743 169.529 139.287 167.772 137.524 169.529C137.082 169.976 136.817 170.959 136.656 172.181Z" fill="black"/>
<path d="M152.094 131.763C152.094 131.763 156.514 125.643 154.845 123.256L162.312 126.319C162.312 126.319 166.804 125.773 168.427 132.48C168.686 133.596 168.781 134.743 168.707 135.886C168.663 137.661 169.086 139.417 169.935 140.977C171.781 144.664 171.359 153.124 167.59 153.976C163.82 154.829 162.478 154.392 162.478 154.392C162.478 154.392 162.998 169.721 165.161 171.484C167.324 173.247 159.608 172.826 159.608 172.826C159.608 172.826 152.931 173.158 149.494 173.663C146.057 174.167 136.427 171.9 136.427 171.9C136.427 171.9 137.852 165.452 138.351 161.344C138.85 157.237 140.031 148.501 140.031 148.501L131.482 136.926C131.482 136.926 129.974 129.933 135.252 126.833C140.53 123.734 142.532 122.97 142.532 122.97C142.532 122.97 147.835 131.607 150.602 132.028C150.586 132.018 151.637 132.439 152.094 131.763Z" fill="#3F3D56"/>
<path opacity="0.1" d="M161.896 134.191C161.896 134.191 161.979 136.957 161.475 138.049C160.97 139.141 159.129 145.168 159.129 145.168H163.315C163.315 145.168 161.053 142.74 161.235 141.564C161.417 140.389 161.896 134.191 161.896 134.191Z" fill="black"/>
<path d="M149.494 155.053C149.494 155.053 158.744 152.791 159.608 150.862C160.471 148.933 162.847 144.622 162.847 144.622L161.87 143.306L157.372 146.837C157.372 146.837 152.011 151.111 149.494 151.517C146.977 151.922 149.494 155.053 149.494 155.053Z" fill="#FBBEBE"/>
<path opacity="0.05" d="M149.494 155.053C149.494 155.053 158.744 152.791 159.608 150.862C160.471 148.933 162.847 144.622 162.847 144.622L161.87 143.306L157.372 146.837C157.372 146.837 152.011 151.111 149.494 151.517C146.977 151.922 149.494 155.053 149.494 155.053Z" fill="black"/>
<path d="M141.497 144.164V149.182H142.303C146.288 149.182 150.207 150.197 153.691 152.13L155.204 152.968L155.609 153.196L158.209 147.347L155.781 145.168H155.656C155.058 145.225 152.489 145.444 151.403 145.074C150.316 144.705 149.084 143.608 146.031 144.388C144.534 144.773 143.249 146.468 141.793 145.948L141.497 144.164Z" fill="#FBBEBE"/>
<path opacity="0.1" d="M133.411 135.034L131.737 136.916V141.502C131.737 141.502 133.162 155.911 137.685 157.502C142.209 159.093 150.284 156.582 150.284 156.582C150.284 156.582 152.364 151.054 151.392 150.716C150.42 150.378 142.771 148.361 142.771 148.361C142.771 148.361 142.875 139.911 141.211 137.399C141.211 137.399 142.303 129.522 138.533 129.355C134.763 129.189 133.411 135.034 133.411 135.034Z" fill="black"/>
<path d="M133.161 135.034L131.482 136.916V141.502C131.482 141.502 132.907 155.911 137.431 157.502C141.954 159.093 150.014 156.582 150.014 156.582C150.014 156.582 152.094 151.054 151.127 150.716C150.16 150.378 142.5 148.361 142.5 148.361C142.5 148.361 142.61 139.911 140.94 137.399C140.94 137.399 142.027 129.522 138.257 129.355C134.487 129.189 133.161 135.034 133.161 135.034Z" fill="#3F3D56"/>
<path opacity="0.1" d="M144.861 115.664C144.788 115.114 144.854 114.555 145.053 114.037C145.159 113.782 145.346 113.569 145.584 113.43C145.823 113.291 146.1 113.234 146.374 113.267C147.092 113.434 147.414 114.37 148.106 114.593C148.41 114.654 148.727 114.61 149.003 114.467C149.279 114.324 149.498 114.092 149.624 113.808C149.864 113.231 149.964 112.606 149.915 111.983C149.915 111.286 149.915 110.584 149.915 109.903C149.915 109.222 149.941 108.317 150.409 107.719C150.997 106.975 152.37 106.648 153.285 106.679C153.895 106.684 154.48 106.92 154.923 107.339C155.147 107.564 155.418 107.735 155.717 107.841C156.015 107.947 156.334 107.985 156.649 107.953C156.928 107.911 157.188 107.791 157.402 107.607C157.615 107.423 157.772 107.182 157.855 106.913C157.853 106.905 157.853 106.896 157.855 106.887C157.143 105.948 156.243 105.166 155.214 104.592C154.184 104.017 153.047 103.662 151.873 103.548C150.7 103.435 149.515 103.565 148.395 103.932C147.274 104.298 146.241 104.893 145.362 105.678C144.482 106.463 143.774 107.421 143.283 108.493C142.792 109.565 142.528 110.727 142.508 111.906C142.488 113.085 142.712 114.255 143.166 115.343C143.62 116.431 144.295 117.413 145.147 118.228C145.002 117.38 144.906 116.524 144.861 115.664Z" fill="black"/>
<path d="M156.66 107.703C156.938 107.66 157.198 107.539 157.411 107.356C157.624 107.172 157.782 106.932 157.866 106.663C157.934 106.393 157.918 106.102 157.996 105.837C158.194 105.176 158.896 104.833 159.364 104.334C160.31 103.33 160.247 101.682 159.577 100.481C159.057 99.5085 158.017 98.6921 156.899 98.8793C156.223 98.9989 155.635 99.4825 154.949 99.5241C154.287 99.478 153.646 99.2709 153.082 98.9209C151.629 98.2627 149.995 98.1178 148.449 98.5101C147.974 98.6048 147.533 98.8278 147.175 99.1549C146.932 99.4592 146.707 99.7769 146.499 100.106C145.714 101.105 144.315 101.297 143.073 101.521C141.83 101.744 140.421 102.238 140.01 103.44C139.739 104.23 140.01 105.093 140.155 105.92C140.211 106.091 140.2 106.277 140.124 106.44C139.932 106.762 139.443 106.627 139.084 106.705C138.382 106.851 138.2 107.745 138.174 108.483C138.143 109.31 138.122 110.137 138.107 110.964C138.063 111.348 138.111 111.737 138.247 112.099C138.384 112.46 138.605 112.784 138.892 113.044L141.658 116.366C142.885 117.843 144.185 119.559 143.941 121.462C144.518 121.722 145.21 121.218 145.402 120.609C145.532 119.982 145.5 119.333 145.308 118.722C145.085 117.643 144.939 116.55 144.872 115.451C144.798 114.901 144.865 114.341 145.064 113.824C145.169 113.567 145.357 113.353 145.596 113.213C145.836 113.074 146.115 113.018 146.39 113.054C147.108 113.22 147.43 114.151 148.122 114.38C148.426 114.44 148.742 114.395 149.018 114.252C149.294 114.11 149.513 113.878 149.64 113.595C149.88 113.018 149.98 112.392 149.931 111.77V109.69C149.931 108.931 149.957 108.13 150.425 107.506C151.013 106.762 152.385 106.44 153.301 106.466C153.909 106.476 154.493 106.711 154.938 107.126C155.165 107.344 155.436 107.509 155.734 107.609C156.032 107.709 156.348 107.741 156.66 107.703Z" fill="#3F3D56"/>
<path opacity="0.1" d="M154.73 133.983L152.13 144.762C152.13 144.762 150.04 144.747 154.73 133.983Z" fill="black"/>
<path opacity="0.1" d="M145.766 132.184C145.766 132.184 149.203 137.81 147.846 143.624L147.206 143.67C147.206 143.67 148.366 140.982 145.766 132.184Z" fill="black"/>
<path opacity="0.1" d="M143.587 164.017C143.587 164.017 139.37 162.624 139.063 165.858C139.063 165.858 139.859 163.638 143.587 164.017Z" fill="black"/>
<path opacity="0.1" d="M155.781 145.417C155.781 145.417 156.618 151.283 155.11 153.628C157.476 154.465 159.99 154.807 162.494 154.632L163.014 145.417H155.781Z" fill="black"/>
<path opacity="0.1" d="M155.214 152.968L155.619 153.196L158.219 147.347L155.791 145.168H155.661C155.692 145.449 156.368 150.487 155.214 152.968Z" fill="black"/>
<path d="M155.781 145.168C155.781 145.168 156.618 151.033 155.11 153.378C157.477 154.212 159.99 154.554 162.494 154.382L165.426 145.168H155.781Z" fill="#3F3D56"/>
<path d="M163.014 243.007C163.062 243.425 163.248 243.815 163.543 244.116C163.838 244.416 164.224 244.61 164.641 244.666C166.914 245.009 172.394 245.872 173.777 246.533C175.54 247.37 182.492 246.782 182.825 245.945C182.872 245.778 182.886 245.604 182.865 245.431C182.845 245.259 182.791 245.093 182.705 244.942C182.469 244.429 182.075 244.005 181.582 243.73C181.416 243.641 181.242 243.566 181.062 243.506C179.752 243.07 177.282 242.144 176.611 241.172C176.611 241.172 173.528 238.473 172.649 237.012C172.484 236.725 172.25 236.483 171.969 236.308C171.688 236.133 171.368 236.03 171.037 236.008C170.304 235.977 169.477 236.346 169.155 237.953C169.155 237.953 165.135 240.246 164.049 238.234C164.049 238.234 163.877 241.323 163.211 242.17C163.038 242.412 162.967 242.713 163.014 243.007Z" fill="#CBCEDA"/>
<path opacity="0.1" d="M163.013 243.007C163.062 243.425 163.248 243.816 163.543 244.116C163.837 244.416 164.224 244.61 164.641 244.666C166.913 245.009 172.394 245.872 173.777 246.533C175.54 247.37 182.492 246.782 182.825 245.945C182.872 245.778 182.886 245.604 182.865 245.432C182.845 245.259 182.79 245.093 182.705 244.942C182.468 244.429 182.075 244.005 181.582 243.73C180.448 244.484 177.942 245.222 172.399 244.354C167.116 243.533 164.501 242.721 163.227 242.175C163.049 242.414 162.972 242.713 163.013 243.007Z" fill="black"/>
<g opacity="0.1">
<path opacity="0.1" d="M140.165 106.019C140.165 106.019 140.165 105.993 140.165 105.982C140.005 105.36 139.919 104.721 139.911 104.079C139.951 104.598 140.026 105.114 140.134 105.623C140.173 105.751 140.183 105.886 140.165 106.019Z" fill="black"/>
<path opacity="0.1" d="M145.053 113.86C144.922 114.164 144.851 114.491 144.845 114.822C144.808 114.366 144.88 113.908 145.053 113.486C145.16 113.23 145.347 113.016 145.586 112.877C145.826 112.738 146.105 112.681 146.379 112.716C147.097 112.882 147.419 113.818 148.111 114.042C148.416 114.103 148.732 114.059 149.008 113.916C149.284 113.773 149.503 113.541 149.629 113.257C149.87 112.68 149.97 112.055 149.92 111.432C149.92 110.735 149.92 110.033 149.92 109.352C149.92 108.671 149.946 107.766 150.414 107.168C151.002 106.424 152.375 106.097 153.29 106.128C153.9 106.133 154.485 106.369 154.928 106.788C155.152 107.012 155.423 107.184 155.722 107.29C156.02 107.396 156.339 107.434 156.654 107.402C156.933 107.36 157.194 107.24 157.408 107.056C157.621 106.872 157.778 106.631 157.861 106.362C157.928 106.091 157.913 105.8 157.991 105.535C158.188 104.875 158.89 104.532 159.358 104.032C159.8 103.548 160.052 102.92 160.065 102.264C160.101 102.652 160.056 103.042 159.935 103.412C159.813 103.781 159.617 104.121 159.358 104.412C158.89 104.932 158.188 105.254 157.991 105.909C157.913 106.18 157.928 106.466 157.861 106.736C157.778 107.006 157.621 107.246 157.407 107.43C157.194 107.614 156.933 107.734 156.654 107.776C156.338 107.809 156.019 107.771 155.721 107.663C155.422 107.556 155.151 107.383 154.928 107.157C154.484 106.74 153.899 106.504 153.29 106.497C152.375 106.466 151.002 106.793 150.414 107.537C149.946 108.135 149.926 108.962 149.92 109.721C149.915 110.48 149.92 111.12 149.92 111.801C149.969 112.422 149.87 113.046 149.629 113.621C149.505 113.906 149.286 114.139 149.009 114.282C148.733 114.425 148.416 114.469 148.111 114.406C147.409 114.182 147.097 113.252 146.379 113.085C146.104 113.049 145.824 113.105 145.584 113.246C145.344 113.386 145.157 113.602 145.053 113.86Z" fill="black"/>
<path opacity="0.1" d="M138.169 111.556C138.323 111.987 138.566 112.38 138.881 112.711L141.647 116.033C142.812 117.432 144.045 119.049 143.951 120.838C143.868 119.2 142.729 117.718 141.647 116.408L138.881 113.085C138.594 112.826 138.373 112.502 138.237 112.14C138.1 111.779 138.052 111.389 138.096 111.005C138.096 111.191 138.12 111.377 138.169 111.556Z" fill="black"/>
<path opacity="0.1" d="M145.391 120.276C145.437 120.13 145.465 119.978 145.475 119.824C145.497 120.102 145.469 120.383 145.391 120.651C145.199 121.259 144.513 121.764 143.93 121.498C143.947 121.378 143.955 121.256 143.956 121.134C144.26 121.209 144.581 121.16 144.85 121C145.118 120.839 145.313 120.579 145.391 120.276Z" fill="black"/>
</g>
<path opacity="0.1" d="M173.226 237.776C173.226 237.776 172.353 239.336 169.181 237.958L173.226 237.776Z" fill="black"/>
<path opacity="0.1" d="M146.4 238.146C146.4 238.146 143.665 241.369 140.218 239.185L146.4 238.146Z" fill="black"/>
<path opacity="0.1" d="M138.439 200.042C138.439 200.042 140.369 201.248 140.436 201.939C140.504 202.631 139.438 201.419 139.438 201.419L138.439 200.042Z" fill="black"/>
<path opacity="0.1" d="M137.675 209.302C138.346 209.863 139.182 210.19 140.056 210.233C141.502 210.295 141.382 212.178 140.436 211.616C139.458 210.916 138.535 210.143 137.675 209.302Z" fill="black"/>
<path opacity="0.1" d="M137.306 210.509C137.306 210.509 138.236 215.069 138.99 214.19L137.306 210.509Z" fill="black"/>
<path d="M43.3089 239.066C44.8688 236.201 43.0957 232.691 41.0782 230.138C39.0607 227.585 36.6012 224.938 36.6532 221.667C36.7312 216.988 41.697 214.221 45.6644 211.741C48.6104 209.902 51.3265 207.718 53.7553 205.236C54.7716 204.28 55.6127 203.154 56.2408 201.908C57.0624 200.078 57.0364 197.998 56.9844 195.996C56.811 189.316 56.4817 182.645 55.9964 175.982" stroke="#3F3D56" stroke-width="4" stroke-miterlimit="10"/>
<path d="M63.5415 175.618C63.4862 174.396 63.1238 173.207 62.4876 172.162C61.8514 171.117 60.962 170.249 59.9017 169.638L58.2689 172.867L58.3157 168.957C56.8356 168.525 55.2564 168.573 53.8058 169.096C52.3552 169.619 51.1081 170.589 50.2442 171.866C49.3804 173.144 48.9444 174.662 48.9992 176.203C49.054 177.744 49.5967 179.228 50.5491 180.441C51.5015 181.654 52.8143 182.533 54.2984 182.951C55.7825 183.37 57.3612 183.306 58.8068 182.77C60.2525 182.233 61.4905 181.252 62.3423 179.966C63.1942 178.681 63.6159 177.158 63.5467 175.618H63.5415Z" fill="#57B894"/>
<path d="M50.5265 225.011C49.761 226.495 48.5088 227.67 46.9797 228.34C45.4507 229.011 43.7377 229.135 42.1279 228.692C40.5181 228.25 39.1092 227.268 38.1375 225.91C37.1658 224.553 36.6902 222.902 36.7905 221.236C36.8908 219.569 37.5608 217.988 38.6883 216.757C39.8159 215.525 41.3323 214.719 42.9836 214.473C44.6348 214.227 46.3205 214.556 47.7582 215.404C49.1958 216.253 50.298 217.57 50.8801 219.135L46.3198 222.843L51.3376 221.683C51.3358 222.841 51.0577 223.982 50.5265 225.011Z" fill="#57B894"/>
<path d="M46.923 210.841C45.1098 210.969 43.3142 210.415 41.8894 209.286C40.4647 208.157 39.5137 206.536 39.2237 204.741C38.9336 202.947 39.3254 201.109 40.322 199.589C41.3186 198.068 42.8479 196.976 44.6091 196.526L44.5675 199.532L46.2211 196.261C47.1786 196.214 48.1359 196.357 49.038 196.681C49.9402 197.005 50.7695 197.504 51.4783 198.15C52.187 198.795 52.7613 199.575 53.1682 200.443C53.5751 201.311 53.8065 202.25 53.8492 203.208C53.8919 204.05 53.7863 204.893 53.5372 205.699C53.0986 207.133 52.2279 208.396 51.0441 209.317C49.8602 210.237 48.4209 210.77 46.923 210.841Z" fill="#57B894"/>
<path d="M64.6389 199.053C63.5185 199.095 62.4036 198.878 61.3811 198.418C60.3585 197.958 59.456 197.269 58.7439 196.403C58.0318 195.537 57.5293 194.518 57.2757 193.426C57.022 192.334 57.024 191.198 57.2816 190.107C57.5391 189.016 58.0452 187.999 58.7604 187.135C59.4755 186.272 60.3805 185.585 61.4046 185.129C62.4288 184.673 63.5445 184.459 64.6647 184.505C65.7849 184.551 66.8794 184.855 67.8627 185.394L66.5732 188.929L69.2303 186.382C70.6514 187.683 71.4985 189.495 71.5858 191.42C71.6204 192.096 71.5592 192.774 71.4038 193.432C71.0397 194.977 70.1825 196.361 68.962 197.375C67.7415 198.389 66.224 198.978 64.6389 199.053Z" fill="#57B894"/>
<path opacity="0.1" d="M62.5586 177.563C60.8739 177.745 59.2359 178.27 57.546 178.374C55.8561 178.478 53.9997 178.072 52.9286 176.762C52.3566 176.055 52.0654 175.155 51.5818 174.386C51.12 173.666 50.4877 173.071 49.7411 172.654C49.3008 173.574 49.0589 174.577 49.031 175.597C49.0032 176.617 49.1901 177.631 49.5795 178.574C49.969 179.517 50.5523 180.368 51.2917 181.071C52.0311 181.774 52.9101 182.314 53.8715 182.656C54.833 182.997 55.8555 183.133 56.8727 183.053C57.8899 182.974 58.8792 182.682 59.7762 182.196C60.6733 181.71 61.4582 181.041 62.0799 180.232C62.7017 179.423 63.1464 178.492 63.3854 177.5C63.1115 177.511 62.8359 177.531 62.5586 177.563Z" fill="black"/>
<path opacity="0.1" d="M64.6388 199.053C63.3802 199.117 62.1266 198.853 61.0006 198.287C59.8746 197.721 58.9148 196.873 58.2152 195.825C57.5155 194.776 57.1 193.565 57.0092 192.308C56.9183 191.051 57.1554 189.792 57.6971 188.654C58.2762 189.043 58.7742 189.541 59.1635 190.12C59.6834 190.905 60.0006 191.815 60.609 192.533C61.7478 193.869 63.6873 194.306 65.45 194.228C67.2127 194.15 68.9131 193.646 70.6498 193.484C70.8942 193.484 71.1386 193.448 71.3882 193.443C71.0228 194.983 70.1671 196.363 68.9499 197.375C67.7327 198.386 66.2198 198.976 64.6388 199.053Z" fill="black"/>
<path opacity="0.1" d="M46.9232 210.841C45.6758 210.905 44.433 210.648 43.3142 210.092C42.1953 209.537 41.2381 208.704 40.5346 207.672C39.8312 206.64 39.405 205.444 39.2972 204.2C39.1894 202.955 39.4035 201.704 39.919 200.567C40.5254 200.961 41.0541 201.463 41.479 202.049C42.0457 202.849 42.3993 203.77 43.0649 204.508C44.2973 205.881 46.3668 206.364 48.2283 206.318C50.0898 206.271 51.7798 205.839 53.5737 205.699C53.1331 207.139 52.2569 208.406 51.0658 209.327C49.8747 210.248 48.4274 210.777 46.9232 210.841Z" fill="black"/>
<path opacity="0.1" d="M50.5264 225.011C49.7369 226.775 48.2787 228.154 46.4727 228.843C44.6668 229.533 42.6609 229.477 40.8964 228.687C39.1318 227.898 37.7532 226.439 37.0638 224.634C36.3744 222.828 36.4306 220.822 37.2201 219.057C37.8237 219.449 38.3637 219.932 38.8216 220.487C39.5184 221.329 39.976 222.291 40.7768 223.087C42.2691 224.553 44.6766 225.167 46.8241 225.214C48.0611 225.22 49.2974 225.152 50.5264 225.011Z" fill="black"/>
<path d="M32.3013 235.769C32.3013 235.769 38.0626 235.618 39.7786 234.355C41.4945 233.091 48.6182 231.646 49.0654 233.627C49.5126 235.608 57.7231 243.507 51.2181 243.538C44.7132 243.569 36.1127 242.498 34.376 241.458C32.6393 240.418 32.3013 235.769 32.3013 235.769Z" fill="#656380"/>
<path opacity="0.2" d="M51.3585 242.846C44.8536 242.903 36.2479 241.837 34.5164 240.766C33.1956 239.96 32.6705 237.074 32.4937 235.748H32.3013C32.3013 235.748 32.6653 240.392 34.3812 241.468C36.0971 242.545 44.7236 243.59 51.2233 243.548C53.1005 243.548 53.7504 242.867 53.714 241.879C53.4696 242.467 52.7781 242.836 51.3585 242.846Z" fill="black"/>
</g>
<defs>
<linearGradient id="paint0_linear" x1="169.362" y1="238.047" x2="169.362" y2="237.922" gradientUnits="userSpaceOnUse">
<stop stop-color="#808080" stop-opacity="0.25"/>
<stop offset="0.54" stop-color="#808080" stop-opacity="0.12"/>
<stop offset="1" stop-color="#808080" stop-opacity="0.1"/>
</linearGradient>
<clipPath id="clip0">
<rect width="612.016" height="257" fill="white"/>
</clipPath>
</defs>
</svg>
