<svg width="390" height="257" viewBox="0 0 390 257" fill="none" xmlns="http://www.w3.org/2000/svg">
<g clip-path="url(#clip0)">
<path opacity="0.1" d="M319.54 139.505C307.592 155.86 311.535 179.206 318.442 197.805C320.755 204.031 323.383 210.616 322.183 217.39C320.718 225.671 313.833 231.876 306.676 235.255C293.629 241.414 278.217 240.431 266.546 232.671C256.475 225.973 249.385 214.842 239.118 208.464C221.936 197.793 199.629 202.56 180.505 210.707C166.976 216.471 152.156 223.893 138.971 218.571C129.693 214.827 123.446 205.294 120.159 195.104C118.572 190.184 117.461 184.844 114.299 180.993C112.419 178.703 109.935 177.108 107.38 175.775C84.0663 163.596 54.0777 171.208 31.4749 157.62C16.2151 148.444 6.71736 130.637 2.77117 111.916C-1.17501 93.195 -0.198385 73.4331 1.37338 54.009C2.49039 40.2052 4.25748 25.4545 12.5771 14.6069C21.3759 3.13817 36.123 -1.41947 49.3105 0.376795C62.4981 2.17306 74.3214 9.47991 84.6644 18.2025C97.6017 29.0836 109.504 42.7443 125.594 46.8757C136.554 49.6889 148.197 47.6978 159.59 46.8179C178.634 45.3504 197.611 47.0401 216.473 48.949C234.528 50.7758 252.708 52.8156 269.809 58.8041C281.91 63.0421 291.502 71.0523 302.895 76.5263C310.32 80.0945 318.49 80.9226 325.479 85.532C334.104 91.21 341.899 101.269 339.369 113.341C336.979 124.815 325.888 130.825 319.54 139.505Z" fill="#7303C0"/>
<g opacity="0.5">
<path opacity="0.5" d="M260.939 214.103C260.939 214.103 261.947 184.339 278.088 167.522C284.864 160.464 289.314 151.501 290.492 141.801C291.042 137.198 291.169 132.554 290.87 127.928" stroke="#535461" stroke-width="2" stroke-miterlimit="10"/>
<path opacity="0.5" d="M300.981 117.275C299.877 120.599 290.641 128.235 290.641 128.235C290.641 128.235 287.812 116.602 288.917 113.28C289.18 112.49 289.596 111.759 290.142 111.13C290.688 110.5 291.353 109.983 292.098 109.61C292.844 109.236 293.657 109.013 294.489 108.953C295.322 108.893 296.158 108.997 296.95 109.259C297.742 109.521 298.475 109.936 299.106 110.48C299.737 111.025 300.255 111.688 300.629 112.432C301.004 113.176 301.227 113.987 301.288 114.817C301.348 115.647 301.244 116.482 300.981 117.272V117.275Z" fill="#7303C0"/>
<path opacity="0.5" d="M304.83 138.982C302.083 141.174 290.18 142.581 290.18 142.581C290.18 142.581 294.148 131.283 296.894 129.094C297.541 128.533 298.294 128.108 299.108 127.845C299.923 127.581 300.783 127.485 301.636 127.562C302.489 127.638 303.318 127.886 304.072 128.29C304.827 128.694 305.492 129.247 306.027 129.914C306.562 130.581 306.957 131.349 307.187 132.172C307.417 132.995 307.478 133.856 307.366 134.703C307.254 135.55 306.972 136.365 306.536 137.101C306.1 137.836 305.52 138.476 304.83 138.982Z" fill="#7303C0"/>
<path opacity="0.5" d="M293.941 170.292C290.467 170.804 279.471 166.03 279.471 166.03C279.471 166.03 288.609 158.272 292.082 157.761C292.908 157.639 293.749 157.681 294.559 157.883C295.368 158.086 296.13 158.446 296.8 158.942C297.47 159.439 298.035 160.062 298.464 160.776C298.893 161.49 299.176 162.282 299.298 163.105C299.42 163.929 299.379 164.769 299.175 165.576C298.972 166.384 298.611 167.143 298.114 167.812C297.616 168.48 296.992 169.044 296.276 169.472C295.56 169.9 294.766 170.183 293.941 170.304V170.292Z" fill="#7303C0"/>
<path opacity="0.5" d="M280.35 192.134C277.014 193.223 265.365 190.362 265.365 190.362C265.365 190.362 273.059 181.176 276.395 180.086C277.996 179.561 279.741 179.693 281.245 180.451C282.75 181.21 283.89 182.533 284.417 184.131C284.943 185.729 284.811 187.469 284.051 188.97C283.29 190.471 281.964 191.609 280.362 192.134H280.35Z" fill="#7303C0"/>
<path opacity="0.5" d="M277.298 139.034C278.919 142.139 289.265 148.219 289.265 148.219C289.265 148.219 290.205 136.288 288.584 133.179C288.199 132.441 287.672 131.785 287.033 131.25C286.393 130.715 285.655 130.311 284.859 130.06C284.063 129.81 283.226 129.718 282.395 129.79C281.563 129.863 280.754 130.098 280.014 130.482C279.274 130.866 278.617 131.392 278.08 132.03C277.544 132.667 277.138 133.404 276.887 134.198C276.636 134.992 276.544 135.827 276.617 136.656C276.689 137.486 276.925 138.293 277.31 139.031L277.298 139.034Z" fill="#7303C0"/>
<path opacity="0.5" d="M261.73 164.775C264.208 167.257 275.891 169.972 275.891 169.972C275.891 169.972 273.209 158.306 270.734 155.825C269.544 154.634 267.929 153.963 266.244 153.96C264.558 153.956 262.941 154.621 261.747 155.808C260.553 156.994 259.881 158.605 259.877 160.287C259.874 161.968 260.541 163.581 261.73 164.772V164.775Z" fill="#7303C0"/>
<path opacity="0.5" d="M250.041 191.869C252.062 194.73 263.119 199.379 263.119 199.379C263.119 199.379 262.454 187.43 260.43 184.565C259.962 183.855 259.355 183.245 258.646 182.774C257.938 182.302 257.141 181.978 256.304 181.819C255.466 181.661 254.606 181.672 253.773 181.853C252.94 182.033 252.153 182.379 251.456 182.869C250.76 183.359 250.17 183.984 249.721 184.706C249.272 185.429 248.973 186.234 248.842 187.074C248.711 187.913 248.751 188.771 248.959 189.595C249.167 190.42 249.539 191.194 250.053 191.872L250.041 191.869Z" fill="#7303C0"/>
<path opacity="0.5" d="M264.486 201.785C264.486 201.785 255.33 188.498 256.936 175.998C257.643 170.759 256.628 165.432 254.042 160.818C252.797 158.637 251.355 156.574 249.733 154.655" stroke="#535461" stroke-width="2" stroke-miterlimit="10"/>
<path opacity="0.5" d="M250.7 146.77C251.289 148.572 249.733 154.862 249.733 154.862C249.733 154.862 244.749 150.704 244.16 148.904C243.876 148.039 243.949 147.097 244.362 146.286C244.775 145.474 245.494 144.859 246.362 144.577C247.229 144.294 248.173 144.367 248.987 144.779C249.801 145.19 250.417 145.908 250.7 146.773V146.77Z" fill="#7303C0"/>
<path opacity="0.5" d="M259.377 154.987C258.892 156.814 254.155 161.256 254.155 161.256C254.155 161.256 252.238 155.063 252.724 153.231C252.957 152.351 253.532 151.599 254.321 151.141C255.11 150.684 256.049 150.558 256.931 150.79C257.813 151.023 258.567 151.596 259.025 152.384C259.484 153.171 259.611 154.107 259.377 154.987Z" fill="#7303C0"/>
<path opacity="0.5" d="M264.73 172.116C263.384 173.452 257.051 174.898 257.051 174.898C257.051 174.898 258.528 168.587 259.877 167.251C260.198 166.933 260.578 166.681 260.996 166.51C261.415 166.339 261.862 166.251 262.314 166.253C262.766 166.254 263.214 166.344 263.631 166.518C264.048 166.692 264.427 166.946 264.745 167.266C265.064 167.586 265.316 167.965 265.488 168.382C265.66 168.799 265.747 169.246 265.746 169.697C265.744 170.148 265.654 170.594 265.48 171.01C265.305 171.426 265.051 171.804 264.73 172.122V172.116Z" fill="#7303C0"/>
<path opacity="0.5" d="M265.856 185.99C264.754 187.533 258.745 190.021 258.745 190.021C258.745 190.021 259.133 183.551 260.234 182.007C260.496 181.64 260.828 181.328 261.211 181.088C261.593 180.848 262.02 180.686 262.465 180.611C262.911 180.536 263.367 180.549 263.807 180.65C264.248 180.75 264.664 180.936 265.032 181.198C265.4 181.459 265.714 181.79 265.954 182.171C266.194 182.553 266.356 182.978 266.432 183.423C266.507 183.867 266.494 184.322 266.393 184.761C266.292 185.201 266.106 185.616 265.844 185.984L265.856 185.99Z" fill="#7303C0"/>
<path opacity="0.5" d="M247.404 163.838C249.11 164.672 255.571 164.002 255.571 164.002C255.571 164.002 252.132 158.504 250.425 157.673C249.606 157.273 248.661 157.214 247.798 157.51C246.935 157.805 246.225 158.431 245.825 159.248C245.424 160.066 245.365 161.009 245.661 161.869C245.958 162.73 246.584 163.438 247.404 163.838Z" fill="#7303C0"/>
<path opacity="0.5" d="M248.927 180.05C250.807 180.336 256.771 177.769 256.771 177.769C256.771 177.769 251.839 173.55 249.962 173.276C249.06 173.139 248.14 173.365 247.405 173.905C246.67 174.444 246.18 175.253 246.043 176.153C245.906 177.053 246.133 177.97 246.673 178.703C247.214 179.436 248.025 179.925 248.927 180.062V180.05Z" fill="#7303C0"/>
<path opacity="0.5" d="M252.571 195.598C254.375 196.207 260.689 194.685 260.689 194.685C260.689 194.685 256.545 189.695 254.741 189.095C253.875 188.808 252.93 188.876 252.114 189.284C251.298 189.692 250.678 190.406 250.39 191.27C250.103 192.134 250.171 193.077 250.58 193.891C250.989 194.705 251.705 195.323 252.571 195.61V195.598Z" fill="#7303C0"/>
<path opacity="0.5" d="M250.7 146.77C251.289 148.572 249.733 154.862 249.733 154.862C249.733 154.862 244.749 150.704 244.16 148.904C243.876 148.039 243.949 147.097 244.362 146.286C244.775 145.474 245.494 144.859 246.362 144.577C247.229 144.294 248.173 144.367 248.987 144.779C249.801 145.19 250.417 145.908 250.7 146.773V146.77Z" fill="white"/>
<path opacity="0.5" d="M259.377 154.987C258.892 156.814 254.155 161.256 254.155 161.256C254.155 161.256 252.238 155.063 252.724 153.231C252.957 152.351 253.532 151.599 254.321 151.141C255.11 150.684 256.049 150.558 256.931 150.79C257.813 151.023 258.567 151.596 259.025 152.384C259.484 153.171 259.611 154.107 259.377 154.987Z" fill="white"/>
<path opacity="0.5" d="M264.73 172.116C263.384 173.452 257.051 174.898 257.051 174.898C257.051 174.898 258.528 168.587 259.877 167.251C260.198 166.933 260.578 166.681 260.996 166.51C261.415 166.339 261.862 166.251 262.314 166.253C262.766 166.254 263.214 166.344 263.631 166.518C264.048 166.692 264.427 166.946 264.745 167.266C265.064 167.586 265.316 167.965 265.488 168.382C265.66 168.799 265.747 169.246 265.746 169.697C265.744 170.148 265.654 170.594 265.48 171.01C265.305 171.426 265.051 171.804 264.73 172.122V172.116Z" fill="white"/>
<path opacity="0.5" d="M265.856 185.99C264.754 187.533 258.745 190.021 258.745 190.021C258.745 190.021 259.133 183.551 260.234 182.007C260.496 181.64 260.828 181.328 261.211 181.088C261.593 180.848 262.02 180.686 262.465 180.611C262.911 180.536 263.367 180.549 263.807 180.65C264.248 180.75 264.664 180.936 265.032 181.198C265.4 181.459 265.714 181.79 265.954 182.171C266.194 182.553 266.356 182.978 266.432 183.423C266.507 183.867 266.494 184.322 266.393 184.761C266.292 185.201 266.106 185.616 265.844 185.984L265.856 185.99Z" fill="white"/>
<path opacity="0.5" d="M247.404 163.838C249.11 164.672 255.571 164.002 255.571 164.002C255.571 164.002 252.132 158.504 250.425 157.673C249.606 157.273 248.661 157.214 247.798 157.51C246.935 157.805 246.225 158.431 245.825 159.248C245.424 160.066 245.365 161.009 245.661 161.869C245.958 162.73 246.584 163.438 247.404 163.838Z" fill="white"/>
<path opacity="0.5" d="M248.927 180.05C250.807 180.336 256.771 177.769 256.771 177.769C256.771 177.769 251.839 173.55 249.962 173.276C249.06 173.139 248.14 173.365 247.405 173.905C246.67 174.444 246.18 175.253 246.043 176.153C245.906 177.053 246.133 177.97 246.673 178.703C247.214 179.436 248.025 179.925 248.927 180.062V180.05Z" fill="white"/>
<path opacity="0.5" d="M252.571 195.598C254.375 196.207 260.689 194.685 260.689 194.685C260.689 194.685 256.545 189.695 254.741 189.095C253.875 188.808 252.93 188.876 252.114 189.284C251.298 189.692 250.678 190.406 250.39 191.27C250.103 192.134 250.171 193.077 250.58 193.891C250.989 194.705 251.705 195.323 252.571 195.61V195.598Z" fill="white"/>
<path opacity="0.5" d="M247.544 237.81H273.587L280.1 198.192H241.035L247.544 237.81Z" fill="#474059"/>
<path opacity="0.1" d="M246.019 198.192L252.101 235.213H274.014L273.587 237.81H247.544L241.035 198.192H246.019Z" fill="black"/>
</g>
<path d="M252.482 11.9619H61.4297V241.914H252.482V11.9619Z" fill="url(#paint0_linear)"/>
<path d="M250.041 14.9029H63.8716V238.979H250.041V14.9029Z" fill="white"/>
<path d="M211.281 40.1724H136.203V43.8258H211.281V40.1724Z" fill="#C0BCCF"/>
<path d="M211.281 51.7416H136.203V55.395H211.281V51.7416Z" fill="#C0BCCF"/>
<path d="M193.275 63.3108H154.209V66.9642H193.275V63.3108Z" fill="#7303C0"/>
<path opacity="0.5" d="M211.281 113.545H136.203V117.199H211.281V113.545Z" fill="#C0BCCF"/>
<path opacity="0.5" d="M211.281 125.115H136.203V128.768H211.281V125.115Z" fill="#C0BCCF"/>
<path opacity="0.5" d="M193.275 136.684H154.209V140.337H193.275V136.684Z" fill="#7303C0"/>
<path opacity="0.5" d="M211.281 186.918H136.203V190.572H211.281V186.918Z" fill="#C0BCCF"/>
<path opacity="0.5" d="M211.281 198.487H136.203V202.141H211.281V198.487Z" fill="#C0BCCF"/>
<path opacity="0.5" d="M193.275 210.057H154.209V213.71H193.275V210.057Z" fill="#7303C0"/>
<g opacity="0.5">
<path opacity="0.5" d="M109.77 133.922L108.195 133.216C108.219 132.977 108.229 132.737 108.225 132.497C108.236 132.295 108.236 132.091 108.225 131.889C108.07 130.287 107.047 128.893 106.324 127.428C105.662 126.092 105.241 124.649 105.082 123.166C104.89 121.339 105.082 119.446 104.411 117.728C103.864 116.343 102.784 115.186 101.627 114.163C100.329 112.948 98.8118 111.988 97.156 111.335C95.4653 110.726 93.5211 110.571 91.8304 111.192C90.3044 111.752 89.1294 112.869 87.994 113.956C87.1696 114.681 86.4414 115.508 85.8272 116.416C85.1344 117.549 84.8383 118.852 84.6064 120.137C84.2419 122.194 83.9913 124.269 83.8556 126.354C83.7366 128.092 83.5504 130.065 82.061 131.13C81.3347 131.651 80.3123 131.943 79.9796 132.732C79.8853 132.969 79.8477 133.224 79.8697 133.478C79.8606 133.689 79.8759 133.9 79.9155 134.108C79.9369 134.23 79.9613 134.348 79.9918 134.47C79.5644 135.53 79.2055 136.616 78.9175 137.722C78.6947 138.544 78.4902 139.351 78.3071 140.133H78.8015H79.064L81.9084 140.2H81.9481L85.0001 140.27H85.0153L87.8598 140.337H87.93L88.7509 140.395H89.0195L100.394 140.657H100.455L101.212 140.675H101.478L103.754 140.727L107.112 140.803H107.136L109.663 140.864H109.932H110.45L110.316 138.221C110.872 134.175 109.77 133.922 109.77 133.922ZM96.9912 133.6C96.9912 135.84 94.5863 138.583 94.5863 138.583L92.1661 135.295L92.2546 135.167L94.5863 138.334C94.5863 138.334 96.9912 135.594 96.9912 133.35C97.0473 133.236 97.1115 133.126 97.1835 133.021L97.2384 133.192C97.1461 133.321 97.0634 133.458 96.9912 133.6ZM100.69 142.392C100.69 142.279 100.69 142.164 100.669 142.051C100.647 141.938 100.651 141.838 100.635 141.728C100.62 141.619 100.608 141.512 100.593 141.403C100.577 141.293 100.556 141.186 100.535 141.077C100.513 140.967 100.492 140.861 100.467 140.751C100.467 140.715 100.452 140.681 100.443 140.641C100.409 140.498 100.373 140.355 100.333 140.212C100.293 140.069 100.269 139.981 100.232 139.868C100.232 139.816 100.202 139.765 100.184 139.716C100.165 139.667 100.132 139.552 100.104 139.469L100.049 139.311C100.025 139.241 100 139.168 99.973 139.098C99.9272 138.97 99.8784 138.845 99.8295 138.717C99.7807 138.589 99.7288 138.465 99.6769 138.34C99.5732 138.084 99.4603 137.831 99.3473 137.576C98.9048 136.589 98.4073 135.618 97.9495 134.656C97.7041 134.153 97.486 133.636 97.2964 133.109L97.2384 133.185C97.1459 133.316 97.0633 133.454 96.9912 133.596C96.9912 135.837 94.5863 138.58 94.5863 138.58L92.1661 135.292L90.048 138.337C89.7428 138.489 89.4376 139.007 89.1996 139.743C89.1324 139.941 89.0683 140.16 89.0073 140.389C88.9646 140.544 88.9249 140.693 88.8883 140.867C88.8669 140.949 88.8486 141.031 88.8303 141.116L88.7753 141.375V141.415C88.7387 141.591 88.7021 141.774 88.6685 141.96C88.635 142.145 88.5953 142.359 88.5617 142.569C88.5373 142.701 88.5159 142.832 88.4976 142.961C88.4549 143.214 88.4183 143.47 88.3817 143.726C88.3603 143.875 88.3389 144.03 88.3206 144.167L88.2474 144.733C88.403 145.199 88.577 145.647 88.757 146.116C88.8715 146.362 88.9388 146.627 88.9554 146.898C92.7099 147.897 96.6611 147.897 100.416 146.898C100.414 146.889 100.414 146.88 100.416 146.871C100.359 146.616 100.335 146.355 100.342 146.094C100.404 145.363 100.506 144.635 100.647 143.914C100.693 143.559 100.712 143.201 100.705 142.843V142.715C100.696 142.599 100.693 142.496 100.69 142.395V142.392ZM100.69 142.392C100.69 142.279 100.69 142.164 100.669 142.051C100.647 141.938 100.651 141.838 100.635 141.728C100.62 141.619 100.608 141.512 100.593 141.403C100.577 141.293 100.556 141.186 100.535 141.077C100.513 140.967 100.492 140.861 100.467 140.751C100.467 140.715 100.452 140.681 100.443 140.641C100.409 140.498 100.373 140.355 100.333 140.212C100.293 140.069 100.269 139.981 100.232 139.868C100.232 139.816 100.202 139.765 100.184 139.716C100.165 139.667 100.132 139.552 100.104 139.469L100.049 139.311C100.025 139.241 100 139.168 99.973 139.098C99.9272 138.97 99.8784 138.845 99.8295 138.717C99.7807 138.589 99.7288 138.465 99.6769 138.34C99.5732 138.084 99.4603 137.831 99.3473 137.576C98.9048 136.589 98.4073 135.618 97.9495 134.656C97.7041 134.153 97.486 133.636 97.2964 133.109L97.2384 133.185C97.1459 133.316 97.0633 133.454 96.9912 133.596C96.9912 135.837 94.5863 138.58 94.5863 138.58L92.1661 135.292L90.048 138.337C89.7428 138.489 89.4376 139.007 89.1996 139.743C89.1324 139.941 89.0683 140.16 89.0073 140.389C88.9646 140.544 88.9249 140.693 88.8883 140.867C88.8669 140.949 88.8486 141.031 88.8303 141.116L88.7753 141.375V141.415C88.7387 141.591 88.7021 141.774 88.6685 141.96C88.635 142.145 88.5953 142.359 88.5617 142.569C88.5373 142.701 88.5159 142.832 88.4976 142.961C88.4549 143.214 88.4183 143.47 88.3817 143.726C88.3603 143.875 88.3389 144.03 88.3206 144.167L88.2474 144.733C88.403 145.199 88.577 145.647 88.757 146.116C88.8715 146.362 88.9388 146.627 88.9554 146.898C92.7099 147.897 96.6611 147.897 100.416 146.898C100.414 146.889 100.414 146.88 100.416 146.871C100.359 146.616 100.335 146.355 100.342 146.094C100.404 145.363 100.506 144.635 100.647 143.914C100.693 143.559 100.712 143.201 100.705 142.843V142.715C100.696 142.599 100.693 142.496 100.69 142.395V142.392ZM100.69 142.392C100.69 142.279 100.69 142.164 100.669 142.051C100.647 141.938 100.651 141.838 100.635 141.728C100.62 141.619 100.608 141.512 100.593 141.403C100.577 141.293 100.556 141.186 100.535 141.077C100.513 140.967 100.492 140.861 100.467 140.751C100.467 140.715 100.452 140.681 100.443 140.641C100.409 140.498 100.373 140.355 100.333 140.212C100.293 140.069 100.269 139.981 100.232 139.868C100.232 139.816 100.202 139.765 100.184 139.716C100.165 139.667 100.132 139.552 100.104 139.469L100.049 139.311C100.025 139.241 100 139.168 99.973 139.098C99.9272 138.97 99.8784 138.845 99.8295 138.717C99.7807 138.589 99.7288 138.465 99.6769 138.34C99.5732 138.084 99.4603 137.831 99.3473 137.576C98.9048 136.589 98.4073 135.618 97.9495 134.656C97.7041 134.153 97.486 133.636 97.2964 133.109L97.2384 133.185C97.1459 133.316 97.0633 133.454 96.9912 133.596C96.9912 135.837 94.5863 138.58 94.5863 138.58L92.1661 135.292L90.048 138.337C89.7428 138.489 89.4376 139.007 89.1996 139.743C89.1324 139.941 89.0683 140.16 89.0073 140.389C88.9646 140.544 88.9249 140.693 88.8883 140.867C88.8669 140.949 88.8486 141.031 88.8303 141.116L88.7753 141.375V141.415C88.7387 141.591 88.7021 141.774 88.6685 141.96C88.635 142.145 88.5953 142.359 88.5617 142.569C88.5373 142.701 88.5159 142.832 88.4976 142.961C88.4549 143.214 88.4183 143.47 88.3817 143.726C88.3603 143.875 88.3389 144.03 88.3206 144.167L88.2474 144.733C88.403 145.199 88.577 145.647 88.757 146.116C88.8715 146.362 88.9388 146.627 88.9554 146.898C92.7099 147.897 96.6611 147.897 100.416 146.898C100.414 146.889 100.414 146.88 100.416 146.871C100.359 146.616 100.335 146.355 100.342 146.094C100.404 145.363 100.506 144.635 100.647 143.914C100.693 143.559 100.712 143.201 100.705 142.843V142.715C100.696 142.599 100.693 142.496 100.69 142.395V142.392ZM100.69 142.392C100.69 142.279 100.69 142.164 100.669 142.051C100.647 141.938 100.651 141.838 100.635 141.728C100.62 141.619 100.608 141.512 100.593 141.403C100.577 141.293 100.556 141.186 100.535 141.077C100.513 140.967 100.492 140.861 100.467 140.751C100.467 140.715 100.452 140.681 100.443 140.641C100.409 140.498 100.373 140.355 100.333 140.212C100.293 140.069 100.269 139.981 100.232 139.868C100.232 139.816 100.202 139.765 100.184 139.716C100.165 139.667 100.132 139.552 100.104 139.469L100.049 139.311C100.025 139.241 100 139.168 99.973 139.098C99.9272 138.97 99.8784 138.845 99.8295 138.717C99.7807 138.589 99.7288 138.465 99.6769 138.34C99.5732 138.084 99.4603 137.831 99.3473 137.576C98.9048 136.589 98.4073 135.618 97.9495 134.656C97.7041 134.153 97.486 133.636 97.2964 133.109L97.2384 133.185C97.1459 133.316 97.0633 133.454 96.9912 133.596C96.9912 135.837 94.5863 138.58 94.5863 138.58L92.1661 135.292L90.048 138.337C89.7428 138.489 89.4376 139.007 89.1996 139.743C89.1324 139.941 89.0683 140.16 89.0073 140.389C88.9646 140.544 88.9249 140.693 88.8883 140.867C88.8669 140.949 88.8486 141.031 88.8303 141.116L88.7753 141.375V141.415C88.7387 141.591 88.7021 141.774 88.6685 141.96C88.635 142.145 88.5953 142.359 88.5617 142.569C88.5373 142.701 88.5159 142.832 88.4976 142.961C88.4549 143.214 88.4183 143.47 88.3817 143.726C88.3603 143.875 88.3389 144.03 88.3206 144.167L88.2474 144.733C88.403 145.199 88.577 145.647 88.757 146.116C88.8715 146.362 88.9388 146.627 88.9554 146.898C92.7099 147.897 96.6611 147.897 100.416 146.898C100.414 146.889 100.414 146.88 100.416 146.871C100.359 146.616 100.335 146.355 100.342 146.094C100.404 145.363 100.506 144.635 100.647 143.914C100.693 143.559 100.712 143.201 100.705 142.843V142.715C100.696 142.599 100.693 142.496 100.69 142.395V142.392Z" fill="url(#paint1_linear)"/>
<path opacity="0.5" d="M100.8 121.157H86.7612V130.595H100.8V121.157Z" fill="#493545"/>
<path opacity="0.5" d="M103.132 131.566L97.2568 139.823L91.1163 139.29C91.1163 139.29 83.1049 139.82 88.4458 133.697C91.0125 130.753 91.8518 128.299 92.0319 126.548C92.2272 124.655 91.6504 123.577 91.6504 123.577L98.325 122.779C98.0238 123.677 97.9857 124.641 98.2151 125.559C99.0514 129.018 103.132 131.566 103.132 131.566Z" fill="#C77485"/>
<path opacity="0.1" d="M98.2122 125.55C97.3417 126.207 96.3227 126.642 95.2446 126.815C94.1665 126.988 93.0623 126.894 92.029 126.542C92.2243 124.649 91.6475 123.571 91.6475 123.571L98.3221 122.773C98.0215 123.67 97.9834 124.633 98.2122 125.55Z" fill="black"/>
<path opacity="0.5" d="M94.1864 126.634C97.8727 126.634 100.861 123.653 100.861 119.975C100.861 116.298 97.8727 113.317 94.1864 113.317C90.5001 113.317 87.5117 116.298 87.5117 119.975C87.5117 123.653 90.5001 126.634 94.1864 126.634Z" fill="#C77485"/>
<path opacity="0.1" d="M102.888 131.907L102.732 131.298L102.598 130.762L102.399 129.97L102.363 129.824L102.332 129.703C102.332 129.703 102.491 129.225 101.444 129.38L101.249 129.413C101.084 129.447 100.892 129.492 100.672 129.553L100.474 129.614L100.211 129.696C99.3802 129.966 98.6222 130.423 97.9954 131.03C97.714 131.298 97.4651 131.599 97.2538 131.925C97.2324 131.956 97.2171 131.983 97.1988 132.007C97.1265 132.12 97.0623 132.238 97.0065 132.36C97.0065 134.76 94.6016 137.688 94.6016 137.688L92.2546 134.306L92.2089 134.239L91.6504 133.429L91.452 133.167L91.3848 133.076L90.1641 131.441L89.8589 131.033L89.7581 130.896L89.6086 130.698L89.2576 130.232L87.8842 131.033L86.0531 132.099L84.9849 139.025V139.217L85.0184 139.789L85.2412 143.552V143.604L84.8506 145.163L84.9086 145.193C85.8304 145.689 86.7896 146.113 87.7774 146.46L88.0368 146.551C88.342 146.651 88.6289 146.743 88.928 146.831C88.9391 146.876 88.9473 146.922 88.9524 146.968C88.9524 146.925 88.9524 146.88 88.9524 146.837C92.6975 147.905 96.6675 147.905 100.413 146.837L100.483 146.816C100.657 146.767 100.834 146.715 101.005 146.657L101.282 146.569C102.035 146.318 102.773 146.023 103.492 145.686L103.748 140.237L103.931 136.306V136.081L102.888 131.907Z" fill="black"/>
<path opacity="0.5" d="M100.69 142.03C100.69 141.908 100.69 141.786 100.669 141.664C100.647 141.543 100.65 141.436 100.635 141.32C100.62 141.205 100.608 141.089 100.592 140.973C100.577 140.858 100.556 140.742 100.534 140.626C100.513 140.511 100.492 140.395 100.467 140.279C100.467 140.24 100.452 140.203 100.443 140.164C100.409 140.011 100.373 139.859 100.333 139.704C100.293 139.549 100.269 139.457 100.232 139.335C100.232 139.281 100.202 139.226 100.183 139.174C100.165 139.122 100.132 138.997 100.104 138.909L100.049 138.739C100.025 138.663 100 138.586 99.9728 138.51C99.927 138.373 99.8782 138.239 99.8294 138.102C99.7805 137.965 99.7286 137.831 99.6768 137.697C99.573 137.423 99.4601 137.152 99.3471 136.882C98.9046 135.828 98.4071 134.79 97.9494 133.761C97.7033 133.221 97.4853 132.67 97.2962 132.108L97.2382 132.19C97.1455 132.33 97.0628 132.476 96.991 132.628C96.991 135.024 94.5861 137.956 94.5861 137.956L92.1659 134.44L90.0478 137.688C89.7426 137.85 89.4374 138.404 89.1994 139.192C89.1322 139.405 89.0681 139.637 89.0071 139.883C88.9644 140.048 88.9247 140.221 88.8881 140.395C88.8667 140.483 88.8484 140.571 88.8301 140.663L88.7752 140.94V140.982C88.7385 141.171 88.7019 141.366 88.6683 141.564C88.6348 141.762 88.5951 141.99 88.5615 142.206C88.5371 142.346 88.5157 142.486 88.4974 142.627C88.4547 142.897 88.4181 143.172 88.3815 143.442C88.3601 143.601 88.3387 143.747 88.3204 143.914L88.2472 144.523C88.4028 145.023 88.5768 145.516 88.7568 146C88.8719 146.265 88.939 146.549 88.9552 146.837C92.7003 147.905 96.6703 147.905 100.415 146.837C100.414 146.827 100.414 146.817 100.415 146.807C100.359 146.533 100.334 146.254 100.342 145.976C100.404 145.194 100.506 144.417 100.647 143.646C100.692 143.267 100.712 142.884 100.705 142.502V142.365C100.696 142.249 100.693 142.139 100.69 142.03ZM100.69 142.03C100.69 141.908 100.69 141.786 100.669 141.664C100.647 141.543 100.65 141.436 100.635 141.32C100.62 141.205 100.608 141.089 100.592 140.973C100.577 140.858 100.556 140.742 100.534 140.626C100.513 140.511 100.492 140.395 100.467 140.279C100.467 140.24 100.452 140.203 100.443 140.164C100.409 140.011 100.373 139.859 100.333 139.704C100.293 139.549 100.269 139.457 100.232 139.335C100.232 139.281 100.202 139.226 100.183 139.174C100.165 139.122 100.132 138.997 100.104 138.909L100.049 138.739C100.025 138.663 100 138.586 99.9728 138.51C99.927 138.373 99.8782 138.239 99.8294 138.102C99.7805 137.965 99.7286 137.831 99.6768 137.697C99.573 137.423 99.4601 137.152 99.3471 136.882C98.9046 135.828 98.4071 134.79 97.9494 133.761C97.7033 133.221 97.4853 132.67 97.2962 132.108L97.2382 132.19C97.1455 132.33 97.0628 132.476 96.991 132.628C96.991 135.024 94.5861 137.956 94.5861 137.956L92.1659 134.44L90.0478 137.688C89.7426 137.85 89.4374 138.404 89.1994 139.192C89.1322 139.405 89.0681 139.637 89.0071 139.883C88.9644 140.048 88.9247 140.221 88.8881 140.395C88.8667 140.483 88.8484 140.571 88.8301 140.663L88.7752 140.94V140.982C88.7385 141.171 88.7019 141.366 88.6683 141.564C88.6348 141.762 88.5951 141.99 88.5615 142.206C88.5371 142.346 88.5157 142.486 88.4974 142.627C88.4547 142.897 88.4181 143.172 88.3815 143.442C88.3601 143.601 88.3387 143.747 88.3204 143.914L88.2472 144.523C88.4028 145.023 88.5768 145.516 88.7568 146C88.8719 146.265 88.939 146.549 88.9552 146.837C92.7003 147.905 96.6703 147.905 100.415 146.837C100.414 146.827 100.414 146.817 100.415 146.807C100.359 146.533 100.334 146.254 100.342 145.976C100.404 145.194 100.506 144.417 100.647 143.646C100.692 143.267 100.712 142.884 100.705 142.502V142.365C100.696 142.249 100.693 142.139 100.69 142.03ZM100.69 142.03C100.69 141.908 100.69 141.786 100.669 141.664C100.647 141.543 100.65 141.436 100.635 141.32C100.62 141.205 100.608 141.089 100.592 140.973C100.577 140.858 100.556 140.742 100.534 140.626C100.513 140.511 100.492 140.395 100.467 140.279C100.467 140.24 100.452 140.203 100.443 140.164C100.409 140.011 100.373 139.859 100.333 139.704C100.293 139.549 100.269 139.457 100.232 139.335C100.232 139.281 100.202 139.226 100.183 139.174C100.165 139.122 100.132 138.997 100.104 138.909L100.049 138.739C100.025 138.663 100 138.586 99.9728 138.51C99.927 138.373 99.8782 138.239 99.8294 138.102C99.7805 137.965 99.7286 137.831 99.6768 137.697C99.573 137.423 99.4601 137.152 99.3471 136.882C98.9046 135.828 98.4071 134.79 97.9494 133.761C97.7033 133.221 97.4853 132.67 97.2962 132.108L97.2382 132.19C97.1455 132.33 97.0628 132.476 96.991 132.628C96.991 135.024 94.5861 137.956 94.5861 137.956L92.1659 134.44L90.0478 137.688C89.7426 137.85 89.4374 138.404 89.1994 139.192C89.1322 139.405 89.0681 139.637 89.0071 139.883C88.9644 140.048 88.9247 140.221 88.8881 140.395C88.8667 140.483 88.8484 140.571 88.8301 140.663L88.7752 140.94V140.982C88.7385 141.171 88.7019 141.366 88.6683 141.564C88.6348 141.762 88.5951 141.99 88.5615 142.206C88.5371 142.346 88.5157 142.486 88.4974 142.627C88.4547 142.897 88.4181 143.172 88.3815 143.442C88.3601 143.601 88.3387 143.747 88.3204 143.914L88.2472 144.523C88.4028 145.023 88.5768 145.516 88.7568 146C88.8719 146.265 88.939 146.549 88.9552 146.837C92.7003 147.905 96.6703 147.905 100.415 146.837C100.414 146.827 100.414 146.817 100.415 146.807C100.359 146.533 100.334 146.254 100.342 145.976C100.404 145.194 100.506 144.417 100.647 143.646C100.692 143.267 100.712 142.884 100.705 142.502V142.365C100.696 142.249 100.693 142.139 100.69 142.03ZM103.925 136.315L102.836 131.977L102.649 131.234L102.597 131.03L102.332 129.97C102.333 129.961 102.333 129.952 102.332 129.943C102.338 129.896 102.331 129.849 102.311 129.806C102.271 129.727 102.17 129.645 101.935 129.623C101.846 129.617 101.756 129.617 101.667 129.623C101.401 129.65 101.139 129.698 100.882 129.77C100.757 129.803 100.623 129.84 100.479 129.885L100.217 129.967H100.193C99.4896 130.198 98.837 130.559 98.2698 131.033C97.8951 131.345 97.5663 131.707 97.2932 132.111L97.2352 132.193C97.1424 132.333 97.0598 132.48 96.988 132.631C96.988 135.027 94.583 137.959 94.583 137.959L92.1628 134.443L92.0255 134.245L92.0011 134.211L91.6501 133.697L91.3846 133.344L91.3144 133.252L90.0631 131.587L89.6663 131.048V131.03L89.529 130.844L89.2665 130.497L88.3509 131.03L86.062 132.36L85.006 139.214V139.287L85.0365 139.786L85.2624 143.601V143.817L84.9175 145.19C85.8393 145.686 86.7985 146.109 87.7863 146.457L88.0457 146.548C88.3509 146.648 88.6378 146.74 88.9369 146.828C88.948 146.873 88.9562 146.919 88.9613 146.965C88.9613 146.922 88.9613 146.877 88.9613 146.834C92.7064 147.902 96.6764 147.902 100.421 146.834L100.492 146.813C100.666 146.764 100.843 146.712 101.014 146.654L101.291 146.566C102.044 146.315 102.782 146.02 103.501 145.683L103.754 140.24L103.937 136.352L103.925 136.315ZM88.9155 146.828C88.9266 146.873 88.9348 146.919 88.94 146.965C88.94 146.922 88.94 146.877 88.94 146.834L88.9155 146.828ZM100.69 142.03C100.69 141.908 100.69 141.786 100.669 141.664C100.647 141.543 100.65 141.436 100.635 141.32C100.62 141.205 100.608 141.089 100.592 140.973C100.577 140.858 100.556 140.742 100.534 140.626C100.513 140.511 100.492 140.395 100.467 140.279C100.467 140.24 100.452 140.203 100.443 140.164C100.409 140.011 100.373 139.859 100.333 139.704C100.293 139.549 100.269 139.457 100.232 139.335C100.232 139.281 100.202 139.226 100.183 139.174C100.165 139.122 100.132 138.997 100.104 138.909L100.049 138.739C100.025 138.663 100 138.586 99.9728 138.51C99.927 138.373 99.8782 138.239 99.8294 138.102C99.7805 137.965 99.7286 137.831 99.6768 137.697C99.573 137.423 99.4601 137.152 99.3471 136.882C98.9046 135.828 98.4071 134.79 97.9494 133.761C97.7033 133.221 97.4853 132.67 97.2962 132.108L97.2382 132.19C97.1455 132.33 97.0628 132.476 96.991 132.628C96.991 135.024 94.5861 137.956 94.5861 137.956L92.1659 134.44L90.0478 137.688C89.7426 137.85 89.4374 138.404 89.1994 139.192C89.1322 139.405 89.0681 139.637 89.0071 139.883C88.9644 140.048 88.9247 140.221 88.8881 140.395C88.8667 140.483 88.8484 140.571 88.8301 140.663L88.7752 140.94V140.982C88.7385 141.171 88.7019 141.366 88.6683 141.564C88.6348 141.762 88.5951 141.99 88.5615 142.206C88.5371 142.346 88.5157 142.486 88.4974 142.627C88.4547 142.897 88.4181 143.172 88.3815 143.442C88.3601 143.601 88.3387 143.747 88.3204 143.914L88.2472 144.523C88.4028 145.023 88.5768 145.516 88.7568 146C88.8719 146.265 88.939 146.549 88.9552 146.837C92.7003 147.905 96.6703 147.905 100.415 146.837C100.414 146.827 100.414 146.817 100.415 146.807C100.359 146.533 100.334 146.254 100.342 145.976C100.404 145.194 100.506 144.417 100.647 143.646C100.692 143.267 100.712 142.884 100.705 142.502V142.365C100.696 142.249 100.693 142.139 100.69 142.03ZM100.69 142.03C100.69 141.908 100.69 141.786 100.669 141.664C100.647 141.543 100.65 141.436 100.635 141.32C100.62 141.205 100.608 141.089 100.592 140.973C100.577 140.858 100.556 140.742 100.534 140.626C100.513 140.511 100.492 140.395 100.467 140.279C100.467 140.24 100.452 140.203 100.443 140.164C100.409 140.011 100.373 139.859 100.333 139.704C100.293 139.549 100.269 139.457 100.232 139.335C100.232 139.281 100.202 139.226 100.183 139.174C100.165 139.122 100.132 138.997 100.104 138.909L100.049 138.739C100.025 138.663 100 138.586 99.9728 138.51C99.927 138.373 99.8782 138.239 99.8294 138.102C99.7805 137.965 99.7286 137.831 99.6768 137.697C99.573 137.423 99.4601 137.152 99.3471 136.882C98.9046 135.828 98.4071 134.79 97.9494 133.761C97.7033 133.221 97.4853 132.67 97.2962 132.108L97.2382 132.19C97.1455 132.33 97.0628 132.476 96.991 132.628C96.991 135.024 94.5861 137.956 94.5861 137.956L92.1659 134.44L90.0478 137.688C89.7426 137.85 89.4374 138.404 89.1994 139.192C89.1322 139.405 89.0681 139.637 89.0071 139.883C88.9644 140.048 88.9247 140.221 88.8881 140.395C88.8667 140.483 88.8484 140.571 88.8301 140.663L88.7752 140.94V140.982C88.7385 141.171 88.7019 141.366 88.6683 141.564C88.6348 141.762 88.5951 141.99 88.5615 142.206C88.5371 142.346 88.5157 142.486 88.4974 142.627C88.4547 142.897 88.4181 143.172 88.3815 143.442C88.3601 143.601 88.3387 143.747 88.3204 143.914L88.2472 144.523C88.4028 145.023 88.5768 145.516 88.7568 146C88.8719 146.265 88.939 146.549 88.9552 146.837C92.7003 147.905 96.6703 147.905 100.415 146.837C100.414 146.827 100.414 146.817 100.415 146.807C100.359 146.533 100.334 146.254 100.342 145.976C100.404 145.194 100.506 144.417 100.647 143.646C100.692 143.267 100.712 142.884 100.705 142.502V142.365C100.696 142.249 100.693 142.139 100.69 142.03ZM100.69 142.03C100.69 141.908 100.69 141.786 100.669 141.664C100.647 141.543 100.65 141.436 100.635 141.32C100.62 141.205 100.608 141.089 100.592 140.973C100.577 140.858 100.556 140.742 100.534 140.626C100.513 140.511 100.492 140.395 100.467 140.279C100.467 140.24 100.452 140.203 100.443 140.164C100.409 140.011 100.373 139.859 100.333 139.704C100.293 139.549 100.269 139.457 100.232 139.335C100.232 139.281 100.202 139.226 100.183 139.174C100.165 139.122 100.132 138.997 100.104 138.909L100.049 138.739C100.025 138.663 100 138.586 99.9728 138.51C99.927 138.373 99.8782 138.239 99.8294 138.102C99.7805 137.965 99.7286 137.831 99.6768 137.697C99.573 137.423 99.4601 137.152 99.3471 136.882C98.9046 135.828 98.4071 134.79 97.9494 133.761C97.7033 133.221 97.4853 132.67 97.2962 132.108L97.2382 132.19C97.1455 132.33 97.0628 132.476 96.991 132.628C96.991 135.024 94.5861 137.956 94.5861 137.956L92.1659 134.44L90.0478 137.688C89.7426 137.85 89.4374 138.404 89.1994 139.192C89.1322 139.405 89.0681 139.637 89.0071 139.883C88.9644 140.048 88.9247 140.221 88.8881 140.395C88.8667 140.483 88.8484 140.571 88.8301 140.663L88.7752 140.94V140.982C88.7385 141.171 88.7019 141.366 88.6683 141.564C88.6348 141.762 88.5951 141.99 88.5615 142.206C88.5371 142.346 88.5157 142.486 88.4974 142.627C88.4547 142.897 88.4181 143.172 88.3815 143.442C88.3601 143.601 88.3387 143.747 88.3204 143.914L88.2472 144.523C88.4028 145.023 88.5768 145.516 88.7568 146C88.8719 146.265 88.939 146.549 88.9552 146.837C92.7003 147.905 96.6703 147.905 100.415 146.837C100.414 146.827 100.414 146.817 100.415 146.807C100.359 146.533 100.334 146.254 100.342 145.976C100.404 145.194 100.506 144.417 100.647 143.646C100.692 143.267 100.712 142.884 100.705 142.502V142.365C100.696 142.249 100.693 142.139 100.69 142.03ZM100.69 142.03C100.69 141.908 100.69 141.786 100.669 141.664C100.647 141.543 100.65 141.436 100.635 141.32C100.62 141.205 100.608 141.089 100.592 140.973C100.577 140.858 100.556 140.742 100.534 140.626C100.513 140.511 100.492 140.395 100.467 140.279C100.467 140.24 100.452 140.203 100.443 140.164C100.409 140.011 100.373 139.859 100.333 139.704C100.293 139.549 100.269 139.457 100.232 139.335C100.232 139.281 100.202 139.226 100.183 139.174C100.165 139.122 100.132 138.997 100.104 138.909L100.049 138.739C100.025 138.663 100 138.586 99.9728 138.51C99.927 138.373 99.8782 138.239 99.8294 138.102C99.7805 137.965 99.7286 137.831 99.6768 137.697C99.573 137.423 99.4601 137.152 99.3471 136.882C98.9046 135.828 98.4071 134.79 97.9494 133.761C97.7033 133.221 97.4853 132.67 97.2962 132.108L97.2382 132.19C97.1455 132.33 97.0628 132.476 96.991 132.628C96.991 135.024 94.5861 137.956 94.5861 137.956L92.1659 134.44L90.0478 137.688C89.7426 137.85 89.4374 138.404 89.1994 139.192C89.1322 139.405 89.0681 139.637 89.0071 139.883C88.9644 140.048 88.9247 140.221 88.8881 140.395C88.8667 140.483 88.8484 140.571 88.8301 140.663L88.7752 140.94V140.982C88.7385 141.171 88.7019 141.366 88.6683 141.564C88.6348 141.762 88.5951 141.99 88.5615 142.206C88.5371 142.346 88.5157 142.486 88.4974 142.627C88.4547 142.897 88.4181 143.172 88.3815 143.442C88.3601 143.601 88.3387 143.747 88.3204 143.914L88.2472 144.523C88.4028 145.023 88.5768 145.516 88.7568 146C88.8719 146.265 88.939 146.549 88.9552 146.837C92.7003 147.905 96.6703 147.905 100.415 146.837C100.414 146.827 100.414 146.817 100.415 146.807C100.359 146.533 100.334 146.254 100.342 145.976C100.404 145.194 100.506 144.417 100.647 143.646C100.692 143.267 100.712 142.884 100.705 142.502V142.365C100.696 142.249 100.693 142.139 100.69 142.03ZM100.69 142.03C100.69 141.908 100.69 141.786 100.669 141.664C100.647 141.543 100.65 141.436 100.635 141.32C100.62 141.205 100.608 141.089 100.592 140.973C100.577 140.858 100.556 140.742 100.534 140.626C100.513 140.511 100.492 140.395 100.467 140.279C100.467 140.24 100.452 140.203 100.443 140.164C100.409 140.011 100.373 139.859 100.333 139.704C100.293 139.549 100.269 139.457 100.232 139.335C100.232 139.281 100.202 139.226 100.183 139.174C100.165 139.122 100.132 138.997 100.104 138.909L100.049 138.739C100.025 138.663 100 138.586 99.9728 138.51C99.927 138.373 99.8782 138.239 99.8294 138.102C99.7805 137.965 99.7286 137.831 99.6768 137.697C99.573 137.423 99.4601 137.152 99.3471 136.882C98.9046 135.828 98.4071 134.79 97.9494 133.761C97.7033 133.221 97.4853 132.67 97.2962 132.108L97.2382 132.19C97.1455 132.33 97.0628 132.476 96.991 132.628C96.991 135.024 94.5861 137.956 94.5861 137.956L92.1659 134.44L90.0478 137.688C89.7426 137.85 89.4374 138.404 89.1994 139.192C89.1322 139.405 89.0681 139.637 89.0071 139.883C88.9644 140.048 88.9247 140.221 88.8881 140.395C88.8667 140.483 88.8484 140.571 88.8301 140.663L88.7752 140.94V140.982C88.7385 141.171 88.7019 141.366 88.6683 141.564C88.6348 141.762 88.5951 141.99 88.5615 142.206C88.5371 142.346 88.5157 142.486 88.4974 142.627C88.4547 142.897 88.4181 143.172 88.3815 143.442C88.3601 143.601 88.3387 143.747 88.3204 143.914L88.2472 144.523C88.4028 145.023 88.5768 145.516 88.7568 146C88.8719 146.265 88.939 146.549 88.9552 146.837C92.7003 147.905 96.6703 147.905 100.415 146.837C100.414 146.827 100.414 146.817 100.415 146.807C100.359 146.533 100.334 146.254 100.342 145.976C100.404 145.194 100.506 144.417 100.647 143.646C100.692 143.267 100.712 142.884 100.705 142.502V142.365C100.696 142.249 100.693 142.139 100.69 142.03ZM100.69 142.03C100.69 141.908 100.69 141.786 100.669 141.664C100.647 141.543 100.65 141.436 100.635 141.32C100.62 141.205 100.608 141.089 100.592 140.973C100.577 140.858 100.556 140.742 100.534 140.626C100.513 140.511 100.492 140.395 100.467 140.279C100.467 140.24 100.452 140.203 100.443 140.164C100.409 140.011 100.373 139.859 100.333 139.704C100.293 139.549 100.269 139.457 100.232 139.335C100.232 139.281 100.202 139.226 100.183 139.174C100.165 139.122 100.132 138.997 100.104 138.909L100.049 138.739C100.025 138.663 100 138.586 99.9728 138.51C99.927 138.373 99.8782 138.239 99.8294 138.102C99.7805 137.965 99.7286 137.831 99.6768 137.697C99.573 137.423 99.4601 137.152 99.3471 136.882C98.9046 135.828 98.4071 134.79 97.9494 133.761C97.7033 133.221 97.4853 132.67 97.2962 132.108L97.2382 132.19C97.1455 132.33 97.0628 132.476 96.991 132.628C96.991 135.024 94.5861 137.956 94.5861 137.956L92.1659 134.44L90.0478 137.688C89.7426 137.85 89.4374 138.404 89.1994 139.192C89.1322 139.405 89.0681 139.637 89.0071 139.883C88.9644 140.048 88.9247 140.221 88.8881 140.395C88.8667 140.483 88.8484 140.571 88.8301 140.663L88.7752 140.94V140.982C88.7385 141.171 88.7019 141.366 88.6683 141.564C88.6348 141.762 88.5951 141.99 88.5615 142.206C88.5371 142.346 88.5157 142.486 88.4974 142.627C88.4547 142.897 88.4181 143.172 88.3815 143.442C88.3601 143.601 88.3387 143.747 88.3204 143.914L88.2472 144.523C88.4028 145.023 88.5768 145.516 88.7568 146C88.8719 146.265 88.939 146.549 88.9552 146.837C92.7003 147.905 96.6703 147.905 100.415 146.837C100.414 146.827 100.414 146.817 100.415 146.807C100.359 146.533 100.334 146.254 100.342 145.976C100.404 145.194 100.506 144.417 100.647 143.646C100.692 143.267 100.712 142.884 100.705 142.502V142.365C100.696 142.249 100.693 142.139 100.69 142.03ZM100.69 142.03C100.69 141.908 100.69 141.786 100.669 141.664C100.647 141.543 100.65 141.436 100.635 141.32C100.62 141.205 100.608 141.089 100.592 140.973C100.577 140.858 100.556 140.742 100.534 140.626C100.513 140.511 100.492 140.395 100.467 140.279C100.467 140.24 100.452 140.203 100.443 140.164C100.409 140.011 100.373 139.859 100.333 139.704C100.293 139.549 100.269 139.457 100.232 139.335C100.232 139.281 100.202 139.226 100.183 139.174C100.165 139.122 100.132 138.997 100.104 138.909L100.049 138.739C100.025 138.663 100 138.586 99.9728 138.51C99.927 138.373 99.8782 138.239 99.8294 138.102C99.7805 137.965 99.7286 137.831 99.6768 137.697C99.573 137.423 99.4601 137.152 99.3471 136.882C98.9046 135.828 98.4071 134.79 97.9494 133.761C97.7033 133.221 97.4853 132.67 97.2962 132.108L97.2382 132.19C97.1455 132.33 97.0628 132.476 96.991 132.628C96.991 135.024 94.5861 137.956 94.5861 137.956L92.1659 134.44L90.0478 137.688C89.7426 137.85 89.4374 138.404 89.1994 139.192C89.1322 139.405 89.0681 139.637 89.0071 139.883C88.9644 140.048 88.9247 140.221 88.8881 140.395C88.8667 140.483 88.8484 140.571 88.8301 140.663L88.7752 140.94V140.982C88.7385 141.171 88.7019 141.366 88.6683 141.564C88.6348 141.762 88.5951 141.99 88.5615 142.206C88.5371 142.346 88.5157 142.486 88.4974 142.627C88.4547 142.897 88.4181 143.172 88.3815 143.442C88.3601 143.601 88.3387 143.747 88.3204 143.914L88.2472 144.523C88.4028 145.023 88.5768 145.516 88.7568 146C88.8719 146.265 88.939 146.549 88.9552 146.837C92.7003 147.905 96.6703 147.905 100.415 146.837C100.414 146.827 100.414 146.817 100.415 146.807C100.359 146.533 100.334 146.254 100.342 145.976C100.404 145.194 100.506 144.417 100.647 143.646C100.692 143.267 100.712 142.884 100.705 142.502V142.365C100.696 142.249 100.693 142.139 100.69 142.03ZM100.69 142.03C100.69 141.908 100.69 141.786 100.669 141.664C100.647 141.543 100.65 141.436 100.635 141.32C100.62 141.205 100.608 141.089 100.592 140.973C100.577 140.858 100.556 140.742 100.534 140.626C100.513 140.511 100.492 140.395 100.467 140.279C100.467 140.24 100.452 140.203 100.443 140.164C100.409 140.011 100.373 139.859 100.333 139.704C100.293 139.549 100.269 139.457 100.232 139.335C100.232 139.281 100.202 139.226 100.183 139.174C100.165 139.122 100.132 138.997 100.104 138.909L100.049 138.739C100.025 138.663 100 138.586 99.9728 138.51C99.927 138.373 99.8782 138.239 99.8294 138.102C99.7805 137.965 99.7286 137.831 99.6768 137.697C99.573 137.423 99.4601 137.152 99.3471 136.882C98.9046 135.828 98.4071 134.79 97.9494 133.761C97.7033 133.221 97.4853 132.67 97.2962 132.108L97.2382 132.19C97.1455 132.33 97.0628 132.476 96.991 132.628C96.991 135.024 94.5861 137.956 94.5861 137.956L92.1659 134.44L90.0478 137.688C89.7426 137.85 89.4374 138.404 89.1994 139.192C89.1322 139.405 89.0681 139.637 89.0071 139.883C88.9644 140.048 88.9247 140.221 88.8881 140.395C88.8667 140.483 88.8484 140.571 88.8301 140.663L88.7752 140.94V140.982C88.7385 141.171 88.7019 141.366 88.6683 141.564C88.6348 141.762 88.5951 141.99 88.5615 142.206C88.5371 142.346 88.5157 142.486 88.4974 142.627C88.4547 142.897 88.4181 143.172 88.3815 143.442C88.3601 143.601 88.3387 143.747 88.3204 143.914L88.2472 144.523C88.4028 145.023 88.5768 145.516 88.7568 146C88.8719 146.265 88.939 146.549 88.9552 146.837C92.7003 147.905 96.6703 147.905 100.415 146.837C100.414 146.827 100.414 146.817 100.415 146.807C100.359 146.533 100.334 146.254 100.342 145.976C100.404 145.194 100.506 144.417 100.647 143.646C100.692 143.267 100.712 142.884 100.705 142.502V142.365C100.696 142.249 100.693 142.139 100.69 142.03Z" fill="white"/>
<path opacity="0.1" d="M92.209 134.236L92.0045 134.208C91.6958 134.167 91.39 134.106 91.089 134.026L90.976 133.995C90.2314 133.785 89.4165 133.408 89.2334 132.744C89.1788 132.53 89.1852 132.306 89.2517 132.096C89.3541 131.733 89.4932 131.382 89.6667 131.048V131.03C89.6897 130.983 89.7151 130.937 89.743 130.893C89.9949 130.402 90.3757 129.988 90.8448 129.696L90.4786 129.754L87.3778 130.257L82.5709 131.03C82.5709 131.03 81.7164 130.859 80.5536 134.056C80.5536 134.096 80.5261 134.132 80.5139 134.175C80.2331 134.957 79.9371 135.935 79.6319 137.156C79.4213 138.002 79.229 138.833 79.052 139.64C79.0001 139.883 78.9482 140.124 78.8994 140.361C79.4497 141.008 80.042 141.619 80.6726 142.188L80.7733 142.283C82.0084 143.398 83.3732 144.362 84.8385 145.154L84.8965 145.184C85.8183 145.68 86.7775 146.103 87.7654 146.45L88.0248 146.542C88.0797 145.979 88.1408 145.354 88.214 144.715C88.214 144.651 88.214 144.587 88.2384 144.523L88.3117 143.914C88.33 143.759 88.3513 143.61 88.3727 143.443C88.4093 143.172 88.446 142.898 88.4887 142.627C88.507 142.487 88.5284 142.346 88.5528 142.206C88.5863 141.99 88.623 141.774 88.6596 141.564C88.6962 141.354 88.7298 141.171 88.7664 140.983V140.94L88.8213 140.663C88.8397 140.572 88.858 140.483 88.8793 140.395C88.916 140.221 88.9556 140.048 88.9984 139.883C89.0594 139.637 89.1235 139.405 89.1906 139.192C89.4348 138.404 89.7186 137.85 90.0391 137.688L92.1571 134.44L92.2456 134.303L92.2853 134.242L92.209 134.236Z" fill="black"/>
<path opacity="0.1" d="M88.3543 112.672C88.0491 113.092 88.0735 113.67 87.9361 114.194C87.6096 115.384 86.3155 116.13 86.0195 117.33C85.8455 118.03 86.047 118.773 85.9279 119.485C85.7112 120.797 84.5088 121.686 83.8373 122.834C83.497 123.425 83.2952 124.086 83.2471 124.766C83.199 125.446 83.3058 126.128 83.5596 126.762C83.7167 127.081 83.8464 127.413 83.9472 127.754C84.0242 128.262 83.992 128.781 83.8526 129.276C83.6237 130.36 83.3887 131.554 83.9136 132.531C84.3562 133.356 85.2748 133.84 86.1996 133.992C87.1334 134.098 88.078 134.054 88.9982 133.864C90.0084 133.709 91.043 133.53 91.922 133.012L88.6167 125.054C88.2841 124.25 87.9422 123.419 87.9453 122.548C87.9722 121.906 88.1116 121.273 88.3573 120.679C88.9972 118.957 89.926 117.356 91.1041 115.944C91.5832 116.498 91.5466 117.342 91.9464 117.957C92.2997 118.411 92.7702 118.762 93.3076 118.971C94.8737 119.733 96.4827 120.404 98.1266 120.98C98.2298 120.993 98.3281 121.031 98.413 121.091C98.4978 121.151 98.5665 121.231 98.613 121.323C98.6595 121.416 98.6823 121.519 98.6795 121.623C98.6766 121.726 98.6482 121.828 98.5966 121.918L97.3514 127.045C97.0768 128.174 96.8357 129.48 97.5407 130.394C98.2457 131.307 99.8357 131.739 99.8449 132.918C99.8319 133.104 99.8319 133.291 99.8449 133.478C99.9273 134.029 100.583 134.294 101.142 134.321C102.059 134.339 102.952 134.032 103.663 133.453C104.373 132.875 104.855 132.064 105.021 131.164C105.326 129.148 103.989 127.291 103.431 125.328C102.491 122.024 103.736 118.149 101.89 115.247C100.394 112.894 97.6688 112.254 95.0808 111.962C93.2649 111.749 89.633 110.988 88.3543 112.672Z" fill="black"/>
<path opacity="0.5" d="M88.3543 112.367C88.0491 112.787 88.0735 113.366 87.9361 113.889C87.6096 115.08 86.3155 115.826 86.0195 117.025C85.8455 117.725 86.047 118.468 85.9279 119.181C85.7112 120.493 84.5088 121.382 83.8373 122.53C83.497 123.121 83.2952 123.781 83.2471 124.462C83.199 125.142 83.3058 125.824 83.5596 126.457C83.7167 126.776 83.8464 127.108 83.9472 127.45C84.0242 127.958 83.992 128.477 83.8526 128.972C83.6237 130.056 83.3887 131.249 83.9136 132.226C84.3562 133.052 85.2748 133.536 86.1996 133.688C87.1334 133.793 88.078 133.75 88.9982 133.56C90.0084 133.405 91.043 133.225 91.922 132.708L88.6167 124.749C88.2841 123.945 87.9422 123.114 87.9453 122.243C87.9722 121.601 88.1116 120.968 88.3573 120.374C88.9972 118.652 89.926 117.051 91.1041 115.64C91.5832 116.194 91.5466 117.037 91.9464 117.652C92.2997 118.107 92.7702 118.457 93.3076 118.666C94.8737 119.428 96.4827 120.099 98.1266 120.676C98.2298 120.688 98.3281 120.727 98.413 120.786C98.4978 120.846 98.5665 120.926 98.613 121.019C98.6595 121.112 98.6823 121.215 98.6795 121.318C98.6766 121.422 98.6482 121.523 98.5966 121.613L97.3514 126.74C97.0768 127.87 96.8357 129.176 97.5407 130.089C98.2457 131.003 99.8357 131.435 99.8449 132.613C99.8319 132.8 99.8319 132.987 99.8449 133.173C99.9273 133.724 100.583 133.989 101.142 134.017C102.059 134.035 102.952 133.727 103.663 133.149C104.373 132.571 104.855 131.759 105.021 130.859C105.326 128.844 103.989 126.987 103.431 125.023C102.491 121.72 103.736 117.844 101.89 114.943C100.394 112.589 97.6688 111.95 95.0808 111.658C93.2649 111.445 89.633 110.683 88.3543 112.367Z" fill="#493545"/>
</g>
<g opacity="0.5">
<path opacity="0.5" d="M86.4774 193.915C86.5049 194.934 85.809 195.805 85.2566 196.655C84.7042 197.504 84.2953 198.664 84.8629 199.513C85.0491 199.793 85.3299 200.01 85.4977 200.302C86.0867 201.322 85.1071 202.494 84.75 203.614C84.338 204.908 84.8171 206.354 85.6839 207.405C86.5507 208.455 87.747 209.165 88.9556 209.789C91.4967 211.14 94.2242 212.108 97.0494 212.663C98.5265 212.934 100.101 213.055 101.487 212.465C102.448 212.025 103.234 211.275 103.717 210.337C104.2 209.398 104.353 208.325 104.151 207.289C103.8 205.688 102.625 204.4 102.015 202.887C101.872 202.59 101.803 202.263 101.813 201.934C101.865 201.358 102.308 200.908 102.653 200.442C103.518 199.174 103.871 197.626 103.642 196.11C103.401 194.593 102.818 193.15 101.939 191.89C101.624 191.367 101.209 190.912 100.718 190.55C100.053 190.103 99.2285 189.975 98.435 189.862C95.1206 189.399 91.6871 188.894 88.3452 188.724C87.2892 188.669 86.514 188.876 85.9921 189.862C85.1956 191.333 86.4377 192.438 86.4774 193.915Z" fill="#444176"/>
<path opacity="0.5" d="M103.547 204.269L97.2568 213.192L91.1162 212.66C91.1162 212.66 90.9148 214.791 88.4458 207.067C87.0663 202.747 89.8711 204.248 90.4235 203.051C90.9759 201.855 91.9494 200.798 92.0318 199.915C92.2272 198.022 91.6503 196.944 91.6503 196.944L98.325 196.146C98.0238 197.043 97.9857 198.008 98.2151 198.926C99.0514 202.39 103.547 204.269 103.547 204.269Z" fill="#C77485"/>
<path opacity="0.5" d="M94.086 196.661C98.4684 196.661 102.021 193.866 102.021 190.419C102.021 186.972 98.4684 184.178 94.086 184.178C89.7035 184.178 86.1509 186.972 86.1509 190.419C86.1509 193.866 89.7035 196.661 94.086 196.661Z" fill="#444176"/>
<path opacity="0.1" d="M98.2122 198.923C97.3417 199.58 96.3227 200.015 95.2446 200.188C94.1665 200.361 93.0623 200.267 92.029 199.915C92.2243 198.022 91.6475 196.944 91.6475 196.944L98.3221 196.146C98.0215 197.042 97.9834 198.006 98.2122 198.923Z" fill="black"/>
<path opacity="0.5" d="M94.1868 200.007C97.8731 200.007 100.861 197.026 100.861 193.348C100.861 189.671 97.8731 186.69 94.1868 186.69C90.5005 186.69 87.5122 189.671 87.5122 193.348C87.5122 197.026 90.5005 200.007 94.1868 200.007Z" fill="#C77485"/>
<path opacity="0.1" d="M102.888 205.28L102.732 204.671L102.598 204.135L102.399 203.343L102.363 203.197L102.332 203.075C102.332 203.075 102.491 202.597 101.444 202.753L101.249 202.786C101.084 202.82 100.892 202.865 100.672 202.926L100.474 202.987L100.211 203.069C99.3801 203.339 98.6222 203.795 97.9954 204.403C97.714 204.671 97.4651 204.972 97.2538 205.298C97.2324 205.328 97.2171 205.356 97.1988 205.38C97.1265 205.493 97.0623 205.611 97.0065 205.733C97.0065 208.132 94.6016 211.061 94.6016 211.061L92.2546 207.679L92.2089 207.612L91.6504 206.802L91.452 206.54L91.3848 206.449L90.1641 204.814L89.8589 204.406L89.7581 204.269L89.6086 204.071L89.2576 203.605L87.8842 204.406L86.0531 205.471L84.9849 212.398V212.59L85.0184 213.162L85.2412 216.925V216.977L84.8506 218.535L84.9086 218.566C85.8304 219.062 86.7896 219.485 87.7774 219.832L88.0368 219.924C88.342 220.024 88.6289 220.116 88.928 220.204C88.9391 220.249 88.9473 220.295 88.9524 220.341C88.9524 220.298 88.9524 220.253 88.9524 220.21C92.6975 221.278 96.6675 221.278 100.413 220.21L100.483 220.189C100.657 220.14 100.834 220.088 101.005 220.03L101.282 219.942C102.035 219.691 102.773 219.396 103.492 219.059L103.748 213.609L103.931 209.679V209.454L102.888 205.28Z" fill="black"/>
<path opacity="0.5" d="M100.69 215.403C100.69 215.281 100.69 215.159 100.669 215.037C100.648 214.916 100.651 214.809 100.636 214.693C100.62 214.578 100.608 214.462 100.593 214.346C100.578 214.231 100.556 214.115 100.535 213.999C100.513 213.884 100.492 213.768 100.468 213.652C100.468 213.613 100.452 213.576 100.443 213.536C100.41 213.384 100.373 213.232 100.333 213.077C100.294 212.921 100.269 212.83 100.233 212.708C100.233 212.654 100.202 212.599 100.184 212.547C100.166 212.495 100.132 212.37 100.105 212.282L100.05 212.112C100.025 212.035 100.001 211.959 99.9733 211.883C99.9275 211.746 99.8787 211.612 99.8298 211.475C99.781 211.338 99.7291 211.204 99.6772 211.07C99.5735 210.796 99.4606 210.525 99.3476 210.254C98.9051 209.201 98.4076 208.163 97.9498 207.134C97.7038 206.594 97.4858 206.043 97.2967 205.481L97.2387 205.563C97.1459 205.703 97.0633 205.849 96.9915 206.001C96.9915 208.397 94.5866 211.329 94.5866 211.329L92.1664 207.813L90.0483 211.061C89.7431 211.223 89.4379 211.777 89.1999 212.565C89.1327 212.778 89.0686 213.01 89.0076 213.256C88.9649 213.421 88.9252 213.594 88.8886 213.768C88.8672 213.856 88.8489 213.944 88.8306 214.036L88.7756 214.313V214.355C88.739 214.544 88.7024 214.739 88.6688 214.937C88.6353 215.135 88.5956 215.363 88.562 215.579C88.5376 215.719 88.5162 215.859 88.4979 215.999C88.4552 216.27 88.4186 216.544 88.3819 216.815C88.3606 216.974 88.3392 217.12 88.3209 217.287L88.2477 217.896C88.4033 218.395 88.5773 218.889 88.7573 219.373C88.8724 219.638 88.9395 219.921 88.9557 220.21C92.7008 221.278 96.6707 221.278 100.416 220.21C100.414 220.2 100.414 220.19 100.416 220.18C100.359 219.906 100.335 219.627 100.343 219.348C100.404 218.567 100.506 217.79 100.648 217.019C100.693 216.639 100.712 216.257 100.706 215.875V215.738C100.697 215.622 100.694 215.512 100.69 215.403ZM100.69 215.403C100.69 215.281 100.69 215.159 100.669 215.037C100.648 214.916 100.651 214.809 100.636 214.693C100.62 214.578 100.608 214.462 100.593 214.346C100.578 214.231 100.556 214.115 100.535 213.999C100.513 213.884 100.492 213.768 100.468 213.652C100.468 213.613 100.452 213.576 100.443 213.536C100.41 213.384 100.373 213.232 100.333 213.077C100.294 212.921 100.269 212.83 100.233 212.708C100.233 212.654 100.202 212.599 100.184 212.547C100.166 212.495 100.132 212.37 100.105 212.282L100.05 212.112C100.025 212.035 100.001 211.959 99.9733 211.883C99.9275 211.746 99.8787 211.612 99.8298 211.475C99.781 211.338 99.7291 211.204 99.6772 211.07C99.5735 210.796 99.4606 210.525 99.3476 210.254C98.9051 209.201 98.4076 208.163 97.9498 207.134C97.7038 206.594 97.4858 206.043 97.2967 205.481L97.2387 205.563C97.1459 205.703 97.0633 205.849 96.9915 206.001C96.9915 208.397 94.5866 211.329 94.5866 211.329L92.1664 207.813L90.0483 211.061C89.7431 211.223 89.4379 211.777 89.1999 212.565C89.1327 212.778 89.0686 213.01 89.0076 213.256C88.9649 213.421 88.9252 213.594 88.8886 213.768C88.8672 213.856 88.8489 213.944 88.8306 214.036L88.7756 214.313V214.355C88.739 214.544 88.7024 214.739 88.6688 214.937C88.6353 215.135 88.5956 215.363 88.562 215.579C88.5376 215.719 88.5162 215.859 88.4979 215.999C88.4552 216.27 88.4186 216.544 88.3819 216.815C88.3606 216.974 88.3392 217.12 88.3209 217.287L88.2477 217.896C88.4033 218.395 88.5773 218.889 88.7573 219.373C88.8724 219.638 88.9395 219.921 88.9557 220.21C92.7008 221.278 96.6707 221.278 100.416 220.21C100.414 220.2 100.414 220.19 100.416 220.18C100.359 219.906 100.335 219.627 100.343 219.348C100.404 218.567 100.506 217.79 100.648 217.019C100.693 216.639 100.712 216.257 100.706 215.875V215.738C100.697 215.622 100.694 215.512 100.69 215.403ZM100.69 215.403C100.69 215.281 100.69 215.159 100.669 215.037C100.648 214.916 100.651 214.809 100.636 214.693C100.62 214.578 100.608 214.462 100.593 214.346C100.578 214.231 100.556 214.115 100.535 213.999C100.513 213.884 100.492 213.768 100.468 213.652C100.468 213.613 100.452 213.576 100.443 213.536C100.41 213.384 100.373 213.232 100.333 213.077C100.294 212.921 100.269 212.83 100.233 212.708C100.233 212.654 100.202 212.599 100.184 212.547C100.166 212.495 100.132 212.37 100.105 212.282L100.05 212.112C100.025 212.035 100.001 211.959 99.9733 211.883C99.9275 211.746 99.8787 211.612 99.8298 211.475C99.781 211.338 99.7291 211.204 99.6772 211.07C99.5735 210.796 99.4606 210.525 99.3476 210.254C98.9051 209.201 98.4076 208.163 97.9498 207.134C97.7038 206.594 97.4858 206.043 97.2967 205.481L97.2387 205.563C97.1459 205.703 97.0633 205.849 96.9915 206.001C96.9915 208.397 94.5866 211.329 94.5866 211.329L92.1664 207.813L90.0483 211.061C89.7431 211.223 89.4379 211.777 89.1999 212.565C89.1327 212.778 89.0686 213.01 89.0076 213.256C88.9649 213.421 88.9252 213.594 88.8886 213.768C88.8672 213.856 88.8489 213.944 88.8306 214.036L88.7756 214.313V214.355C88.739 214.544 88.7024 214.739 88.6688 214.937C88.6353 215.135 88.5956 215.363 88.562 215.579C88.5376 215.719 88.5162 215.859 88.4979 215.999C88.4552 216.27 88.4186 216.544 88.3819 216.815C88.3606 216.974 88.3392 217.12 88.3209 217.287L88.2477 217.896C88.4033 218.395 88.5773 218.889 88.7573 219.373C88.8724 219.638 88.9395 219.921 88.9557 220.21C92.7008 221.278 96.6707 221.278 100.416 220.21C100.414 220.2 100.414 220.19 100.416 220.18C100.359 219.906 100.335 219.627 100.343 219.348C100.404 218.567 100.506 217.79 100.648 217.019C100.693 216.639 100.712 216.257 100.706 215.875V215.738C100.697 215.622 100.694 215.512 100.69 215.403ZM103.926 209.688L102.836 205.35L102.65 204.607L102.598 204.403L102.332 203.343C102.333 203.334 102.333 203.325 102.332 203.316C102.339 203.269 102.331 203.222 102.311 203.179C102.271 203.1 102.171 203.018 101.936 202.996C101.846 202.99 101.757 202.99 101.667 202.996C101.402 203.023 101.14 203.071 100.883 203.142C100.758 203.176 100.623 203.212 100.48 203.258L100.217 203.34H100.193C99.4901 203.57 98.8375 203.932 98.2703 204.406C97.8956 204.718 97.5668 205.08 97.2937 205.484L97.2357 205.566C97.1429 205.706 97.0603 205.852 96.9885 206.004C96.9885 208.4 94.5835 211.332 94.5835 211.332L92.1633 207.816L92.026 207.618L92.0016 207.584L91.6506 207.07L91.3851 206.717L91.3149 206.625L90.0636 204.96L89.6668 204.421V204.403L89.5295 204.217L89.267 203.87L88.3514 204.403L86.0625 205.733L85.0065 212.587V212.66L85.037 213.159L85.2628 216.974V217.19L84.918 218.563C85.8398 219.059 86.7989 219.482 87.7868 219.829L88.0462 219.921C88.3514 220.021 88.6383 220.113 88.9374 220.201C88.9485 220.246 88.9566 220.292 88.9618 220.338C88.9618 220.295 88.9618 220.25 88.9618 220.207C92.7069 221.275 96.6768 221.275 100.422 220.207L100.492 220.186C100.666 220.137 100.843 220.085 101.014 220.027L101.292 219.939C102.045 219.688 102.783 219.393 103.501 219.056L103.755 213.613L103.938 209.725L103.926 209.688ZM88.916 220.201C88.9271 220.246 88.9353 220.292 88.9404 220.338C88.9404 220.295 88.9404 220.25 88.9404 220.207L88.916 220.201ZM100.69 215.403C100.69 215.281 100.69 215.159 100.669 215.037C100.648 214.916 100.651 214.809 100.636 214.693C100.62 214.578 100.608 214.462 100.593 214.346C100.578 214.231 100.556 214.115 100.535 213.999C100.513 213.884 100.492 213.768 100.468 213.652C100.468 213.613 100.452 213.576 100.443 213.536C100.41 213.384 100.373 213.232 100.333 213.077C100.294 212.921 100.269 212.83 100.233 212.708C100.233 212.654 100.202 212.599 100.184 212.547C100.166 212.495 100.132 212.37 100.105 212.282L100.05 212.112C100.025 212.035 100.001 211.959 99.9733 211.883C99.9275 211.746 99.8787 211.612 99.8298 211.475C99.781 211.338 99.7291 211.204 99.6772 211.07C99.5735 210.796 99.4606 210.525 99.3476 210.254C98.9051 209.201 98.4076 208.163 97.9498 207.134C97.7038 206.594 97.4858 206.043 97.2967 205.481L97.2387 205.563C97.1459 205.703 97.0633 205.849 96.9915 206.001C96.9915 208.397 94.5866 211.329 94.5866 211.329L92.1664 207.813L90.0483 211.061C89.7431 211.223 89.4379 211.777 89.1999 212.565C89.1327 212.778 89.0686 213.01 89.0076 213.256C88.9649 213.421 88.9252 213.594 88.8886 213.768C88.8672 213.856 88.8489 213.944 88.8306 214.036L88.7756 214.313V214.355C88.739 214.544 88.7024 214.739 88.6688 214.937C88.6353 215.135 88.5956 215.363 88.562 215.579C88.5376 215.719 88.5162 215.859 88.4979 215.999C88.4552 216.27 88.4186 216.544 88.3819 216.815C88.3606 216.974 88.3392 217.12 88.3209 217.287L88.2477 217.896C88.4033 218.395 88.5773 218.889 88.7573 219.373C88.8724 219.638 88.9395 219.921 88.9557 220.21C92.7008 221.278 96.6707 221.278 100.416 220.21C100.414 220.2 100.414 220.19 100.416 220.18C100.359 219.906 100.335 219.627 100.343 219.348C100.404 218.567 100.506 217.79 100.648 217.019C100.693 216.639 100.712 216.257 100.706 215.875V215.738C100.697 215.622 100.694 215.512 100.69 215.403ZM100.69 215.403C100.69 215.281 100.69 215.159 100.669 215.037C100.648 214.916 100.651 214.809 100.636 214.693C100.62 214.578 100.608 214.462 100.593 214.346C100.578 214.231 100.556 214.115 100.535 213.999C100.513 213.884 100.492 213.768 100.468 213.652C100.468 213.613 100.452 213.576 100.443 213.536C100.41 213.384 100.373 213.232 100.333 213.077C100.294 212.921 100.269 212.83 100.233 212.708C100.233 212.654 100.202 212.599 100.184 212.547C100.166 212.495 100.132 212.37 100.105 212.282L100.05 212.112C100.025 212.035 100.001 211.959 99.9733 211.883C99.9275 211.746 99.8787 211.612 99.8298 211.475C99.781 211.338 99.7291 211.204 99.6772 211.07C99.5735 210.796 99.4606 210.525 99.3476 210.254C98.9051 209.201 98.4076 208.163 97.9498 207.134C97.7038 206.594 97.4858 206.043 97.2967 205.481L97.2387 205.563C97.1459 205.703 97.0633 205.849 96.9915 206.001C96.9915 208.397 94.5866 211.329 94.5866 211.329L92.1664 207.813L90.0483 211.061C89.7431 211.223 89.4379 211.777 89.1999 212.565C89.1327 212.778 89.0686 213.01 89.0076 213.256C88.9649 213.421 88.9252 213.594 88.8886 213.768C88.8672 213.856 88.8489 213.944 88.8306 214.036L88.7756 214.313V214.355C88.739 214.544 88.7024 214.739 88.6688 214.937C88.6353 215.135 88.5956 215.363 88.562 215.579C88.5376 215.719 88.5162 215.859 88.4979 215.999C88.4552 216.27 88.4186 216.544 88.3819 216.815C88.3606 216.974 88.3392 217.12 88.3209 217.287L88.2477 217.896C88.4033 218.395 88.5773 218.889 88.7573 219.373C88.8724 219.638 88.9395 219.921 88.9557 220.21C92.7008 221.278 96.6707 221.278 100.416 220.21C100.414 220.2 100.414 220.19 100.416 220.18C100.359 219.906 100.335 219.627 100.343 219.348C100.404 218.567 100.506 217.79 100.648 217.019C100.693 216.639 100.712 216.257 100.706 215.875V215.738C100.697 215.622 100.694 215.512 100.69 215.403ZM100.69 215.403C100.69 215.281 100.69 215.159 100.669 215.037C100.648 214.916 100.651 214.809 100.636 214.693C100.62 214.578 100.608 214.462 100.593 214.346C100.578 214.231 100.556 214.115 100.535 213.999C100.513 213.884 100.492 213.768 100.468 213.652C100.468 213.613 100.452 213.576 100.443 213.536C100.41 213.384 100.373 213.232 100.333 213.077C100.294 212.921 100.269 212.83 100.233 212.708C100.233 212.654 100.202 212.599 100.184 212.547C100.166 212.495 100.132 212.37 100.105 212.282L100.05 212.112C100.025 212.035 100.001 211.959 99.9733 211.883C99.9275 211.746 99.8787 211.612 99.8298 211.475C99.781 211.338 99.7291 211.204 99.6772 211.07C99.5735 210.796 99.4606 210.525 99.3476 210.254C98.9051 209.201 98.4076 208.163 97.9498 207.134C97.7038 206.594 97.4858 206.043 97.2967 205.481L97.2387 205.563C97.1459 205.703 97.0633 205.849 96.9915 206.001C96.9915 208.397 94.5866 211.329 94.5866 211.329L92.1664 207.813L90.0483 211.061C89.7431 211.223 89.4379 211.777 89.1999 212.565C89.1327 212.778 89.0686 213.01 89.0076 213.256C88.9649 213.421 88.9252 213.594 88.8886 213.768C88.8672 213.856 88.8489 213.944 88.8306 214.036L88.7756 214.313V214.355C88.739 214.544 88.7024 214.739 88.6688 214.937C88.6353 215.135 88.5956 215.363 88.562 215.579C88.5376 215.719 88.5162 215.859 88.4979 215.999C88.4552 216.27 88.4186 216.544 88.3819 216.815C88.3606 216.974 88.3392 217.12 88.3209 217.287L88.2477 217.896C88.4033 218.395 88.5773 218.889 88.7573 219.373C88.8724 219.638 88.9395 219.921 88.9557 220.21C92.7008 221.278 96.6707 221.278 100.416 220.21C100.414 220.2 100.414 220.19 100.416 220.18C100.359 219.906 100.335 219.627 100.343 219.348C100.404 218.567 100.506 217.79 100.648 217.019C100.693 216.639 100.712 216.257 100.706 215.875V215.738C100.697 215.622 100.694 215.512 100.69 215.403ZM100.69 215.403C100.69 215.281 100.69 215.159 100.669 215.037C100.648 214.916 100.651 214.809 100.636 214.693C100.62 214.578 100.608 214.462 100.593 214.346C100.578 214.231 100.556 214.115 100.535 213.999C100.513 213.884 100.492 213.768 100.468 213.652C100.468 213.613 100.452 213.576 100.443 213.536C100.41 213.384 100.373 213.232 100.333 213.077C100.294 212.921 100.269 212.83 100.233 212.708C100.233 212.654 100.202 212.599 100.184 212.547C100.166 212.495 100.132 212.37 100.105 212.282L100.05 212.112C100.025 212.035 100.001 211.959 99.9733 211.883C99.9275 211.746 99.8787 211.612 99.8298 211.475C99.781 211.338 99.7291 211.204 99.6772 211.07C99.5735 210.796 99.4606 210.525 99.3476 210.254C98.9051 209.201 98.4076 208.163 97.9498 207.134C97.7038 206.594 97.4858 206.043 97.2967 205.481L97.2387 205.563C97.1459 205.703 97.0633 205.849 96.9915 206.001C96.9915 208.397 94.5866 211.329 94.5866 211.329L92.1664 207.813L90.0483 211.061C89.7431 211.223 89.4379 211.777 89.1999 212.565C89.1327 212.778 89.0686 213.01 89.0076 213.256C88.9649 213.421 88.9252 213.594 88.8886 213.768C88.8672 213.856 88.8489 213.944 88.8306 214.036L88.7756 214.313V214.355C88.739 214.544 88.7024 214.739 88.6688 214.937C88.6353 215.135 88.5956 215.363 88.562 215.579C88.5376 215.719 88.5162 215.859 88.4979 215.999C88.4552 216.27 88.4186 216.544 88.3819 216.815C88.3606 216.974 88.3392 217.12 88.3209 217.287L88.2477 217.896C88.4033 218.395 88.5773 218.889 88.7573 219.373C88.8724 219.638 88.9395 219.921 88.9557 220.21C92.7008 221.278 96.6707 221.278 100.416 220.21C100.414 220.2 100.414 220.19 100.416 220.18C100.359 219.906 100.335 219.627 100.343 219.348C100.404 218.567 100.506 217.79 100.648 217.019C100.693 216.639 100.712 216.257 100.706 215.875V215.738C100.697 215.622 100.694 215.512 100.69 215.403ZM100.69 215.403C100.69 215.281 100.69 215.159 100.669 215.037C100.648 214.916 100.651 214.809 100.636 214.693C100.62 214.578 100.608 214.462 100.593 214.346C100.578 214.231 100.556 214.115 100.535 213.999C100.513 213.884 100.492 213.768 100.468 213.652C100.468 213.613 100.452 213.576 100.443 213.536C100.41 213.384 100.373 213.232 100.333 213.077C100.294 212.921 100.269 212.83 100.233 212.708C100.233 212.654 100.202 212.599 100.184 212.547C100.166 212.495 100.132 212.37 100.105 212.282L100.05 212.112C100.025 212.035 100.001 211.959 99.9733 211.883C99.9275 211.746 99.8787 211.612 99.8298 211.475C99.781 211.338 99.7291 211.204 99.6772 211.07C99.5735 210.796 99.4606 210.525 99.3476 210.254C98.9051 209.201 98.4076 208.163 97.9498 207.134C97.7038 206.594 97.4858 206.043 97.2967 205.481L97.2387 205.563C97.1459 205.703 97.0633 205.849 96.9915 206.001C96.9915 208.397 94.5866 211.329 94.5866 211.329L92.1664 207.813L90.0483 211.061C89.7431 211.223 89.4379 211.777 89.1999 212.565C89.1327 212.778 89.0686 213.01 89.0076 213.256C88.9649 213.421 88.9252 213.594 88.8886 213.768C88.8672 213.856 88.8489 213.944 88.8306 214.036L88.7756 214.313V214.355C88.739 214.544 88.7024 214.739 88.6688 214.937C88.6353 215.135 88.5956 215.363 88.562 215.579C88.5376 215.719 88.5162 215.859 88.4979 215.999C88.4552 216.27 88.4186 216.544 88.3819 216.815C88.3606 216.974 88.3392 217.12 88.3209 217.287L88.2477 217.896C88.4033 218.395 88.5773 218.889 88.7573 219.373C88.8724 219.638 88.9395 219.921 88.9557 220.21C92.7008 221.278 96.6707 221.278 100.416 220.21C100.414 220.2 100.414 220.19 100.416 220.18C100.359 219.906 100.335 219.627 100.343 219.348C100.404 218.567 100.506 217.79 100.648 217.019C100.693 216.639 100.712 216.257 100.706 215.875V215.738C100.697 215.622 100.694 215.512 100.69 215.403ZM100.69 215.403C100.69 215.281 100.69 215.159 100.669 215.037C100.648 214.916 100.651 214.809 100.636 214.693C100.62 214.578 100.608 214.462 100.593 214.346C100.578 214.231 100.556 214.115 100.535 213.999C100.513 213.884 100.492 213.768 100.468 213.652C100.468 213.613 100.452 213.576 100.443 213.536C100.41 213.384 100.373 213.232 100.333 213.077C100.294 212.921 100.269 212.83 100.233 212.708C100.233 212.654 100.202 212.599 100.184 212.547C100.166 212.495 100.132 212.37 100.105 212.282L100.05 212.112C100.025 212.035 100.001 211.959 99.9733 211.883C99.9275 211.746 99.8787 211.612 99.8298 211.475C99.781 211.338 99.7291 211.204 99.6772 211.07C99.5735 210.796 99.4606 210.525 99.3476 210.254C98.9051 209.201 98.4076 208.163 97.9498 207.134C97.7038 206.594 97.4858 206.043 97.2967 205.481L97.2387 205.563C97.1459 205.703 97.0633 205.849 96.9915 206.001C96.9915 208.397 94.5866 211.329 94.5866 211.329L92.1664 207.813L90.0483 211.061C89.7431 211.223 89.4379 211.777 89.1999 212.565C89.1327 212.778 89.0686 213.01 89.0076 213.256C88.9649 213.421 88.9252 213.594 88.8886 213.768C88.8672 213.856 88.8489 213.944 88.8306 214.036L88.7756 214.313V214.355C88.739 214.544 88.7024 214.739 88.6688 214.937C88.6353 215.135 88.5956 215.363 88.562 215.579C88.5376 215.719 88.5162 215.859 88.4979 215.999C88.4552 216.27 88.4186 216.544 88.3819 216.815C88.3606 216.974 88.3392 217.12 88.3209 217.287L88.2477 217.896C88.4033 218.395 88.5773 218.889 88.7573 219.373C88.8724 219.638 88.9395 219.921 88.9557 220.21C92.7008 221.278 96.6707 221.278 100.416 220.21C100.414 220.2 100.414 220.19 100.416 220.18C100.359 219.906 100.335 219.627 100.343 219.348C100.404 218.567 100.506 217.79 100.648 217.019C100.693 216.639 100.712 216.257 100.706 215.875V215.738C100.697 215.622 100.694 215.512 100.69 215.403ZM100.69 215.403C100.69 215.281 100.69 215.159 100.669 215.037C100.648 214.916 100.651 214.809 100.636 214.693C100.62 214.578 100.608 214.462 100.593 214.346C100.578 214.231 100.556 214.115 100.535 213.999C100.513 213.884 100.492 213.768 100.468 213.652C100.468 213.613 100.452 213.576 100.443 213.536C100.41 213.384 100.373 213.232 100.333 213.077C100.294 212.921 100.269 212.83 100.233 212.708C100.233 212.654 100.202 212.599 100.184 212.547C100.166 212.495 100.132 212.37 100.105 212.282L100.05 212.112C100.025 212.035 100.001 211.959 99.9733 211.883C99.9275 211.746 99.8787 211.612 99.8298 211.475C99.781 211.338 99.7291 211.204 99.6772 211.07C99.5735 210.796 99.4606 210.525 99.3476 210.254C98.9051 209.201 98.4076 208.163 97.9498 207.134C97.7038 206.594 97.4858 206.043 97.2967 205.481L97.2387 205.563C97.1459 205.703 97.0633 205.849 96.9915 206.001C96.9915 208.397 94.5866 211.329 94.5866 211.329L92.1664 207.813L90.0483 211.061C89.7431 211.223 89.4379 211.777 89.1999 212.565C89.1327 212.778 89.0686 213.01 89.0076 213.256C88.9649 213.421 88.9252 213.594 88.8886 213.768C88.8672 213.856 88.8489 213.944 88.8306 214.036L88.7756 214.313V214.355C88.739 214.544 88.7024 214.739 88.6688 214.937C88.6353 215.135 88.5956 215.363 88.562 215.579C88.5376 215.719 88.5162 215.859 88.4979 215.999C88.4552 216.27 88.4186 216.544 88.3819 216.815C88.3606 216.974 88.3392 217.12 88.3209 217.287L88.2477 217.896C88.4033 218.395 88.5773 218.889 88.7573 219.373C88.8724 219.638 88.9395 219.921 88.9557 220.21C92.7008 221.278 96.6707 221.278 100.416 220.21C100.414 220.2 100.414 220.19 100.416 220.18C100.359 219.906 100.335 219.627 100.343 219.348C100.404 218.567 100.506 217.79 100.648 217.019C100.693 216.639 100.712 216.257 100.706 215.875V215.738C100.697 215.622 100.694 215.512 100.69 215.403ZM100.69 215.403C100.69 215.281 100.69 215.159 100.669 215.037C100.648 214.916 100.651 214.809 100.636 214.693C100.62 214.578 100.608 214.462 100.593 214.346C100.578 214.231 100.556 214.115 100.535 213.999C100.513 213.884 100.492 213.768 100.468 213.652C100.468 213.613 100.452 213.576 100.443 213.536C100.41 213.384 100.373 213.232 100.333 213.077C100.294 212.921 100.269 212.83 100.233 212.708C100.233 212.654 100.202 212.599 100.184 212.547C100.166 212.495 100.132 212.37 100.105 212.282L100.05 212.112C100.025 212.035 100.001 211.959 99.9733 211.883C99.9275 211.746 99.8787 211.612 99.8298 211.475C99.781 211.338 99.7291 211.204 99.6772 211.07C99.5735 210.796 99.4606 210.525 99.3476 210.254C98.9051 209.201 98.4076 208.163 97.9498 207.134C97.7038 206.594 97.4858 206.043 97.2967 205.481L97.2387 205.563C97.1459 205.703 97.0633 205.849 96.9915 206.001C96.9915 208.397 94.5866 211.329 94.5866 211.329L92.1664 207.813L90.0483 211.061C89.7431 211.223 89.4379 211.777 89.1999 212.565C89.1327 212.778 89.0686 213.01 89.0076 213.256C88.9649 213.421 88.9252 213.594 88.8886 213.768C88.8672 213.856 88.8489 213.944 88.8306 214.036L88.7756 214.313V214.355C88.739 214.544 88.7024 214.739 88.6688 214.937C88.6353 215.135 88.5956 215.363 88.562 215.579C88.5376 215.719 88.5162 215.859 88.4979 215.999C88.4552 216.27 88.4186 216.544 88.3819 216.815C88.3606 216.974 88.3392 217.12 88.3209 217.287L88.2477 217.896C88.4033 218.395 88.5773 218.889 88.7573 219.373C88.8724 219.638 88.9395 219.921 88.9557 220.21C92.7008 221.278 96.6707 221.278 100.416 220.21C100.414 220.2 100.414 220.19 100.416 220.18C100.359 219.906 100.335 219.627 100.343 219.348C100.404 218.567 100.506 217.79 100.648 217.019C100.693 216.639 100.712 216.257 100.706 215.875V215.738C100.697 215.622 100.694 215.512 100.69 215.403Z" fill="#444176"/>
<path opacity="0.1" d="M92.209 207.609L92.0045 207.581C91.6958 207.54 91.39 207.479 91.089 207.399L90.976 207.368C90.2314 207.158 89.4165 206.781 89.2334 206.117C89.1788 205.903 89.1852 205.679 89.2517 205.468C89.3541 205.106 89.4932 204.755 89.6667 204.421V204.403C89.6897 204.356 89.7151 204.31 89.743 204.266C89.9949 203.775 90.3757 203.361 90.8448 203.069L90.4786 203.127L87.3778 203.63L82.5709 204.403C82.5709 204.403 81.7164 204.232 80.5536 207.429C80.5536 207.469 80.5261 207.505 80.5139 207.548C80.2331 208.33 79.9371 209.308 79.6319 210.528C79.4213 211.375 79.229 212.206 79.052 213.013C79.0001 213.256 78.9482 213.497 78.8994 213.734C79.4497 214.381 80.042 214.992 80.6726 215.561L80.7733 215.655C82.0084 216.771 83.3732 217.735 84.8385 218.526L84.8965 218.557C85.8183 219.053 86.7775 219.476 87.7654 219.823L88.0248 219.915C88.0797 219.351 88.1408 218.727 88.214 218.088C88.214 218.024 88.214 217.96 88.2384 217.896L88.3117 217.287C88.33 217.132 88.3513 216.983 88.3727 216.815C88.4093 216.544 88.446 216.27 88.4887 215.999C88.507 215.859 88.5284 215.719 88.5528 215.579C88.5863 215.363 88.623 215.147 88.6596 214.937C88.6962 214.727 88.7298 214.544 88.7664 214.355V214.313L88.8213 214.036C88.8397 213.944 88.858 213.856 88.8793 213.768C88.916 213.594 88.9556 213.421 88.9984 213.256C89.0594 213.01 89.1235 212.778 89.1906 212.565C89.4348 211.777 89.7186 211.223 90.0391 211.061L92.1571 207.813L92.2456 207.676L92.2853 207.615L92.209 207.609Z" fill="black"/>
<path opacity="0.1" d="M92.7188 191.4C93.671 191.238 94.6293 190.891 95.5755 191.095C96.369 191.26 97.0312 191.786 97.7576 192.152C98.4589 192.504 99.226 192.706 100.01 192.745C100.296 192.783 100.586 192.726 100.837 192.584C101.215 192.322 101.27 191.786 101.206 191.33C101.023 190.033 100.211 188.918 99.3751 187.908C99.0414 187.476 98.656 187.086 98.2276 186.748C97.132 185.941 95.6823 185.804 94.3242 185.865C92.7738 185.935 91.1989 186.233 89.853 187.01C88.9374 187.533 86.8377 189.183 87.5671 190.377C88.3332 191.625 91.5194 191.604 92.7188 191.4Z" fill="black"/>
<path opacity="0.5" d="M92.7188 191.095C93.671 190.934 94.6293 190.587 95.5755 190.791C96.369 190.955 97.0312 191.482 97.7576 191.847C98.4589 192.199 99.226 192.401 100.01 192.441C100.296 192.478 100.586 192.422 100.837 192.28C101.215 192.018 101.27 191.482 101.206 191.025C101.023 189.728 100.211 188.614 99.3751 187.603C99.0414 187.171 98.656 186.782 98.2276 186.443C97.132 185.636 95.6823 185.499 94.3242 185.56C92.7738 185.63 91.1989 185.929 89.853 186.705C88.9374 187.229 86.8377 188.879 87.5671 190.072C88.3332 191.32 91.5194 191.299 92.7188 191.095Z" fill="#444176"/>
</g>
<path opacity="0.1" d="M216.934 152.573C216.934 152.573 209.884 153.057 207.939 151.602C210.5 153.551 213.523 154.805 216.714 155.24L216.934 152.573Z" fill="black"/>
<path d="M217.791 150.679L134.473 83.6999C133.988 83.2163 133.412 82.833 132.778 82.5718C132.145 82.3106 131.465 82.1766 130.78 82.1776H127.24C134.314 73.1335 137.665 61.738 136.607 50.3147C135.55 38.8915 130.165 28.3006 121.549 20.7016C112.934 13.1027 101.738 9.06784 90.2435 9.41986C78.7489 9.77188 67.8218 14.4842 59.6902 22.5961C51.5585 30.7079 46.8346 41.6084 46.4817 53.0749C46.1289 64.5413 50.1735 75.7103 57.7911 84.3045C65.4086 92.8987 76.0254 98.2708 87.4766 99.3255C98.9278 100.38 110.351 97.0382 119.417 89.9807V93.5093C119.416 94.1933 119.551 94.8708 119.812 95.5029C120.074 96.135 120.459 96.7094 120.943 97.1932L204.262 164.173C204.744 164.658 205.318 165.043 205.95 165.306C206.583 165.568 207.261 165.704 207.946 165.704C208.63 165.704 209.309 165.568 209.941 165.306C210.573 165.043 211.147 164.658 211.629 164.173L217.77 158.053C218.75 157.076 219.302 155.752 219.306 154.371C219.31 152.989 218.765 151.662 217.791 150.679ZM91.6018 82.1776C86.1004 82.1776 80.7225 80.5502 76.1483 77.5013C71.574 74.4523 68.0088 70.1187 65.9036 65.0485C63.7983 59.9782 63.2474 54.3991 64.3207 49.0166C65.394 43.634 68.0431 38.6899 71.9332 34.8093C75.8233 30.9287 80.7795 28.286 86.1752 27.2153C91.5709 26.1446 97.1637 26.6941 102.246 28.7943C107.329 30.8945 111.673 34.451 114.73 39.0141C117.786 43.5772 119.417 48.9419 119.417 54.4299C119.42 58.0748 118.703 61.6846 117.306 65.0527C115.909 68.4208 113.86 71.4812 111.277 74.0589C108.694 76.6366 105.626 78.6809 102.25 80.075C98.8741 81.4692 95.2557 82.1857 91.6018 82.1837V82.1776Z" fill="url(#paint2_linear)"/>
<path d="M218.402 150.07L135.083 83.091C134.598 82.6075 134.022 82.2241 133.389 81.9629C132.755 81.7017 132.076 81.5677 131.39 81.5687H127.85C134.925 72.5246 138.275 61.1292 137.218 49.7059C136.16 38.2826 130.775 27.6917 122.16 20.0927C113.545 12.4938 102.348 8.45895 90.8538 8.81097C79.3593 9.163 68.4322 13.8753 60.3005 21.9872C52.1688 30.099 47.445 40.9995 47.0921 52.466C46.7392 63.9325 50.7839 75.1014 58.4014 83.6956C66.019 92.2898 76.6357 97.6619 88.0869 98.7167C99.5382 99.7714 110.961 96.4293 120.028 89.3718V92.9004C120.027 93.5844 120.161 94.2619 120.423 94.894C120.685 95.5262 121.069 96.1006 121.554 96.5843L204.872 163.564C205.355 164.049 205.928 164.434 206.561 164.697C207.193 164.959 207.871 165.095 208.556 165.095C209.241 165.095 209.919 164.959 210.551 164.697C211.184 164.434 211.757 164.049 212.24 163.564L218.38 157.444C219.36 156.468 219.912 155.143 219.916 153.762C219.92 152.38 219.376 151.053 218.402 150.07ZM92.2121 81.5687C86.7107 81.5687 81.3329 79.9414 76.7586 76.8924C72.1844 73.8434 68.6192 69.5098 66.5139 64.4396C64.4086 59.3694 63.8578 53.7902 64.931 48.4077C66.0043 43.0251 68.6535 38.081 72.5436 34.2004C76.4336 30.3198 81.3899 27.6771 86.7856 26.6064C92.1813 25.5358 97.7741 26.0853 102.857 28.1854C107.939 30.2856 112.284 33.8421 115.34 38.4052C118.396 42.9683 120.028 48.333 120.028 53.821C120.031 57.466 119.313 61.0757 117.916 64.4438C116.519 67.812 114.471 70.8724 111.887 73.45C109.304 76.0277 106.237 78.072 102.86 79.4662C99.4844 80.8603 95.866 81.5768 92.2121 81.5748V81.5687Z" fill="#7303C0"/>
<path d="M95.2549 65.3201L101.82 60.2693C101.82 60.2693 97.4218 61.21 97.5469 54.1985C97.5454 54.1752 97.5454 54.1518 97.5469 54.1285C97.5469 53.4952 97.6079 52.8011 97.6995 52.0369C98.8257 42.6811 89.8224 50.9135 89.8224 50.9135C89.8999 51.7418 89.8999 52.5756 89.8224 53.4039C89.8224 53.4252 89.8224 53.4496 89.8224 53.4709C89.6443 55.7764 89.0073 58.0234 87.9485 60.0805C85.5038 64.7569 95.2549 65.3201 95.2549 65.3201Z" fill="#FDC2CC"/>
<path opacity="0.1" d="M90.6613 52.1039C91.7753 53.1847 92.4559 55.1484 94.1314 55.1484C95.3437 55.1511 96.5297 54.7962 97.5404 54.1285C97.5404 53.4952 97.6015 52.8011 97.693 52.0369C98.8192 42.6811 89.8159 50.9135 89.8159 50.9135C89.8159 50.9135 90.7803 50.5816 90.6613 52.1039Z" fill="black"/>
<path d="M94.1318 54.8439C97.5501 54.8439 100.321 52.0796 100.321 48.6696C100.321 45.2597 97.5501 42.4954 94.1318 42.4954C90.7135 42.4954 87.9424 45.2597 87.9424 48.6696C87.9424 52.0796 90.7135 54.8439 94.1318 54.8439Z" fill="#FDC2CC"/>
<path opacity="0.1" d="M100.068 40.7631C99.7129 40.3156 99.3027 39.9146 98.847 39.5696C98.1329 38.976 97.3394 38.3518 96.4512 38.4066C95.9487 38.4733 95.466 38.6456 95.0351 38.912C92.8225 40.075 90.9882 38.976 88.4154 42.4345C87.8661 43.1743 86.7643 43.3479 86.1966 44.1242C85.629 44.9006 85.4001 45.9205 85.2383 46.913C85.1046 47.5844 85.0727 48.272 85.1437 48.9528C85.2115 49.6211 85.5405 50.2358 86.0593 50.6639C86.6514 51.0931 87.4663 51.0962 87.9637 51.6594C88.2139 52.0263 88.4188 52.4219 88.5741 52.8376C88.7756 53.2334 89.1296 53.6079 89.5324 53.5501C89.9353 53.4922 90.1764 53.0568 90.2344 52.6367C90.2596 52.2019 90.234 51.7656 90.1581 51.3367C90.0818 50.5664 90.1795 49.7261 90.6342 49.1446C90.9394 48.7458 91.3972 48.5083 91.6993 48.1034C92.4257 47.1261 92.0961 45.4851 92.8927 44.5779C93.1256 44.3392 93.4178 44.1665 93.7395 44.0772C94.0611 43.9879 94.4008 43.9852 94.7238 44.0694C95.3654 44.2521 95.9808 44.5161 96.555 44.8549C97.3562 45.2584 98.1955 45.5817 99.0607 45.82C99.787 46.0179 100.629 46.4929 100.877 45.5156C101.264 44.0786 100.901 41.9109 100.068 40.7631Z" fill="black"/>
<path d="M100.068 40.4586C99.7129 40.0111 99.3027 39.6101 98.847 39.2652C98.1329 38.6715 97.3394 38.0474 96.4512 38.1022C95.9487 38.1689 95.466 38.3411 95.0351 38.6076C92.8225 39.7706 90.9882 38.6715 88.4154 42.1301C87.8661 42.8699 86.7643 43.0434 86.1966 43.8198C85.629 44.5961 85.4001 45.6161 85.2383 46.6086C85.1046 47.28 85.0727 47.9676 85.1437 48.6484C85.2115 49.3166 85.5405 49.9313 86.0593 50.3594C86.6514 50.7887 87.4663 50.7917 87.9637 51.355C88.2139 51.7218 88.4188 52.1174 88.5741 52.5332C88.7756 52.929 89.1296 53.3035 89.5324 53.2456C89.9353 53.1878 90.1764 52.7524 90.2344 52.3323C90.2596 51.8974 90.234 51.4612 90.1581 51.0323C90.0818 50.262 90.1795 49.4217 90.6342 48.8402C90.9394 48.4414 91.3972 48.2039 91.6993 47.799C92.4257 46.8217 92.0961 45.1807 92.8927 44.2734C93.1256 44.0348 93.4178 43.862 93.7395 43.7727C94.0611 43.6834 94.4008 43.6807 94.7238 43.765C95.3654 43.9477 95.9808 44.2116 96.555 44.5505C97.3562 44.9539 98.1955 45.2772 99.0607 45.5156C99.787 45.7135 100.629 46.1884 100.877 45.2111C101.264 43.7741 100.901 41.6064 100.068 40.4586Z" fill="#865A61"/>
<path opacity="0.1" d="M87.9423 68.5686L87.8202 73.242C89.5938 73.7228 91.4238 73.9655 93.2618 73.9635C93.567 73.9635 93.8875 73.9635 94.1988 73.9422C95.8287 73.8722 97.4444 73.6085 99.0117 73.1567H99.0422C99.3322 73.0715 99.6191 72.9832 99.9029 72.8858H99.9334L100.193 72.7944C101.181 72.4474 102.14 72.0239 103.062 71.5279L103.12 71.4975C103.22 71.4427 103.321 71.3879 103.425 71.33L102.952 65.0309L103.706 60.7107L99.5794 57.9067C99.3478 58.2404 99.0884 58.5541 98.8042 58.8445C98.3968 59.2688 97.92 59.621 97.3942 59.8857C94.4338 61.341 91.0644 59.0271 89.3889 57.5962L89.0074 57.2583C88.574 56.8655 88.3268 56.5976 88.3268 56.5976L86.2637 59.7761L87.9423 68.5686Z" fill="black"/>
<path d="M87.9423 68.8731L87.8202 73.5464C89.5938 74.0273 91.4238 74.2699 93.2618 74.268C93.567 74.268 93.8875 74.268 94.1988 74.2467C95.8287 74.1766 97.4444 73.9129 99.0117 73.4612H99.0422C99.3322 73.3759 99.6191 73.2876 99.9029 73.1902H99.9334L100.193 73.0989C101.181 72.7518 102.14 72.3284 103.062 71.8324L103.12 71.8019C103.22 71.7471 103.321 71.6923 103.425 71.6345L102.952 65.3354L103.706 61.0152L99.5794 58.2112C99.3478 58.5448 99.0884 58.8585 98.8042 59.1489C98.3968 59.5733 97.92 59.9254 97.3942 60.1901C94.4338 61.6454 91.0644 59.3316 89.3889 57.9006L89.0074 57.5627C88.574 57.17 88.3268 56.902 88.3268 56.902L86.2637 60.0805L87.9423 68.8731Z" fill="#53526B"/>
<path d="M99.3808 69.2476C99.3808 69.2476 99.6067 71.0408 99.9027 73.1841H99.9333L100.193 73.0928C101.181 72.7457 102.14 72.3223 103.062 71.8263L103.119 71.7958C103.22 71.741 103.321 71.6862 103.425 71.6284C104.778 70.8708 106.041 69.964 107.191 68.9248L107.292 68.8305C107.922 68.261 108.514 67.6508 109.065 67.0038L109.129 66.9276C108.039 63.1555 105.772 61.9681 105.772 61.9681C105.772 61.9681 103.709 61.0304 103.144 59.7213C102.579 58.4121 97.5955 55.6447 97.5955 55.6447V55.666C97.5955 55.9004 97.5161 58.0468 97.3971 60.2053C97.3208 61.6089 97.2262 63.0185 97.1163 63.9136C97.0925 64.2043 97.0393 64.492 96.9576 64.7721C96.57 65.6946 99.3808 69.2476 99.3808 69.2476Z" fill="#555388"/>
</g>
<circle cx="341" cy="61" r="48.5" fill="white" stroke="#3F3D56"/>
<rect x="320" y="52" width="46" height="13" rx="6.5" fill="#3F3D56"/>
<circle cx="361" cy="59" r="2" fill="#DE308D"/>
<circle cx="355" cy="59" r="2" fill="#F2F2F2"/>
<circle cx="349" cy="59" r="2" fill="#E6E6E6"/>
<path d="M222.699 107.083C210.715 107.083 201 97.3496 201 85.3428C201 73.336 210.715 63.6025 222.699 63.6025C234.682 63.6025 244.397 73.336 244.397 85.3428C244.397 97.3496 234.682 107.083 222.699 107.083Z" fill="#F2F2F2"/>
<path d="M222.699 91.0639C219.545 91.0639 216.988 88.5025 216.988 85.3428C216.988 82.1831 219.545 79.6216 222.699 79.6216C225.852 79.6216 228.409 82.1831 228.409 85.3428C228.409 88.5025 225.852 91.0639 222.699 91.0639Z" fill="#E6E6E6"/>
<path d="M222.749 85.2807C221.499 86.3001 221.119 87.9068 221.351 89.4582C221.637 91.1598 222.519 92.7038 223.84 93.8132C225.326 95.1339 227.138 96.0264 228.886 96.9402C230.493 97.7603 232.037 98.6978 233.505 99.7449C239.129 103.833 243.377 109.654 245.808 116.149C248.235 122.634 248.886 129.994 247.042 136.715C246.13 140.04 244.284 143.628 240.844 144.879C238.103 145.876 234.36 145.234 232.964 142.408C231.465 139.372 233.557 135.959 236.252 134.452C239.745 132.499 243.917 133.926 247.059 135.904C250.518 138.081 253.298 141.205 256.909 143.156C258.535 144.062 260.344 144.59 262.201 144.7C263.907 144.767 265.61 144.504 267.216 143.925C270.548 142.711 273.417 140.484 275.419 137.556C277.713 134.221 278.74 130.133 278.927 126.128C279.346 117.167 275.807 108.785 272.968 100.475C271.442 96.1476 270.299 91.6947 269.552 87.1674C268.841 82.6172 268.588 78.0072 268.797 73.4066C268.985 69.3385 269.386 65.0845 271.181 61.3691C272.759 58.1021 275.644 55.4282 279.291 54.754C280.935 54.4313 282.638 54.627 284.166 55.3142C284.687 55.5516 284.235 56.3188 283.717 56.0826C280.49 54.6099 276.675 56.0429 274.291 58.4207C271.508 61.1975 270.485 65.2981 270.031 69.0817C269.011 78.0487 269.815 87.1294 272.395 95.7777C274.87 104.188 278.764 112.248 279.662 121.059C280.072 125.08 279.861 129.237 278.576 133.093C277.474 136.527 275.407 139.572 272.622 141.863C270 143.984 266.774 145.428 263.378 145.589C259.566 145.77 256.223 144.07 253.265 141.809C250.097 139.387 247.183 136.398 243.346 135.04C241.596 134.421 239.604 134.132 237.808 134.728C236.267 135.255 234.96 136.306 234.115 137.698C233.335 138.996 233.047 140.618 233.759 142.012C234.428 143.322 235.735 144.08 237.149 144.34C238.647 144.605 240.19 144.342 241.516 143.597C243.065 142.712 244.199 141.227 244.993 139.658C246.577 136.528 247.109 132.803 247.189 129.33C247.26 125.937 246.825 122.552 245.9 119.287C244.058 112.683 240.34 106.755 235.197 102.222C233.901 101.093 232.515 100.072 231.053 99.1694C229.457 98.1857 227.754 97.3998 226.128 96.4716C224.527 95.5583 222.95 94.4671 221.848 92.9642C220.908 91.6762 220.401 90.1236 220.398 88.5292C220.382 87.7959 220.527 87.0679 220.825 86.3975C221.122 85.7271 221.564 85.1309 222.119 84.6515C222.56 84.2924 223.193 84.9184 222.749 85.2807V85.2807Z" fill="#CCCCCC"/>
<path d="M295.571 42.1316C296 42.0687 296.434 42.0286 296.868 42C291.936 53.3867 291.595 66.2436 295.914 77.8771C295.48 77.8256 295.052 77.757 294.624 77.6769C290.442 76.8651 286.683 74.5928 284.017 71.2645C281.351 67.9362 279.95 63.768 280.064 59.5018C280.177 55.2355 281.798 51.1482 284.638 47.9673C287.478 44.7865 291.352 42.7185 295.571 42.1316Z" fill="#3F3D56"/>
<defs>
<linearGradient id="paint0_linear" x1="156.956" y1="241.917" x2="156.956" y2="11.9619" gradientUnits="userSpaceOnUse">
<stop stop-color="#808080" stop-opacity="0.25"/>
<stop offset="0.54" stop-color="#808080" stop-opacity="0.12"/>
<stop offset="1" stop-color="#808080" stop-opacity="0.1"/>
</linearGradient>
<linearGradient id="paint1_linear" x1="11415.3" y1="18860.8" x2="11415.3" y2="14401.8" gradientUnits="userSpaceOnUse">
<stop stop-color="#808080" stop-opacity="0.25"/>
<stop offset="0.54" stop-color="#808080" stop-opacity="0.12"/>
<stop offset="1" stop-color="#808080" stop-opacity="0.1"/>
</linearGradient>
<linearGradient id="paint2_linear" x1="82754.7" y1="88814.1" x2="82754.7" y2="8538.96" gradientUnits="userSpaceOnUse">
<stop stop-color="#808080" stop-opacity="0.25"/>
<stop offset="0.54" stop-color="#808080" stop-opacity="0.12"/>
<stop offset="1" stop-color="#808080" stop-opacity="0.1"/>
</linearGradient>
<clipPath id="clip0">
<rect width="339.869" height="257" fill="white"/>
</clipPath>
</defs>
</svg>
