<svg width="387" height="257" viewBox="0 0 387 257" fill="none" xmlns="http://www.w3.org/2000/svg">
<path d="M47.2836 226.385C47.2836 234.838 42.2493 237.79 36.0396 237.79C35.8951 237.79 35.7513 237.789 35.6083 237.785C35.3207 237.779 35.0354 237.766 34.7541 237.746C29.1493 237.35 24.7949 234.246 24.7949 226.385C24.7949 218.25 35.2074 207.984 35.9927 207.222L35.9943 207.221C36.024 207.192 36.0396 207.177 36.0396 207.177C36.0396 207.177 47.2836 217.931 47.2836 226.385Z" fill="#3F3D56"/>
<path d="M35.6292 236.497L39.7421 230.761L35.619 237.126L35.6081 237.785C35.3205 237.779 35.0353 237.766 34.7539 237.746L35.197 229.288L35.1939 229.223L35.2017 229.21L35.2431 228.412L31.1099 222.029L35.2556 227.812L35.2658 227.982L35.601 221.592L32.0625 214.998L35.644 220.469L35.9926 207.222L35.9941 207.177V207.221L35.9363 217.668L39.4584 213.526L35.9214 218.567L35.8285 224.289L39.1177 218.798L35.8144 225.131L35.7628 228.312L40.5376 220.669L35.7448 229.422L35.6292 236.497Z" fill="#F2F2F2"/>
<path d="M190.142 177.504C187.138 166.618 170.457 158.595 157.442 156.524V151.295C157.682 151.205 157.922 151.113 158.16 151.018C158.091 149.973 157.881 148.942 157.534 147.954C163.094 145.698 167.895 141.907 171.375 137.026C175.038 133.2 177.798 128.604 179.454 123.577C181.11 118.549 181.62 113.215 180.946 107.965C180.273 102.715 178.433 97.682 175.561 93.233C172.689 88.7839 168.858 85.0316 164.347 82.2501C165.584 81.4714 166.545 80.3247 167.094 78.9716C167.644 77.6186 167.754 76.1275 167.409 74.7087C167.064 73.29 166.281 72.0151 165.172 71.0641C164.062 70.113 162.681 69.5337 161.224 69.4078C162.414 66.6038 162.627 63.4825 161.829 60.5434C161.032 57.6042 159.269 55.0171 156.825 53.1959C154.38 51.3748 151.394 50.4249 148.344 50.4981C145.295 50.5714 142.358 51.6637 140.004 53.6002C142.081 52.4971 144.408 51.9495 146.759 52.0107C149.111 52.0718 151.407 52.7395 153.423 53.949C155.439 55.1584 157.108 56.8683 158.266 58.9122C159.424 60.9562 160.032 63.2646 160.032 65.6129C160.032 65.7323 160.024 65.8499 160.021 65.9686C159.962 63.999 159.474 62.0659 158.593 60.3028C157.711 58.5398 156.456 56.989 154.915 55.7576C153.374 54.5263 151.584 53.6438 149.667 53.1712C147.751 52.6987 145.755 52.6473 143.817 53.0207C141.878 53.394 140.045 54.1832 138.442 55.3337C136.84 56.4841 135.506 57.9683 134.535 59.6837C133.564 61.399 132.977 63.3045 132.816 65.2684C132.655 67.2323 132.923 69.2078 133.602 71.058C132.561 71.2827 131.587 71.7478 130.758 72.4161C129.93 73.0843 129.27 73.9371 128.831 74.906C128.393 75.875 128.188 76.933 128.233 77.9953C128.278 79.0576 128.572 80.0945 129.091 81.0229C124.159 83.6099 119.904 87.3164 116.669 91.8443C113.434 96.3723 111.308 101.595 110.464 107.093C109.62 112.59 110.08 118.209 111.807 123.496C113.535 128.784 116.482 133.592 120.411 137.536C123.721 141.988 128.149 145.491 133.248 147.691V156.407C120.095 158.283 102.773 166.455 99.7469 177.609C97.1093 187.329 94.2939 198.004 92.8931 204.272C104.9 212.694 130.095 217.639 145.885 217.639C160.887 217.639 185.407 213.176 197.061 205.507C195.799 198.62 192.895 187.477 190.142 177.504ZM166.09 76.9519C166.09 77.0757 166.084 77.1984 166.078 77.3206C165.99 75.7835 165.382 74.3217 164.354 73.1739C163.326 72.0262 161.939 71.2604 160.418 71.0017C160.55 70.7786 160.676 70.5516 160.796 70.3208C162.3 70.6648 163.642 71.508 164.604 72.7125C165.565 73.9171 166.089 75.4116 166.09 76.9519Z" fill="url(#paint0_linear)"/>
<path d="M145.859 215.259C160.434 215.259 184.256 210.922 195.577 203.472C194.351 196.782 191.53 185.955 188.856 176.267C185.45 163.928 163.958 155.373 151.137 155.373H138.782C125.921 155.373 104.398 163.977 101.035 176.369C98.4727 185.812 95.7374 196.183 94.3765 202.272C106.042 210.454 130.519 215.259 145.859 215.259Z" fill="#7A06C0"/>
<path d="M145.624 147.612C164.721 147.612 180.202 132.159 180.202 113.096C180.202 94.0324 164.721 78.5787 145.624 78.5787C126.528 78.5787 111.047 94.0324 111.047 113.096C111.047 132.159 126.528 147.612 145.624 147.612Z" fill="black"/>
<path d="M136.289 137.088H154.38C155.098 137.088 155.786 137.373 156.294 137.879C156.802 138.386 157.087 139.073 157.087 139.79V158.255C157.087 159.712 156.799 161.155 156.241 162.501C155.682 163.847 154.864 165.07 153.832 166.101C152.8 167.131 151.574 167.948 150.226 168.506C148.878 169.063 147.432 169.35 145.973 169.35H144.697C143.237 169.35 141.792 169.063 140.443 168.506C139.095 167.948 137.87 167.131 136.838 166.101C135.806 165.07 134.987 163.847 134.429 162.501C133.87 161.155 133.583 159.712 133.583 158.255V139.79C133.583 139.435 133.653 139.084 133.789 138.756C133.925 138.428 134.124 138.13 134.375 137.879C134.627 137.629 134.925 137.429 135.253 137.294C135.582 137.158 135.934 137.088 136.289 137.088Z" fill="#FDA57D"/>
<path opacity="0.05" d="M146.42 152.721C150.313 152.723 154.171 151.981 157.784 150.535C157.599 147.687 156.335 145.015 154.249 143.062C152.163 141.109 149.41 140.022 146.551 140.021H145.587C142.775 140.022 140.065 141.072 137.989 142.966C135.913 144.86 134.621 147.46 134.368 150.256C138.176 151.887 142.277 152.726 146.42 152.721Z" fill="black"/>
<path d="M145.686 149.788C162.58 149.788 176.276 136.116 176.276 119.251C176.276 102.386 162.58 88.7145 145.686 88.7145C128.791 88.7145 115.096 102.386 115.096 119.251C115.096 136.116 128.791 149.788 145.686 149.788Z" fill="#FDA57D"/>
<path d="M135.325 85.9227C138.982 85.9227 141.946 82.9635 141.946 79.3131C141.946 75.6627 138.982 72.7035 135.325 72.7035C131.668 72.7035 128.704 75.6627 128.704 79.3131C128.704 82.9635 131.668 85.9227 135.325 85.9227Z" fill="black"/>
<path d="M158.867 85.9227C162.524 85.9227 165.488 82.9635 165.488 79.3131C165.488 75.6627 162.524 72.7035 158.867 72.7035C155.21 72.7035 152.246 75.6627 152.246 79.3131C152.246 82.9635 155.21 85.9227 158.867 85.9227Z" fill="black"/>
<path d="M146.36 81.5163C153.674 81.5163 159.602 75.5979 159.602 68.2971C159.602 60.9963 153.674 55.0779 146.36 55.0779C139.046 55.0779 133.118 60.9963 133.118 68.2971C133.118 75.5979 139.046 81.5163 146.36 81.5163Z" fill="black"/>
<path d="M160.338 71.2347C159.022 71.2327 157.735 71.6244 156.643 72.3593C158.162 71.8175 159.827 71.8482 161.325 72.4456C162.823 73.043 164.051 74.166 164.778 75.6035C165.505 77.041 165.681 78.6941 165.273 80.252C164.865 81.8099 163.901 83.1654 162.562 84.0637C164.031 83.5413 165.269 82.5173 166.056 81.1726C166.843 79.8279 167.128 78.2488 166.862 76.7143C166.596 75.1798 165.796 73.7884 164.602 72.7858C163.408 71.7832 161.898 71.2338 160.338 71.2347Z" fill="black"/>
<path d="M148.567 52.8747C145.494 52.8701 142.515 53.9374 140.146 55.8922C143.044 54.3541 146.411 53.9454 149.594 54.7452C152.777 55.5451 155.549 57.4966 157.372 60.2211C159.195 62.9457 159.94 66.2491 159.461 69.4907C158.983 72.7322 157.315 75.6808 154.782 77.7645C157.391 76.3804 159.462 74.1649 160.664 71.4705C161.866 68.7761 162.131 65.7577 161.417 62.8957C160.702 60.0336 159.049 57.4924 156.72 55.6765C154.392 53.8606 151.522 52.8744 148.567 52.8747Z" fill="black"/>
<path d="M123.554 91.7979C123.554 91.7979 127.233 116.033 173.581 102.814L150.774 82.9851L123.554 91.7979Z" fill="black"/>
<path d="M45.7419 230.589H26.6977C23.1562 230.589 20.2852 233.455 20.2852 236.99V237.725C20.2852 241.261 23.1562 244.127 26.6977 244.127H45.7419C49.2835 244.127 52.1545 241.261 52.1545 237.725V236.99C52.1545 233.455 49.2835 230.589 45.7419 230.589Z" fill="#7A06C0"/>
<g opacity="0.7">
<path opacity="0.7" d="M266.927 221.941V217.063H242.494V239.624C242.494 240.886 242.996 242.096 243.89 242.987C244.783 243.879 245.995 244.381 247.259 244.381H262.163C263.427 244.381 264.638 243.879 265.532 242.987C266.425 242.096 266.927 240.886 266.927 239.624V234.624C268.612 234.624 270.228 233.956 271.419 232.767C272.611 231.578 273.28 229.965 273.28 228.283C273.28 226.601 272.611 224.988 271.419 223.799C270.228 222.609 268.612 221.941 266.927 221.941ZM266.927 232.185V224.38C267.963 224.381 268.957 224.793 269.689 225.525C270.421 226.256 270.832 227.248 270.832 228.283C270.832 229.317 270.421 230.309 269.689 231.041C268.957 231.772 267.963 232.184 266.927 232.185Z" fill="url(#paint1_linear)"/>
</g>
<path d="M266.141 222.705C264.994 222.705 263.872 223.044 262.919 223.681C261.965 224.317 261.221 225.221 260.782 226.279C260.343 227.337 260.228 228.501 260.452 229.624C260.676 230.748 261.228 231.779 262.04 232.589C262.851 233.399 263.884 233.95 265.009 234.174C266.135 234.397 267.301 234.282 268.361 233.844C269.421 233.406 270.326 232.664 270.964 231.712C271.601 230.759 271.941 229.64 271.941 228.495C271.941 227.734 271.791 226.982 271.5 226.279C271.208 225.577 270.781 224.938 270.242 224.401C269.704 223.863 269.064 223.436 268.361 223.145C267.657 222.854 266.903 222.705 266.141 222.705ZM266.141 232.058C265.435 232.058 264.745 231.849 264.158 231.457C263.571 231.066 263.114 230.509 262.843 229.858C262.573 229.207 262.503 228.491 262.64 227.8C262.778 227.109 263.118 226.474 263.617 225.975C264.116 225.477 264.752 225.138 265.445 225C266.137 224.863 266.855 224.933 267.507 225.203C268.159 225.473 268.717 225.929 269.109 226.515C269.501 227.101 269.71 227.79 269.71 228.495C269.71 229.44 269.334 230.346 268.665 231.014C267.996 231.683 267.088 232.058 266.141 232.058Z" fill="#7A06C0"/>
<path opacity="0.1" d="M266.141 222.705C264.994 222.705 263.872 223.044 262.919 223.681C261.965 224.317 261.221 225.221 260.782 226.279C260.343 227.337 260.228 228.501 260.452 229.624C260.676 230.748 261.228 231.779 262.04 232.589C262.851 233.399 263.884 233.95 265.009 234.174C266.135 234.397 267.301 234.282 268.361 233.844C269.421 233.406 270.326 232.664 270.964 231.712C271.601 230.759 271.941 229.64 271.941 228.495C271.941 227.734 271.791 226.982 271.5 226.279C271.208 225.577 270.781 224.938 270.242 224.401C269.704 223.863 269.064 223.436 268.361 223.145C267.657 222.854 266.903 222.705 266.141 222.705ZM266.141 232.058C265.435 232.058 264.745 231.849 264.158 231.457C263.571 231.066 263.114 230.509 262.843 229.858C262.573 229.207 262.503 228.491 262.64 227.8C262.778 227.109 263.118 226.474 263.617 225.975C264.116 225.477 264.752 225.138 265.445 225C266.137 224.863 266.855 224.933 267.507 225.203C268.159 225.473 268.717 225.929 269.109 226.515C269.501 227.101 269.71 227.79 269.71 228.495C269.71 229.44 269.334 230.346 268.665 231.014C267.996 231.683 267.088 232.058 266.141 232.058Z" fill="black"/>
<path d="M243.833 218.251H266.141V238.827C266.141 239.985 265.68 241.096 264.86 241.914C264.04 242.733 262.928 243.193 261.768 243.193H248.206C247.046 243.193 245.933 242.733 245.113 241.914C244.293 241.096 243.833 239.985 243.833 238.827V218.251Z" fill="#7A06C0"/>
<path d="M289.565 243.193H0V252.991H289.565V243.193Z" fill="#E0E0E0"/>
<g opacity="0.7">
<path opacity="0.7" d="M199.851 172.405H89.7144C86.1227 172.405 83.2109 175.312 83.2109 178.897V236.701C83.2109 240.286 86.1227 243.193 89.7144 243.193H199.851C203.443 243.193 206.354 240.286 206.354 236.701V178.897C206.354 175.312 203.443 172.405 199.851 172.405Z" fill="url(#paint2_linear)"/>
</g>
<path d="M192.088 173.711H97.4779C90.8306 173.711 85.4419 179.091 85.4419 185.726V231.178C85.4419 237.813 90.8306 243.193 97.4779 243.193H192.088C198.735 243.193 204.123 237.813 204.123 231.178V185.726C204.123 179.091 198.735 173.711 192.088 173.711Z" fill="#535461"/>
<path d="M144.783 212.461C147 212.461 148.798 210.666 148.798 208.452C148.798 206.238 147 204.443 144.783 204.443C142.565 204.443 140.767 206.238 140.767 208.452C140.767 210.666 142.565 212.461 144.783 212.461Z" fill="white"/>
<path d="M277.295 252.991H12.2695V257H277.295V252.991Z" fill="#E0E0E0"/>
<path opacity="0.1" d="M277.295 252.991H12.2695V254.328H277.295V252.991Z" fill="black"/>
<path opacity="0.1" d="M262.126 218.251V238.85C262.126 240.002 261.667 241.106 260.851 241.921C260.036 242.735 258.929 243.193 257.775 243.193H260.006C261.16 243.193 262.266 242.735 263.082 241.921C263.898 241.106 264.356 240.002 264.356 238.85V218.251H262.126Z" fill="black"/>
<path d="M248.235 201.648C248.044 201.654 247.857 201.702 247.687 201.788C247.516 201.874 247.367 201.997 247.25 202.147C246.957 202.677 247.487 203.274 247.971 203.638C248.865 204.31 249.808 204.97 250.415 205.909C251.023 206.847 251.214 208.156 250.55 209.056C249.682 210.23 247.613 210.482 247.413 211.928C247.284 212.855 248.087 213.647 248.902 214.113C250.911 215.262 253.502 215.568 254.957 217.366C255.559 216.13 256.906 215.416 258.248 215.111C259.591 214.806 260.986 214.828 262.347 214.621C262.569 214.617 262.787 214.561 262.984 214.457C263.18 214.353 263.349 214.204 263.478 214.023C263.858 213.252 262.774 212.327 263.148 211.553C263.433 210.965 264.27 211.01 264.881 210.774C265.876 210.39 266.286 209.112 266.004 208.085C265.721 207.058 264.923 206.256 264.085 205.598C261.824 203.824 259.106 202.781 256.356 202.031C255.078 201.682 253.577 201.135 252.248 201.082C250.966 201.031 249.504 201.431 248.235 201.648Z" fill="#EEEEEE"/>
<path opacity="0.1" d="M387 0H192.13V133.277H387V0Z" fill="#535461"/>
<g opacity="0.5">
<path opacity="0.5" d="M253.753 13.1257H211.917C210.802 13.1257 209.898 14.0278 209.898 15.1405V53.3602C209.898 54.473 210.802 55.375 211.917 55.375H253.753C254.867 55.375 255.771 54.473 255.771 53.3602V15.1405C255.771 14.0278 254.867 13.1257 253.753 13.1257Z" fill="url(#paint3_linear)"/>
</g>
<path d="M253.254 13.4533H212.477C211.362 13.4533 210.458 14.3554 210.458 15.4681V52.6632C210.458 53.776 211.362 54.678 212.477 54.678H253.254C254.369 54.678 255.273 53.776 255.273 52.6632V15.4681C255.273 14.3554 254.369 13.4533 253.254 13.4533Z" fill="#F5F5F5"/>
<path d="M219.451 20.2433H215.93C214.816 20.2433 213.912 21.1454 213.912 22.2582V25.0186C213.912 26.1314 214.816 27.0334 215.93 27.0334H219.451C220.566 27.0334 221.47 26.1314 221.47 25.0186V22.2582C221.47 21.1454 220.566 20.2433 219.451 20.2433Z" fill="#7A06C0"/>
<path d="M253.424 20.2433H224.094C223.897 20.2433 223.737 20.4031 223.737 20.6001V20.6411C223.737 20.8381 223.897 20.9978 224.094 20.9978H253.424C253.621 20.9978 253.781 20.8381 253.781 20.6411V20.6001C253.781 20.4031 253.621 20.2433 253.424 20.2433Z" fill="#E0E0E0"/>
<path d="M253.424 22.5067H224.094C223.897 22.5067 223.737 22.6664 223.737 22.8635V22.9044C223.737 23.1014 223.897 23.2612 224.094 23.2612H253.424C253.621 23.2612 253.781 23.1014 253.781 22.9044V22.8635C253.781 22.6664 253.621 22.5067 253.424 22.5067Z" fill="#E0E0E0"/>
<path d="M253.424 30.7219H213.514C213.316 30.7219 213.156 30.8816 213.156 31.0786V31.1196C213.156 31.3166 213.316 31.4763 213.514 31.4763H253.424C253.621 31.4763 253.781 31.3166 253.781 31.1196V31.0786C253.781 30.8816 253.621 30.7219 253.424 30.7219Z" fill="#E0E0E0"/>
<path d="M253.424 32.9852H213.514C213.316 32.9852 213.156 33.1449 213.156 33.3419V33.3829C213.156 33.5799 213.316 33.7396 213.514 33.7396H253.424C253.621 33.7396 253.781 33.5799 253.781 33.3829V33.3419C253.781 33.1449 253.621 32.9852 253.424 32.9852Z" fill="#E0E0E0"/>
<path d="M253.424 36.0031H213.514C213.316 36.0031 213.156 36.1628 213.156 36.3598V36.4008C213.156 36.5978 213.316 36.7575 213.514 36.7575H253.424C253.621 36.7575 253.781 36.5978 253.781 36.4008V36.3598C253.781 36.1628 253.621 36.0031 253.424 36.0031Z" fill="#E0E0E0"/>
<path d="M236.228 38.2664H213.514C213.316 38.2664 213.156 38.4261 213.156 38.6231V38.6641C213.156 38.8611 213.316 39.0208 213.514 39.0208H236.228C236.425 39.0208 236.585 38.8611 236.585 38.6641V38.6231C236.585 38.4261 236.425 38.2664 236.228 38.2664Z" fill="#E0E0E0"/>
<path d="M253.424 41.2769H213.514C213.316 41.2769 213.156 41.4366 213.156 41.6336V41.6746C213.156 41.8716 213.316 42.0313 213.514 42.0313H253.424C253.621 42.0313 253.781 41.8716 253.781 41.6746V41.6336C253.781 41.4366 253.621 41.2769 253.424 41.2769Z" fill="#E0E0E0"/>
<path d="M253.424 43.5402H213.514C213.316 43.5402 213.156 43.6999 213.156 43.897V43.9379C213.156 44.135 213.316 44.2947 213.514 44.2947H253.424C253.621 44.2947 253.781 44.135 253.781 43.9379V43.897C253.781 43.6999 253.621 43.5402 253.424 43.5402Z" fill="#E0E0E0"/>
<path d="M253.424 46.558H213.514C213.316 46.558 213.156 46.7178 213.156 46.9148V46.9557C213.156 47.1528 213.316 47.3125 213.514 47.3125H253.424C253.621 47.3125 253.781 47.1528 253.781 46.9557V46.9148C253.781 46.7178 253.621 46.558 253.424 46.558Z" fill="#E0E0E0"/>
<path d="M236.228 48.8214H213.514C213.316 48.8214 213.156 48.9811 213.156 49.1781V49.2191C213.156 49.4161 213.316 49.5758 213.514 49.5758H236.228C236.425 49.5758 236.585 49.4161 236.585 49.2191V49.1781C236.585 48.9811 236.425 48.8214 236.228 48.8214Z" fill="#E0E0E0"/>
<g opacity="0.5">
<path opacity="0.5" d="M260.675 22.8889H218.84C217.725 22.8889 216.821 23.7909 216.821 24.9037V63.1233C216.821 64.2361 217.725 65.1381 218.84 65.1381H260.675C261.79 65.1381 262.694 64.2361 262.694 63.1233V24.9037C262.694 23.7909 261.79 22.8889 260.675 22.8889Z" fill="url(#paint4_linear)"/>
</g>
<path d="M260.177 23.2164H219.4C218.285 23.2164 217.381 24.1185 217.381 25.2312V62.4263C217.381 63.5391 218.285 64.4411 219.4 64.4411H260.177C261.292 64.4411 262.196 63.5391 262.196 62.4263V25.2312C262.196 24.1185 261.292 23.2164 260.177 23.2164Z" fill="white"/>
<path d="M226.374 30.0065H222.853C221.739 30.0065 220.835 30.9085 220.835 32.0213V34.7817C220.835 35.8945 221.739 36.7965 222.853 36.7965H226.374C227.489 36.7965 228.393 35.8945 228.393 34.7817V32.0213C228.393 30.9085 227.489 30.0065 226.374 30.0065Z" fill="#7A06C0"/>
<path d="M260.347 30.0065H231.018C230.82 30.0065 230.66 30.1662 230.66 30.3632V30.4042C230.66 30.6012 230.82 30.7609 231.018 30.7609H260.347C260.544 30.7609 260.704 30.6012 260.704 30.4042V30.3632C260.704 30.1662 260.544 30.0065 260.347 30.0065Z" fill="#E0E0E0"/>
<path d="M260.347 32.2698H231.018C230.82 32.2698 230.66 32.4296 230.66 32.6266V32.6675C230.66 32.8646 230.82 33.0243 231.018 33.0243H260.347C260.544 33.0243 260.704 32.8646 260.704 32.6675V32.6266C260.704 32.4296 260.544 32.2698 260.347 32.2698Z" fill="#E0E0E0"/>
<path d="M260.347 40.485H220.436C220.239 40.485 220.079 40.6447 220.079 40.8417V40.8827C220.079 41.0797 220.239 41.2394 220.436 41.2394H260.347C260.544 41.2394 260.704 41.0797 260.704 40.8827V40.8417C260.704 40.6447 260.544 40.485 260.347 40.485Z" fill="#E0E0E0"/>
<path d="M260.347 42.7483H220.436C220.239 42.7483 220.079 42.908 220.079 43.105V43.146C220.079 43.343 220.239 43.5027 220.436 43.5027H260.347C260.544 43.5027 260.704 43.343 260.704 43.146V43.105C260.704 42.908 260.544 42.7483 260.347 42.7483Z" fill="#E0E0E0"/>
<path d="M260.347 45.7661H220.436C220.239 45.7661 220.079 45.9258 220.079 46.1229V46.1638C220.079 46.3608 220.239 46.5206 220.436 46.5206H260.347C260.544 46.5206 260.704 46.3608 260.704 46.1638V46.1229C260.704 45.9258 260.544 45.7661 260.347 45.7661Z" fill="#E0E0E0"/>
<path d="M243.151 48.0295H220.436C220.239 48.0295 220.079 48.1892 220.079 48.3862V48.4272C220.079 48.6242 220.239 48.7839 220.436 48.7839H243.151C243.348 48.7839 243.508 48.6242 243.508 48.4272V48.3862C243.508 48.1892 243.348 48.0295 243.151 48.0295Z" fill="#E0E0E0"/>
<path d="M260.347 51.04H220.436C220.239 51.04 220.079 51.1997 220.079 51.3967V51.4377C220.079 51.6347 220.239 51.7944 220.436 51.7944H260.347C260.544 51.7944 260.704 51.6347 260.704 51.4377V51.3967C260.704 51.1997 260.544 51.04 260.347 51.04Z" fill="#E0E0E0"/>
<path d="M260.347 53.3033H220.436C220.239 53.3033 220.079 53.4631 220.079 53.6601V53.7011C220.079 53.8981 220.239 54.0578 220.436 54.0578H260.347C260.544 54.0578 260.704 53.8981 260.704 53.7011V53.6601C260.704 53.4631 260.544 53.3033 260.347 53.3033Z" fill="#E0E0E0"/>
<path d="M260.347 56.3211H220.436C220.239 56.3211 220.079 56.4808 220.079 56.6779V56.7188C220.079 56.9158 220.239 57.0756 220.436 57.0756H260.347C260.544 57.0756 260.704 56.9158 260.704 56.7188V56.6779C260.704 56.4808 260.544 56.3211 260.347 56.3211Z" fill="#E0E0E0"/>
<path d="M243.151 58.5845H220.436C220.239 58.5845 220.079 58.7442 220.079 58.9412V58.9822C220.079 59.1792 220.239 59.3389 220.436 59.3389H243.151C243.348 59.3389 243.508 59.1792 243.508 58.9822V58.9412C243.508 58.7442 243.348 58.5845 243.151 58.5845Z" fill="#E0E0E0"/>
<path d="M306.918 29.2805H281.653V53.5126H306.918V29.2805Z" fill="url(#paint5_linear)"/>
<path d="M306.521 29.8739H282.049V53.018H306.521V29.8739Z" fill="#F5F5F5"/>
<g opacity="0.6">
<path opacity="0.6" d="M298.892 43.6219H290.074V44.8088H298.892V43.6219Z" fill="#7A06C0"/>
</g>
<path d="M301.815 45.7979H286.755V46.9847H301.815V45.7979Z" fill="#BDBDBD"/>
<g opacity="0.5">
<path opacity="0.5" d="M373.584 8.07739H318.49V72.6964H373.584V8.07739Z" fill="url(#paint6_linear)"/>
</g>
<path d="M372.411 9.11749H320.183V71.2661H372.411V9.11749Z" fill="white"/>
<path d="M364.727 36.3846H327.998V37.9448H364.727V36.3846Z" fill="#E0E0E0"/>
<path d="M364.727 46.656H327.998V48.2162H364.727V46.656Z" fill="#E0E0E0"/>
<path d="M364.727 49.3864H327.998V50.9466H364.727V49.3864Z" fill="#E0E0E0"/>
<path d="M343.497 43.9257H327.998V45.4859H343.497V43.9257Z" fill="#E0E0E0"/>
<path opacity="0.6" d="M364.727 43.9257H353.135V45.4859H364.727V43.9257Z" fill="#3AD29F"/>
<path d="M352.484 55.7573H340.892V57.3175H352.484V55.7573Z" fill="#7A06C0"/>
<g opacity="0.5">
<path opacity="0.5" d="M319.08 90.8704H286.345V117.711H319.08V90.8704Z" fill="url(#paint7_linear)"/>
</g>
<path d="M318.636 91.3781H286.727V117.267H318.636V91.3781Z" fill="#F2F2F2"/>
<path d="M318.636 91.3781H286.727V97.1523H318.636V91.3781Z" fill="#7A06C0"/>
<path opacity="0.1" d="M318.636 91.3781H286.727V97.1523H318.636V91.3781Z" fill="black"/>
<path d="M316.093 99.2462H289.269V102.609H316.093V99.2462Z" fill="#E0E0E0"/>
<path d="M308.847 105.147H289.269V106.289H308.847V105.147Z" fill="#E0E0E0"/>
<path d="M301.982 107.114H289.269V108.257H301.982V107.114Z" fill="#E0E0E0"/>
<path d="M306.05 109.081H289.269V110.224H306.05V109.081Z" fill="#E0E0E0"/>
<path d="M308.847 111.049H289.269V112.191H308.847V111.049Z" fill="#E0E0E0"/>
<path d="M295.816 113.016H289.269V114.158H295.816V113.016Z" fill="#E0E0E0"/>
<g opacity="0.5">
<path opacity="0.5" d="M306.422 81.0259H265.848V114.294H306.422V81.0259Z" fill="url(#paint8_linear)"/>
</g>
<path d="M305.871 81.6551H266.32V113.744H305.871V81.6551Z" fill="white"/>
<path d="M305.871 81.6551H266.32V88.8121H305.871V81.6551Z" fill="#7A06C0"/>
<path d="M302.719 91.4075H269.472V95.5758H302.719V91.4075Z" fill="#F5F5F5"/>
<path d="M293.738 98.7218H269.472V100.137H293.738V98.7218Z" fill="#E0E0E0"/>
<path d="M285.229 101.16H269.472V102.576H285.229V101.16Z" fill="#E0E0E0"/>
<path d="M290.271 103.598H269.472V105.014H290.271V103.598Z" fill="#E0E0E0"/>
<path d="M293.738 106.036H269.472V107.452H293.738V106.036Z" fill="#E0E0E0"/>
<path d="M277.587 108.474H269.472V109.89H277.587V108.474Z" fill="#E0E0E0"/>
<path d="M280.659 92.8232H271.205V94.0816H280.659V92.8232Z" fill="#69F0AE"/>
<path opacity="0.1" d="M210.522 169.372C213.547 169.372 216 166.924 216 163.903C216 160.883 213.547 158.435 210.522 158.435C207.496 158.435 205.043 160.883 205.043 163.903C205.043 166.924 207.496 169.372 210.522 169.372Z" fill="#535461"/>
<path opacity="0.1" d="M220.696 151.794C223.721 151.794 226.174 149.346 226.174 146.325C226.174 143.305 223.721 140.857 220.696 140.857C217.67 140.857 215.217 143.305 215.217 146.325C215.217 149.346 217.67 151.794 220.696 151.794Z" fill="#535461"/>
<defs>
<linearGradient id="paint0_linear" x1="144.977" y1="217.639" x2="144.977" y2="50.4942" gradientUnits="userSpaceOnUse">
<stop stop-color="#808080" stop-opacity="0.25"/>
<stop offset="0.53514" stop-color="#808080" stop-opacity="0.12"/>
<stop offset="1" stop-color="#808080" stop-opacity="0.1"/>
</linearGradient>
<linearGradient id="paint1_linear" x1="23133.5" y1="19580.1" x2="23133.5" y2="17913.4" gradientUnits="userSpaceOnUse">
<stop stop-color="#808080" stop-opacity="0.25"/>
<stop offset="0.53514" stop-color="#808080" stop-opacity="0.12"/>
<stop offset="1" stop-color="#808080" stop-opacity="0.1"/>
</linearGradient>
<linearGradient id="paint2_linear" x1="39834.2" y1="38621.5" x2="39834.2" y2="27429.9" gradientUnits="userSpaceOnUse">
<stop stop-color="#808080" stop-opacity="0.25"/>
<stop offset="0.53514" stop-color="#808080" stop-opacity="0.12"/>
<stop offset="1" stop-color="#808080" stop-opacity="0.1"/>
</linearGradient>
<linearGradient id="paint3_linear" x1="24023.2" y1="5238.44" x2="24023.2" y2="1251.7" gradientUnits="userSpaceOnUse">
<stop stop-color="#808080" stop-opacity="0.25"/>
<stop offset="0.53514" stop-color="#808080" stop-opacity="0.12"/>
<stop offset="1" stop-color="#808080" stop-opacity="0.1"/>
</linearGradient>
<linearGradient id="paint4_linear" x1="24738.2" y1="6169.47" x2="24738.2" y2="2182.73" gradientUnits="userSpaceOnUse">
<stop stop-color="#808080" stop-opacity="0.25"/>
<stop offset="0.53514" stop-color="#808080" stop-opacity="0.12"/>
<stop offset="1" stop-color="#808080" stop-opacity="0.1"/>
</linearGradient>
<linearGradient id="paint5_linear" x1="16858.9" y1="2925.46" x2="16858.9" y2="1613.98" gradientUnits="userSpaceOnUse">
<stop stop-color="#808080" stop-opacity="0.25"/>
<stop offset="0.53514" stop-color="#808080" stop-opacity="0.12"/>
<stop offset="1" stop-color="#808080" stop-opacity="0.1"/>
</linearGradient>
<linearGradient id="paint6_linear" x1="42824" y1="10499.9" x2="42824" y2="1173.84" gradientUnits="userSpaceOnUse">
<stop stop-color="#808080" stop-opacity="0.25"/>
<stop offset="0.53514" stop-color="#808080" stop-opacity="0.12"/>
<stop offset="1" stop-color="#808080" stop-opacity="0.1"/>
</linearGradient>
<linearGradient id="paint7_linear" x1="22380.1" y1="7147.38" x2="22380.1" y2="5538.34" gradientUnits="userSpaceOnUse">
<stop stop-color="#808080" stop-opacity="0.25"/>
<stop offset="0.53514" stop-color="#808080" stop-opacity="0.12"/>
<stop offset="1" stop-color="#808080" stop-opacity="0.1"/>
</linearGradient>
<linearGradient id="paint8_linear" x1="26150.8" y1="8573.49" x2="26150.8" y2="6101.54" gradientUnits="userSpaceOnUse">
<stop stop-color="#808080" stop-opacity="0.25"/>
<stop offset="0.53514" stop-color="#808080" stop-opacity="0.12"/>
<stop offset="1" stop-color="#808080" stop-opacity="0.1"/>
</linearGradient>
</defs>
</svg>
