<svg width="83" height="48" viewBox="0 0 83 48" fill="none" xmlns="http://www.w3.org/2000/svg">
<g clip-path="url(#clip0)">
<path d="M9.68927 40.4476C7.94589 40.4476 6.37014 40.179 4.96202 39.642C3.57626 39.1049 2.4587 38.3664 1.60936 37.4266L4.12386 34.3049C5.53197 35.6028 7.30888 36.2518 9.45459 36.2518C10.818 36.2518 11.9356 35.8154 12.8072 34.9427C13.7013 34.0699 14.1483 32.8951 14.1483 31.4182V30.2434C12.6731 31.5413 10.9968 32.1902 9.11932 32.1902C7.6218 32.1902 6.29191 31.8546 5.12966 31.1832C3.9674 30.5119 3.05101 29.5497 2.38047 28.2965C1.73229 27.021 1.4082 25.5329 1.4082 23.8322C1.4082 22.0643 1.78817 20.4979 2.54811 19.1329C3.30804 17.7678 4.33619 16.7161 5.63255 15.9776C6.95127 15.2392 8.40409 14.8699 9.99101 14.8699C10.8851 14.8699 11.7679 15.0378 12.6396 15.3734C13.5337 15.7091 14.3271 16.1678 15.02 16.7497L15.4894 15.2727H19.1773V31.4518C19.1773 33.1972 18.775 34.7525 17.9703 36.1175C17.1881 37.4825 16.0705 38.5455 14.6177 39.3063C13.1872 40.0671 11.5444 40.4476 9.68927 40.4476ZM10.3263 28.1287C11.0639 28.1287 11.7567 27.9497 12.4049 27.5916C13.0531 27.2112 13.6342 26.7189 14.1483 26.1147V20.1734C13.1872 19.4126 12.0808 19.0322 10.8292 19.0322C9.46576 19.0322 8.37056 19.435 7.54357 20.2406C6.73893 21.0462 6.33661 22.2322 6.33661 23.7986C6.33661 25.1413 6.69423 26.2042 7.40946 26.9874C8.1247 27.7483 9.09697 28.1287 10.3263 28.1287ZM30.5662 33.2979C29.0686 33.2979 27.7388 32.9287 26.5765 32.1902C25.4142 31.4294 24.509 30.3553 23.8609 28.9678C23.2127 27.5804 22.8886 25.9581 22.8886 24.1007C22.8886 22.3105 23.2685 20.7217 24.0285 19.3343C24.7884 17.9469 25.8166 16.8727 27.1129 16.1119C28.4316 15.3287 29.8845 14.9371 31.4714 14.9371C32.1866 14.9371 32.913 15.049 33.6506 15.2727C34.4106 15.4965 35.1034 15.8098 35.7293 16.2126V8.62658L40.7583 7.88812V32.8951H37.1039L36.3663 30.6797C35.584 31.5077 34.6899 32.1567 33.6841 32.6266C32.6783 33.0741 31.639 33.2979 30.5662 33.2979ZM31.8402 28.8336C32.6225 28.8336 33.3377 28.6546 33.9859 28.2965C34.6564 27.9161 35.2375 27.4014 35.7293 26.7525V20.3413C34.6788 19.5804 33.5389 19.2 32.3096 19.2C30.9461 19.2 29.8621 19.6364 29.0575 20.5091C28.2528 21.3818 27.8505 22.6238 27.8505 24.235C27.8505 25.6895 28.197 26.8196 28.8898 27.6252C29.6051 28.4308 30.5885 28.8336 31.8402 28.8336ZM53.5504 33.2979C51.6953 33.2979 50.086 32.9063 48.7226 32.1231C47.3592 31.3399 46.3087 30.2434 45.5711 28.8336C44.8335 27.4238 44.4647 25.8014 44.4647 23.9664C44.4647 22.2434 44.8447 20.6881 45.6046 19.3007C46.3646 17.9133 47.4039 16.828 48.7226 16.0448C50.0637 15.2615 51.5612 14.8699 53.2152 14.8699C54.8691 14.8699 56.3108 15.2504 57.5401 16.0112C58.7694 16.772 59.7082 17.8574 60.3563 19.2671C61.0269 20.6546 61.3621 22.2769 61.3621 24.1343V25.4098H49.0579C49.259 26.5958 49.7843 27.5357 50.6336 28.2294C51.5053 28.9007 52.5782 29.2364 53.8522 29.2364C55.5509 29.2364 56.9254 28.6881 57.9759 27.5916L60.7587 30.2098C58.8365 32.2685 56.4337 33.2979 53.5504 33.2979ZM56.6684 22.1203C56.6014 21.0238 56.2661 20.1846 55.6626 19.6028C55.0591 18.9986 54.2098 18.6965 53.1146 18.6965C52.0864 18.6965 51.2259 18.9986 50.533 19.6028C49.8625 20.207 49.4043 21.0462 49.1585 22.1203H56.6684ZM68.8943 23.7315L62.5243 15.2727H68.2908L71.9788 20.3748L75.4655 15.2727H81.098L74.795 23.765L81.6009 32.8951H75.8008L71.7106 27.0881L67.7544 32.8951H62.0884L68.8943 23.7315Z" fill="black"/>
<path d="M79.2477 15.2736H82.2092L69.3578 32.8956H65.9492L79.2477 15.2736Z" fill="url(#paint0_linear)"/>
</g>
<defs>
<linearGradient id="paint0_linear" x1="71.0779" y1="22.6108" x2="77.0993" y2="25.6088" gradientUnits="userSpaceOnUse">
<stop stop-color="#BA1D1D"/>
<stop offset="0.291667" stop-color="#EC38BC"/>
<stop offset="0.703125" stop-color="#7303C0"/>
<stop offset="1" stop-color="#03001E"/>
</linearGradient>
<clipPath id="clip0">
<rect width="82.3637" height="48" fill="white"/>
</clipPath>
</defs>
</svg>
