<svg width="87" height="36" viewBox="0 0 87 36" fill="none" xmlns="http://www.w3.org/2000/svg">
<path d="M18.784 26.744C20.064 29.528 21.024 31.464 21.664 32.552C22.336 33.64 22.944 34.344 23.488 34.664V34.952C23.104 35.112 22.704 35.192 22.288 35.192C21.84 35.192 21.44 35.032 21.088 34.712C20.736 34.392 20.256 33.704 19.648 32.648C19.072 31.56 18.272 29.88 17.248 27.608C16.064 24.952 15.04 23.016 14.176 21.8C13.312 20.552 12.288 19.624 11.104 19.016C10.336 19.08 9.76 19.112 9.376 19.112H4.048V33.512C4.048 34.632 3.648 35.192 2.848 35.192C2.656 35.192 2.448 35.128 2.224 35V10.328C2.224 8.184 2.128 6.472 1.936 5.192C1.776 3.912 1.456 2.792 0.976 1.832L1.264 1.208C2.544 1.208 3.856 1.16 5.2 1.064C5.616 1.032 6.24 0.999999 7.072 0.967998C7.936 0.935998 8.704 0.919998 9.376 0.919998C12.96 0.919998 15.808 1.736 17.92 3.368C20.064 4.968 21.136 7.144 21.136 9.896C21.136 12.136 20.448 14.024 19.072 15.56C17.696 17.096 15.792 18.136 13.36 18.68C14.288 19.224 15.136 20.088 15.904 21.272C16.704 22.456 17.664 24.28 18.784 26.744ZM3.136 2.744C3.744 4.344 4.048 6.872 4.048 10.328V17.624H10.144C12.928 17.624 15.136 16.936 16.768 15.56C18.432 14.152 19.264 12.264 19.264 9.896C19.264 7.624 18.432 5.816 16.768 4.472C15.136 3.128 12.928 2.456 10.144 2.456C9.312 2.456 8.528 2.472 7.792 2.504C7.056 2.536 6.416 2.568 5.872 2.6C4.848 2.696 3.936 2.744 3.136 2.744ZM35.7588 35.48C33.3268 35.48 31.3908 34.696 29.9508 33.128C28.5108 31.528 27.7908 29.384 27.7908 26.696V12.008C27.7908 10.888 28.1748 10.328 28.9428 10.328C29.1348 10.328 29.3428 10.392 29.5668 10.52V26.696C29.5668 28.936 30.1268 30.712 31.2468 32.024C32.3668 33.336 33.8708 33.992 35.7588 33.992C37.2948 33.992 38.6388 33.544 39.7908 32.648C40.9748 31.72 41.8868 30.44 42.5268 28.808C43.1668 27.176 43.4868 25.288 43.4868 23.144V12.008C43.4868 10.888 43.8708 10.328 44.6388 10.328C44.8308 10.328 45.0388 10.392 45.2628 10.52V33.512C45.2628 34.632 44.8788 35.192 44.1108 35.192C43.9188 35.192 43.7108 35.128 43.4868 35V30.104C42.8148 31.704 41.8068 33 40.4628 33.992C39.1508 34.984 37.5828 35.48 35.7588 35.48ZM53.368 35.192C53.176 35.192 52.968 35.128 52.744 35V12.008C52.744 10.888 53.128 10.328 53.896 10.328C54.088 10.328 54.296 10.392 54.52 10.52V15.416C55.192 13.816 56.2 12.52 57.544 11.528C58.888 10.536 60.488 10.04 62.344 10.04C64.808 10.04 66.76 10.84 68.2 12.44C69.672 14.04 70.408 16.2 70.408 18.92V33.512C70.408 34.632 70.024 35.192 69.256 35.192C69.064 35.192 68.856 35.128 68.632 35V18.92C68.632 16.648 68.056 14.856 66.904 13.544C65.784 12.2 64.264 11.528 62.344 11.528C60.776 11.528 59.4 11.992 58.216 12.92C57.032 13.816 56.12 15.08 55.48 16.712C54.84 18.344 54.52 20.232 54.52 22.376V33.512C54.52 34.632 54.136 35.192 53.368 35.192ZM85.4208 32.36C85.9328 32.36 86.1888 32.616 86.1888 33.128C86.1888 33.672 85.8368 34.152 85.1328 34.568C84.4608 34.984 83.6288 35.192 82.6368 35.192C81.3568 35.192 80.3648 34.808 79.6608 34.04C78.9888 33.24 78.6528 32.12 78.6528 30.68V11.96H75.1488C75.0528 11.768 75.0048 11.592 75.0048 11.432C75.0048 11.144 75.1168 10.92 75.3408 10.76C75.5968 10.6 75.9488 10.52 76.3968 10.52H78.6528V5.96C78.6528 4.84 79.0368 4.28 79.8047 4.28C79.9968 4.28 80.2048 4.344 80.4288 4.472V10.52H86.0448C86.1408 10.712 86.1888 10.888 86.1888 11.048C86.1888 11.336 86.0608 11.56 85.8047 11.72C85.5807 11.88 85.2448 11.96 84.7968 11.96H80.4288V30.488C80.4288 31.544 80.6208 32.36 81.0048 32.936C81.4208 33.48 82.0288 33.752 82.8288 33.752C83.9808 33.752 84.8448 33.288 85.4208 32.36Z" fill="black"/>
</svg>
