<svg width="127" height="81" viewBox="0 0 127 81" fill="#FFF" xmlns="http://www.w3.org/2000/svg">
<g clip-path="url(#clip0)">
<path d="M127.001 0.0737305H0.0551758V81.0021H127.001V0.0737305Z" fill="#E6E6E6"/>
<path d="M124.62 7.51868H2.43408V78.9455H124.62V7.51868Z" fill="white"/>
<path d="M126.946 0H0V5.36835H126.946V0Z" fill="#7303C0"/>
<path d="M4.00787 3.7396C4.55992 3.7396 5.00745 3.29413 5.00745 2.74462C5.00745 2.1951 4.55992 1.74963 4.00787 1.74963C3.45582 1.74963 3.0083 2.1951 3.0083 2.74462C3.0083 3.29413 3.45582 3.7396 4.00787 3.7396Z" fill="white"/>
<path d="M7.80182 3.7396C8.35387 3.7396 8.80139 3.29413 8.80139 2.74462C8.80139 2.1951 8.35387 1.74963 7.80182 1.74963C7.24977 1.74963 6.80225 2.1951 6.80225 2.74462C6.80225 3.29413 7.24977 3.7396 7.80182 3.7396Z" fill="white"/>
<path d="M11.5958 3.7396C12.1478 3.7396 12.5953 3.29413 12.5953 2.74462C12.5953 2.1951 12.1478 1.74963 11.5958 1.74963C11.0437 1.74963 10.5962 2.1951 10.5962 2.74462C10.5962 3.29413 11.0437 3.7396 11.5958 3.7396Z" fill="white"/>
<path d="M40.6025 27.592C40.6025 27.592 41.0614 33.8949 40.8523 34.2654C40.6431 34.636 44.5264 41.2939 44.5264 41.2939L50.7348 35.502C50.7348 35.502 50.3589 27.4903 50.7588 27.1288C51.1588 26.7674 40.6025 27.592 40.6025 27.592Z" fill="#A0616A"/>
<path d="M45.8818 32.4053C49.8899 32.4053 53.1391 29.171 53.1391 25.1813C53.1391 21.1917 49.8899 17.9574 45.8818 17.9574C41.8737 17.9574 38.6245 21.1917 38.6245 25.1813C38.6245 29.171 41.8737 32.4053 45.8818 32.4053Z" fill="#A0616A"/>
<path d="M45.3199 36.7642L44.5753 36.3477L40.9013 33.0537C40.9013 33.0537 40.5353 32.9179 40.48 34.0572L40.4247 35.1965L38.0527 36.7953L37.9438 62.6744L54.3491 63.4633L55.0394 37.4219L51.3348 34.9598L50.656 33.5194L46.4829 36.4394L45.3199 36.7642Z" fill="white"/>
<path d="M61.6431 39.2619L59.8288 65.6046H32.4326C28.9414 61.4908 26.1531 40.3227 29.1286 39.6953C30.1007 39.3608 36.6914 37.3 36.6914 37.3C36.6914 37.3 38.6605 36.0625 39.2888 34.9522C39.6748 34.2914 40.1475 33.6847 40.6944 33.1482L40.6982 33.1444L40.7001 33.1406C40.7154 33.1253 40.7288 33.1101 40.7441 33.0968C40.747 33.0916 40.7518 33.0875 40.7574 33.0854C40.7765 33.0645 40.7956 33.0455 40.8166 33.0265V33.055L40.6772 37.8723L45.9254 55.8257C45.9254 55.8257 47.4036 45.0487 48.9047 41.6952C49.7507 39.8056 50.1938 37.473 50.4192 35.7963C50.593 34.4979 50.6369 33.5949 50.6369 33.5949C50.6369 33.5949 50.6445 33.6044 50.6579 33.6215V33.6234C50.6579 33.6237 50.6579 33.6239 50.658 33.6242C50.6581 33.6244 50.6583 33.6246 50.6584 33.6248C50.6586 33.625 50.6588 33.6251 50.6591 33.6252C50.6593 33.6253 50.6596 33.6253 50.6598 33.6253C50.6827 33.6539 50.719 33.7014 50.7725 33.766L50.7744 33.7679C51.2137 34.3154 52.6231 35.9731 53.578 36.0187C54.722 36.0739 57.8636 38.319 57.8636 38.319C59.3991 38.2011 61.6431 39.2619 61.6431 39.2619Z" fill="#2F2E41"/>
<path d="M52.8257 59.3933C52.8257 59.3933 54.8927 52.2603 57.908 53.1666C60.9233 54.0729 57.6131 59.2429 57.6131 59.2429L52.8257 59.3933Z" fill="#A0616A"/>
<path d="M40.8154 65.1873C40.8154 65.1873 34.0758 62.0084 35.4598 59.192C36.8438 56.3756 41.4369 60.4599 41.4369 60.4599L40.8154 65.1873Z" fill="#A0616A"/>
<path d="M43.5149 65.6046H41.8973C41.2471 65.4442 40.5876 65.3236 39.9226 65.2435C39.7698 65.2359 39.7201 64.9982 39.7392 64.6218C39.7926 63.9994 39.8954 63.3822 40.0467 62.7759C40.2778 61.7493 40.5872 60.6391 40.7858 59.932V59.93C40.9023 59.5175 40.9787 59.2438 40.9806 59.2039C40.9864 59.0784 42.0444 59.2514 42.7739 59.3845C43.1578 59.4548 43.45 59.5137 43.45 59.5137L43.4863 62.9413L43.5149 65.6046Z" fill="white"/>
<path d="M65.1056 62.4584C64.6396 63.772 64.3035 64.8119 64.0285 65.6046H42.843C42.7723 64.8784 42.6825 63.8842 42.6252 62.8994C42.5317 61.3235 42.5164 59.7722 42.7742 59.3844C42.7861 59.3625 42.8024 59.3432 42.8221 59.3278C42.8419 59.3125 42.8645 59.3013 42.8888 59.2951C43.3834 59.1981 48.9715 59.1106 52.9287 59.0593C53.4787 59.0536 53.9962 59.0479 54.4661 59.0422C55.8927 59.0251 56.859 59.0156 56.859 59.0156C56.859 59.0156 56.9354 56.415 57.1684 53.0996C57.579 47.271 58.4766 39.2315 60.3062 39.1973L61.6431 39.2619C61.6431 39.2619 62.4051 39.298 62.7317 40.4558C63.0583 41.6135 66.4348 58.7152 65.1056 62.4584Z" fill="#2F2E41"/>
<path d="M39.9384 18.4135L38.5872 17.8495C38.5872 17.8495 41.602 15.1251 45.5911 15.5665L44.5201 14.3922C44.5201 14.3922 47.3192 13.5288 49.6931 16.2628C50.941 17.7 52.3836 19.3881 53.2435 21.253L54.7164 21.3239L54.0423 22.5182L56.1345 23.8455L53.9367 23.5195C54.0947 24.5861 53.9696 25.6754 53.574 26.6791L53.0074 28.0241C53.0074 28.0241 51.2001 23.9451 51.2243 23.4473L51.1639 24.6919C51.1639 24.6919 49.8429 23.5056 49.8791 22.7588L49.0866 23.594L48.7779 22.2069L44.0851 23.3535L44.8897 22.2694L41.9958 22.5045L43.1876 21.1895C43.1876 21.1895 39.8581 22.6512 39.6666 24.0142C39.4751 25.3773 37.7651 27.0416 37.7651 27.0416L37.0753 25.7609C37.0753 25.7609 36.2218 20.106 39.9384 18.4135Z" fill="#2F2E41"/>
<path d="M109.784 65.7613H14.1206V12.0612H109.784V65.7613ZM14.4353 65.448H109.47V12.3744H14.4353V65.448Z" fill="#E6E6E6"/>
<path d="M91.2388 18.7196C90.3342 17.1982 88.5446 17.1273 88.5446 17.1273C88.5446 17.1273 86.8007 16.9053 85.6821 19.2225C84.6394 21.3822 83.2003 23.4675 85.4504 23.9731L85.8568 22.7139L86.1085 24.0668C86.4289 24.0898 86.7503 24.0952 87.0712 24.0832C89.4809 24.0058 91.7757 24.1059 91.7018 23.2451C91.6036 22.1009 92.1092 20.1835 91.2388 18.7196Z" fill="#2F2E41"/>
<path d="M87.9016 23.9032C87.9202 24.0744 87.8917 24.2474 87.8192 24.4037C87.6497 24.6984 87.236 24.7425 86.9871 24.9748C86.7254 25.2191 86.6958 25.6156 86.6833 25.9725C86.645 26.345 86.6834 26.7214 86.796 27.0787C86.8798 27.2702 86.9857 27.4513 87.1117 27.6184C87.2636 27.8365 87.4169 28.0535 87.5717 28.2695C87.6543 28.3912 87.7464 28.5063 87.8471 28.6136C88.1405 28.8806 88.4973 29.069 88.884 29.1612C89.1246 29.2518 89.3868 29.269 89.6373 29.2108C89.7983 29.1483 89.9467 29.0575 90.0754 28.9427C90.2635 28.8084 90.4306 28.6472 90.5713 28.4642C90.7536 28.1536 90.8577 27.8035 90.8745 27.4441C90.9997 26.3918 91.0484 25.3319 91.0203 24.2727C91.0254 24.1572 91.0046 24.0421 90.9595 23.9357C90.8334 23.6908 90.4959 23.6385 90.3181 23.4278C90.1661 23.2477 90.1599 22.9906 90.1612 22.7553L90.1645 22.1564C90.1698 22.1059 90.1596 22.055 90.1352 22.0105C90.1132 21.9865 90.0866 21.967 90.0569 21.9533C90.0273 21.9395 89.9953 21.9317 89.9626 21.9303C89.5887 21.8685 89.2095 21.8433 88.8306 21.8549C88.5234 21.8643 87.934 21.8387 87.6684 22.009C87.4273 22.1636 87.7292 22.5905 87.785 22.8304C87.8601 23.1832 87.8991 23.5426 87.9016 23.9032Z" fill="#FFB8B8"/>
<path d="M88.6068 22.8746C89.95 22.8746 91.0389 21.7907 91.0389 20.4537C91.0389 19.1167 89.95 18.0328 88.6068 18.0328C87.2637 18.0328 86.1748 19.1167 86.1748 20.4537C86.1748 21.7907 87.2637 22.8746 88.6068 22.8746Z" fill="#FFB8B8"/>
<path d="M87.2194 24.9071C86.9566 24.7553 86.5998 24.8782 86.4084 25.1131C86.2325 25.3625 86.1392 25.6602 86.1415 25.9649C86.1446 26.2674 86.1229 26.5696 86.0765 26.8685C85.9305 27.5217 85.3885 28.0587 85.3481 28.7266C85.3085 29.3837 85.7612 29.9562 85.9839 30.576C86.1189 30.9624 86.1753 31.3716 86.1499 31.7798C86.1364 31.8444 86.1363 31.9111 86.1497 31.9757C86.1631 32.0403 86.1897 32.1015 86.2278 32.1555C86.2764 32.1977 86.3339 32.2286 86.3961 32.2457C87.4707 32.6221 88.6315 32.6546 89.7703 32.6834L91.6513 32.7308C91.765 32.7443 91.8803 32.7251 91.9834 32.6754C92.1522 32.5724 92.1747 32.3416 92.1776 32.1445C92.2023 30.4477 92.1298 28.7511 92.0573 27.0556C92.0486 26.4402 91.9871 25.8267 91.8734 25.2218C91.8667 25.1437 91.8426 25.0681 91.8029 25.0005C91.7631 24.9329 91.7086 24.8749 91.6435 24.831C91.5803 24.8097 91.5136 24.801 91.447 24.8054C91.3805 24.8099 91.3155 24.8273 91.2558 24.8567C90.6728 25.0725 88.8198 25.8997 88.6372 25.6053C88.4252 25.2636 87.1162 25.1628 87.2194 24.9071Z" fill="white"/>
<path d="M87.3143 24.9489C87.2665 24.9826 87.2193 25.0184 87.1741 25.0561C87.0049 25.1951 86.8531 25.3541 86.7223 25.5296C86.5058 25.8235 86.3335 26.1472 86.2107 26.4906C86.0102 27.0997 85.8735 27.7278 85.8028 28.3649C85.7628 28.5983 85.7412 28.8345 85.7383 29.0713C85.7523 29.9416 86.2692 30.7478 86.2699 31.6189C86.2699 31.652 86.2692 31.6844 86.2672 31.7174C86.261 31.86 86.2442 32.0019 86.2167 32.142C86.1788 32.3464 86.1243 32.5481 86.0705 32.7492C85.9561 33.2611 85.7723 33.7553 85.5244 34.2181C85.4978 34.2631 85.4692 34.3074 85.44 34.3504H83.5796C83.5942 34.306 83.6095 34.2624 83.6241 34.2181C83.941 33.2836 84.2578 32.3493 84.5743 31.4152C84.6713 31.1295 84.7683 30.8424 84.8367 30.5488C84.915 30.1862 84.9685 29.8187 84.9968 29.4489C85.0699 28.6824 85.118 27.9143 85.141 27.1447C85.1348 26.8675 85.1699 26.5909 85.2453 26.3239C85.3294 26.1105 85.4406 25.9087 85.5762 25.7234C85.7682 25.4357 85.9603 25.148 86.1523 24.8603C86.2478 24.6927 86.3788 24.5478 86.5363 24.4357C86.6738 24.3517 86.8373 24.3213 86.9821 24.2505C87.0733 24.199 87.1608 24.1413 87.2439 24.0779C87.4605 23.9251 87.715 23.7644 87.9017 23.9205C87.932 23.9455 87.958 23.9752 87.9788 24.0084C87.9894 24.0248 87.999 24.0418 88.0074 24.0594C88.1867 24.4456 87.5555 24.7789 87.3143 24.9489Z" fill="#2F2E41"/>
<path d="M93.4429 34.3504H84.8267C84.8732 34.3081 84.919 34.2638 84.9635 34.2181C84.9702 34.2115 84.9762 34.2049 84.9828 34.1983C85.3124 33.8577 85.3874 33.439 85.5529 32.9959C85.6771 32.6619 85.8014 32.3281 85.9256 31.9946C85.9453 31.9296 85.9776 31.8692 86.0206 31.8167C86.0566 31.7797 86.1018 31.7527 86.1515 31.7386C86.1891 31.7271 86.2279 31.72 86.2671 31.7175C86.3231 31.7138 86.3793 31.7138 86.4352 31.7175C87.9814 31.7968 89.5264 31.8936 91.0703 32.0078C91.2696 32.023 91.4689 32.0382 91.6683 32.0534C91.831 32.1738 91.9918 32.3015 92.1453 32.4364C92.6544 32.8575 93.0582 33.3908 93.3247 33.9939C93.3546 34.0673 93.3818 34.1421 93.4044 34.2181C93.419 34.2618 93.4317 34.3061 93.4429 34.3504Z" fill="#2F2E41"/>
<path d="M90.8387 18.5728L89.0708 17.651L86.6291 18.028L86.124 20.249L87.3815 20.2009L87.7327 19.385V20.1873L88.3131 20.1652L88.6498 18.8662L88.8602 20.249L90.9229 20.207L90.8387 18.5728Z" fill="#2F2E41"/>
<path d="M93.4427 34.3503H91.4973C91.4833 34.3067 91.47 34.2624 91.4574 34.2181C91.32 33.7261 91.2192 33.2247 91.1558 32.7181C91.1352 32.5732 91.1172 32.4277 91.1006 32.2829C91.09 32.1909 91.08 32.0997 91.07 32.0077C90.9584 30.9866 90.8727 29.9555 90.5591 28.978C90.5212 28.8596 90.48 28.7419 90.4402 28.6241C90.3665 28.4214 90.3088 28.2134 90.2674 28.0018C90.1824 27.5177 90.2461 27.0163 90.1584 26.5329C90.1093 26.263 90.0116 26.0256 89.9525 25.7782C89.9148 25.629 89.9 25.4749 89.9086 25.3212C90.0518 25.1868 90.232 25.0979 90.4262 25.0659C90.4944 25.0652 90.5598 25.039 90.6096 24.9925C90.6335 24.9518 90.6442 24.9046 90.6402 24.8576C90.6448 24.5457 90.6268 24.2338 90.5863 23.9244C90.573 23.8159 90.5564 23.7075 90.5365 23.5997C90.5358 23.5944 90.5345 23.5898 90.5338 23.5845C90.7008 23.5257 90.8781 23.5018 91.0548 23.5144C91.2468 23.515 91.4381 23.515 91.6295 23.5157C91.9836 23.517 92.3378 23.5181 92.6919 23.519C93.0215 23.4968 93.3521 23.5444 93.662 23.6585C93.9687 23.8125 94.2152 24.0638 94.3623 24.3728C94.5072 24.6798 94.6134 25.0035 94.6785 25.3364C94.6997 25.4278 94.7109 25.5212 94.7117 25.6149C94.7264 26.3596 94.1682 27.1096 94.1124 27.8708C94.0945 28.1175 94.1151 28.3662 94.0925 28.6129C94.0699 28.8603 94.0035 29.1023 93.9915 29.3497C93.9908 29.3622 93.9902 29.3755 93.9902 29.388C93.9974 29.711 94.0638 30.03 94.1862 30.3292C94.3549 30.8007 94.5603 31.2577 94.7722 31.7121C94.9769 32.1519 95.1868 32.5898 95.3755 33.0355C95.4736 33.2425 95.5397 33.463 95.5715 33.6896C95.5925 33.8718 95.5575 34.0561 95.4712 34.2181C95.449 34.2581 95.4225 34.2956 95.3921 34.3298L95.3908 34.3312C95.3848 34.3378 95.3788 34.3444 95.3728 34.3503H93.4427V34.3503Z" fill="#2F2E41"/>
<path d="M95.2961 33.6718C95.288 33.7598 95.2639 33.8456 95.225 33.9251C95.2217 33.933 95.2184 33.9403 95.2151 33.9482C95.1765 34.0388 95.1373 34.1281 95.0968 34.2181C95.0769 34.2617 95.0569 34.306 95.0363 34.3503H93.936C93.9759 34.3089 94.0127 34.2647 94.0463 34.2181C94.2151 33.9846 94.3128 33.7009 94.4849 33.4489C94.5082 33.4144 94.5352 33.3825 94.5653 33.3537C94.841 33.0878 95.3134 33.142 95.2961 33.6718Z" fill="#FFB8B8"/>
<path d="M96.0123 34.3503C96.0264 34.3069 96.0381 34.2627 96.0475 34.218C96.0555 34.183 96.0621 34.1486 96.0675 34.1135C96.1027 33.8827 96.102 33.6466 96.1572 33.4198C96.2349 33.095 96.4681 32.7108 96.2761 32.4376C96.4255 32.4071 96.5663 32.3443 96.6887 32.2538C96.7486 32.207 96.7918 32.1422 96.8119 32.0691C96.832 31.9959 96.828 31.9183 96.8003 31.8477C96.7319 31.7147 96.5465 31.6268 96.5718 31.4793C96.5843 31.4325 96.6065 31.3888 96.6369 31.351C96.7376 31.1928 96.7897 31.0087 96.7868 30.8214C96.7838 30.6341 96.7259 30.4517 96.6203 30.2967C96.5598 30.2108 96.4854 30.1354 96.4302 30.0454C96.3699 29.9354 96.3237 29.8183 96.2927 29.6969C96.1008 29.0815 95.818 28.4979 95.4535 27.9654C95.3728 27.8629 95.3101 27.7475 95.2682 27.6241C95.2437 27.4904 95.2387 27.3538 95.2535 27.2187C95.248 26.6809 95.0822 26.1568 94.7772 25.7128C94.7559 25.6797 94.734 25.6473 94.712 25.6149C94.4213 25.2131 94.0968 24.8368 93.742 24.4899C93.6027 24.53 93.4819 24.6172 93.4005 24.7366C93.3643 24.8141 93.342 24.8974 93.3347 24.9826C93.2403 25.6374 93.1586 26.2961 93.0948 26.9541C93.0511 27.2857 93.0422 27.6208 93.0683 27.9541C93.0955 28.2897 93.2275 28.6083 93.4456 28.8655C93.5872 29.0203 93.7666 29.1354 93.92 29.2782C93.9446 29.3014 93.9685 29.3252 93.9918 29.3497C94.1024 29.4669 94.2006 29.5953 94.2848 29.7326C94.653 30.3247 94.8237 31.0176 94.7725 31.7121C94.7632 31.8373 94.7466 31.9618 94.7227 32.0851C94.6935 32.2616 94.6337 32.4317 94.5459 32.5878C94.4762 32.7022 94.3845 32.802 94.3214 32.9204C94.2859 32.9774 94.2646 33.042 94.2593 33.1089C94.2539 33.1757 94.2648 33.2429 94.2908 33.3047C94.3845 33.3046 94.4774 33.3212 94.5652 33.3536C94.7721 33.433 94.9518 33.5696 95.0834 33.7472C95.132 33.811 95.1759 33.8782 95.215 33.9482C95.2643 34.0354 95.3082 34.1255 95.3466 34.2181C95.3625 34.2544 95.3778 34.2921 95.3924 34.3298C95.3957 34.3364 95.3984 34.3432 95.4004 34.3503L96.0123 34.3503Z" fill="#2F2E41"/>
<path d="M106.616 34.5971H72.207V15.1938H106.616V34.5971ZM72.5218 34.2839H106.301V15.5071H72.5218V34.2839Z" fill="#E6E6E6"/>
<path d="M63.4748 75.6297C65.43 75.6297 67.0151 74.0519 67.0151 72.1057C67.0151 70.1594 65.43 68.5817 63.4748 68.5817C61.5196 68.5817 59.9346 70.1594 59.9346 72.1057C59.9346 74.0519 61.5196 75.6297 63.4748 75.6297Z" fill="#E6E6E6"/>
<path d="M63.4749 74.8074C64.9739 74.8074 66.1891 73.5978 66.1891 72.1057C66.1891 70.6135 64.9739 69.4039 63.4749 69.4039C61.9759 69.4039 60.7607 70.6135 60.7607 72.1057C60.7607 73.5978 61.9759 74.8074 63.4749 74.8074Z" fill="white"/>
<path d="M64.8348 73.5813C64.8186 73.5813 64.8025 73.5781 64.7875 73.572C64.7725 73.5658 64.7589 73.5567 64.7474 73.5452L62.0276 70.8379C62.0054 70.8147 61.9932 70.7837 61.9937 70.7516C61.9941 70.7195 62.0071 70.6889 62.0299 70.6662C62.0527 70.6435 62.0835 70.6306 62.1157 70.6301C62.1479 70.6297 62.179 70.6419 62.2024 70.664L64.9222 73.3712C64.9395 73.3885 64.9513 73.4104 64.956 73.4342C64.9608 73.4581 64.9583 73.4828 64.949 73.5053C64.9396 73.5278 64.9238 73.547 64.9035 73.5605C64.8832 73.5741 64.8593 73.5813 64.8348 73.5813Z" fill="#7303C0"/>
<path d="M63.4128 72.5649L63.0127 72.1666C63.0104 72.1643 63.0074 72.1628 63.0042 72.1623C63.001 72.1618 62.9978 72.1623 62.9949 72.1637C62.992 72.1652 62.9896 72.1675 62.9881 72.1703C62.9866 72.1731 62.986 72.1764 62.9865 72.1796C63.0026 72.2829 63.0514 72.3785 63.1257 72.4524C63.2 72.5264 63.2959 72.5749 63.3998 72.591C63.403 72.5914 63.4062 72.5908 63.4091 72.5893C63.4119 72.5878 63.4142 72.5855 63.4157 72.5826C63.4171 72.5797 63.4176 72.5765 63.4171 72.5733C63.4166 72.5701 63.4151 72.5672 63.4128 72.5649Z" fill="#7303C0"/>
<path d="M63.5368 71.6443L63.9375 72.0431C63.9398 72.0454 63.9428 72.0469 63.946 72.0474C63.9492 72.048 63.9525 72.0475 63.9554 72.046C63.9583 72.0446 63.9606 72.0423 63.9622 72.0394C63.9637 72.0365 63.9642 72.0333 63.9638 72.0301C63.9477 71.9266 63.8989 71.8309 63.8245 71.7569C63.7501 71.6828 63.654 71.6343 63.55 71.6182C63.5468 71.6177 63.5435 71.6183 63.5406 71.6197C63.5377 71.6212 63.5354 71.6236 63.5339 71.6265C63.5324 71.6294 63.5319 71.6326 63.5324 71.6358C63.5329 71.639 63.5344 71.642 63.5368 71.6443Z" fill="#7303C0"/>
<path d="M65.2908 72.2381C65.3164 72.1982 65.3299 72.1517 65.3298 72.1043C65.3296 72.057 65.3158 72.0106 65.29 71.9708C65.0917 71.6623 64.8304 71.3988 64.523 71.1976C64.2114 70.9913 63.8467 70.879 63.4726 70.874C63.2839 70.8743 63.0965 70.9049 62.9176 70.9647C62.9126 70.9664 62.9081 70.9693 62.9046 70.9731C62.901 70.977 62.8985 70.9817 62.8973 70.9869C62.8961 70.992 62.8962 70.9973 62.8977 71.0023C62.8991 71.0074 62.9018 71.012 62.9056 71.0157L63.2706 71.379C63.2744 71.3828 63.2791 71.3855 63.2843 71.387C63.2894 71.3884 63.2949 71.3884 63.3001 71.3871C63.4238 71.3571 63.5532 71.3593 63.6759 71.3935C63.7985 71.4277 63.9102 71.4927 64.0002 71.5824C64.0903 71.672 64.1556 71.7832 64.19 71.9053C64.2243 72.0273 64.2266 72.1561 64.1964 72.2793C64.1951 72.2845 64.1951 72.2899 64.1966 72.295C64.198 72.3001 64.2007 72.3048 64.2045 72.3086L64.7295 72.8316C64.735 72.837 64.7423 72.8403 64.75 72.8406C64.7578 72.8409 64.7653 72.8384 64.7713 72.8334C64.9734 72.662 65.1485 72.4613 65.2908 72.2381Z" fill="#7303C0"/>
<path d="M63.475 72.843C63.3627 72.843 63.2519 72.8176 63.1509 72.7688C63.0499 72.7199 62.9613 72.6489 62.8919 72.5611C62.8225 72.4732 62.774 72.3708 62.7502 72.2616C62.7263 72.1524 62.7276 72.0392 62.7541 71.9306C62.7554 71.9254 62.7554 71.92 62.7539 71.9149C62.7525 71.9097 62.7498 71.905 62.746 71.9013L62.2295 71.387C62.2241 71.3815 62.2167 71.3783 62.209 71.378C62.2012 71.3776 62.1937 71.3802 62.1877 71.3852C61.9893 71.5564 61.8136 71.7521 61.6649 71.9676C61.6369 72.0075 61.6215 72.0548 61.6206 72.1035C61.6198 72.1522 61.6334 72.2 61.6599 72.2409C61.855 72.5497 62.1138 72.8136 62.4193 73.015C62.7313 73.2221 63.0975 73.3335 63.4725 73.3352C63.6631 73.3347 63.8525 73.3047 64.0338 73.2464C64.0388 73.2448 64.0434 73.2419 64.047 73.238C64.0506 73.2342 64.0532 73.2295 64.0544 73.2243C64.0557 73.2192 64.0556 73.2138 64.0541 73.2087C64.0527 73.2037 64.05 73.199 64.0462 73.1953L63.6794 72.8303C63.6757 72.8265 63.671 72.8238 63.6658 72.8224C63.6606 72.821 63.6552 72.8209 63.65 72.8222C63.5927 72.836 63.534 72.843 63.475 72.843Z" fill="#7303C0"/>
<path d="M50.0427 75.6297C51.9979 75.6297 53.583 74.0519 53.583 72.1057C53.583 70.1594 51.9979 68.5817 50.0427 68.5817C48.0875 68.5817 46.5024 70.1594 46.5024 72.1057C46.5024 74.0519 48.0875 75.6297 50.0427 75.6297Z" fill="#E6E6E6"/>
<path d="M50.0428 74.8074C51.5418 74.8074 52.757 73.5978 52.757 72.1057C52.757 70.6135 51.5418 69.4039 50.0428 69.4039C48.5438 69.4039 47.3286 70.6135 47.3286 72.1057C47.3286 73.5978 48.5438 74.8074 50.0428 74.8074Z" fill="white"/>
<path d="M51.0856 73.8284C50.8432 73.8093 50.6094 73.7299 50.4057 73.5977C50.0114 73.3879 49.6513 73.1198 49.3378 72.8026C49.0133 72.4949 48.7423 72.1358 48.5358 71.7399C48.2512 71.2246 48.2997 70.9545 48.3539 70.839C48.4166 70.7128 48.515 70.6076 48.6371 70.5366C48.7071 70.491 48.7812 70.4518 48.8584 70.4197C48.8661 70.4164 48.8733 70.4132 48.8797 70.4104C48.9053 70.396 48.9336 70.3872 48.9629 70.3845C48.9921 70.3819 49.0216 70.3854 49.0493 70.395C49.111 70.4245 49.1659 70.4664 49.2105 70.5181C49.3712 70.6976 49.5068 70.8979 49.6135 71.1136C49.6574 71.1882 49.6844 71.2714 49.6926 71.3575C49.6862 71.4427 49.6515 71.5233 49.5941 71.5868C49.5839 71.6005 49.5739 71.6137 49.5642 71.6264C49.5054 71.7034 49.4925 71.7256 49.501 71.7653C49.5796 71.9649 49.7014 72.1448 49.8579 72.2922C50.0037 72.4456 50.1826 72.5641 50.3811 72.6388C50.4227 72.6477 50.4455 72.6343 50.5252 72.5737C50.5366 72.565 50.5484 72.556 50.5607 72.547C50.6246 72.487 50.707 72.4503 50.7945 72.4429H50.7949C50.8827 72.4518 50.967 72.4813 51.0411 72.5289C51.2553 72.637 51.4555 72.7707 51.6372 72.9271C51.6891 72.9714 51.7314 73.0259 51.7612 73.0872C51.7707 73.1149 51.7743 73.1443 51.7716 73.1734C51.769 73.2026 51.7601 73.2309 51.7457 73.2564C51.7429 73.2628 51.7397 73.2698 51.7364 73.2775C51.7038 73.3542 51.6643 73.4278 51.6182 73.4973C51.5466 73.6187 51.4408 73.7165 51.3139 73.7787C51.2426 73.8123 51.1645 73.8293 51.0856 73.8284Z" fill="#7303C0"/>
<path d="M77.0114 75.6297C78.9667 75.6297 80.5517 74.0519 80.5517 72.1057C80.5517 70.1594 78.9667 68.5817 77.0114 68.5817C75.0562 68.5817 73.4712 70.1594 73.4712 72.1057C73.4712 74.0519 75.0562 75.6297 77.0114 75.6297Z" fill="#E6E6E6"/>
<path d="M77.0111 74.8074C78.5101 74.8074 79.7253 73.5978 79.7253 72.1057C79.7253 70.6135 78.5101 69.4039 77.0111 69.4039C75.5121 69.4039 74.2969 70.6135 74.2969 72.1057C74.2969 73.5978 75.5121 74.8074 77.0111 74.8074Z" fill="white"/>
<path d="M77.5057 73.7055H76.5166C76.5004 73.7055 76.4843 73.7024 76.4692 73.6962C76.4542 73.6901 76.4405 73.681 76.429 73.6696C76.4174 73.6581 76.4083 73.6446 76.402 73.6296C76.3958 73.6146 76.3926 73.5986 76.3926 73.5824C76.3926 73.5662 76.3958 73.5502 76.402 73.5352C76.4083 73.5203 76.4174 73.5067 76.429 73.4952C76.4405 73.4838 76.4542 73.4747 76.4692 73.4686C76.4843 73.4624 76.5004 73.4593 76.5166 73.4594H77.5057C77.5219 73.4593 77.5381 73.4624 77.5531 73.4686C77.5682 73.4747 77.5818 73.4838 77.5934 73.4952C77.6049 73.5067 77.614 73.5203 77.6203 73.5352C77.6265 73.5502 77.6297 73.5662 77.6297 73.5824C77.6297 73.5986 77.6265 73.6146 77.6203 73.6296C77.614 73.6446 77.6049 73.6581 77.5934 73.6696C77.5818 73.681 77.5682 73.6901 77.5531 73.6962C77.5381 73.7024 77.5219 73.7055 77.5057 73.7055Z" fill="#7303C0"/>
<path d="M77.0111 73.0902C76.7161 73.0898 76.4333 72.973 76.2247 72.7654C76.0161 72.5578 75.8988 72.2763 75.8984 71.9826V71.7365C75.8986 71.704 75.9116 71.6728 75.9348 71.6498C75.958 71.6268 75.9894 71.6139 76.0221 71.6139C76.0548 71.6139 76.0862 71.6268 76.1093 71.6498C76.1325 71.6728 76.1456 71.704 76.1457 71.7365V71.9826C76.1455 72.0959 76.1678 72.208 76.2112 72.3126C76.2546 72.4173 76.3184 72.5124 76.3987 72.5925C76.4791 72.6726 76.5746 72.7362 76.6796 72.7795C76.7847 72.8229 76.8973 72.8452 77.0111 72.8452C77.1248 72.8452 77.2374 72.8229 77.3425 72.7795C77.4476 72.7362 77.543 72.6726 77.6234 72.5925C77.7038 72.5124 77.7675 72.4173 77.8109 72.3126C77.8543 72.208 77.8766 72.0959 77.8765 71.9826V71.7365C77.8766 71.704 77.8897 71.6728 77.9128 71.6498C77.936 71.6268 77.9674 71.6139 78.0001 71.6139C78.0328 71.6139 78.0642 71.6268 78.0873 71.6498C78.1105 71.6728 78.1236 71.704 78.1237 71.7365V71.9826C78.1234 72.2763 78.006 72.5578 77.7975 72.7654C77.5889 72.973 77.3061 73.0898 77.0111 73.0902Z" fill="#7303C0"/>
<path d="M77.0113 73.7055C76.9951 73.7055 76.979 73.7023 76.964 73.6961C76.949 73.6899 76.9354 73.6809 76.9239 73.6694C76.9124 73.658 76.9033 73.6444 76.8971 73.6295C76.8909 73.6146 76.8877 73.5986 76.8877 73.5824V72.9671C76.8876 72.9509 76.8908 72.9349 76.897 72.9199C76.9032 72.9049 76.9123 72.8913 76.9238 72.8798C76.9352 72.8683 76.9489 72.8592 76.9639 72.853C76.9789 72.8468 76.9951 72.8436 77.0113 72.8436C77.0276 72.8436 77.0437 72.8468 77.0587 72.853C77.0738 72.8592 77.0874 72.8683 77.0989 72.8798C77.1104 72.8913 77.1195 72.9049 77.1257 72.9199C77.1319 72.9349 77.135 72.9509 77.135 72.9671V73.5824C77.135 73.5986 77.1318 73.6146 77.1255 73.6295C77.1193 73.6444 77.1102 73.658 77.0987 73.6694C77.0873 73.6809 77.0736 73.6899 77.0586 73.6961C77.0436 73.7023 77.0276 73.7055 77.0113 73.7055Z" fill="#7303C0"/>
<path d="M77.0112 72.5979C76.9296 72.5977 76.8489 72.5812 76.7738 72.5494C76.6988 72.5175 76.6309 72.471 76.5743 72.4125C76.4583 72.2961 76.3932 72.1388 76.3931 71.9749V71.1212C76.3924 70.9586 76.4567 70.8025 76.5717 70.6871C76.6867 70.5717 76.8431 70.5065 77.0064 70.5059C77.008 70.5059 77.0096 70.5059 77.0112 70.5059C77.0926 70.505 77.1734 70.5203 77.2488 70.5509C77.3242 70.5816 77.3927 70.6268 77.4503 70.6842C77.5078 70.7415 77.5533 70.8097 77.5841 70.8847C77.6148 70.9597 77.6302 71.0401 77.6294 71.1212V71.9749C77.6302 72.1391 77.5656 72.2968 77.4497 72.4136C77.3338 72.5304 77.1761 72.5967 77.0112 72.5979Z" fill="#7303C0"/>
</g>
<defs>
<clipPath id="clip0">
<rect width="127" height="81" fill="white"/>
</clipPath>
</defs>
</svg>
