<svg width="728" height="448" viewBox="0 0 728 448" fill="none" xmlns="http://www.w3.org/2000/svg">
<g clip-path="url(#clip0)">
<path opacity="0.1" d="M727.999 287.74C728.011 299.878 726.544 311.972 723.629 323.754C722.648 327.724 721.509 331.612 720.211 335.417C718.623 340.114 716.782 344.721 714.697 349.219C713.647 351.495 712.536 353.725 711.366 355.91C711.385 368.357 708.824 380.673 703.844 392.08C694.841 412.544 678.789 429.092 658.612 438.706C645.996 444.728 632.209 447.895 618.232 447.981H138.198C116.84 448.027 95.8512 442.413 77.3651 431.712L77.0808 431.551C74.4478 430.009 71.8806 428.377 69.3794 426.653C63.7518 422.764 58.4646 418.403 53.5748 413.618C46.9565 407.147 41.1247 399.918 36.2003 392.08C24.6345 373.706 18.5076 352.431 18.5291 330.717C6.81623 310.156 -0.0136719 285.526 -0.0136719 259.059C-0.0136719 225.667 10.84 195.205 28.6719 172.145C32.3895 167.328 36.4617 162.795 40.8545 158.584C45.1888 154.418 49.8474 150.603 54.7863 147.175C58.7377 144.43 62.8675 141.951 67.1481 139.755C68.9344 138.846 70.7268 137.986 72.5502 137.188C74.1511 136.477 75.7705 135.815 77.4084 135.191C79.3739 134.445 81.3642 133.758 83.3792 133.132C85.3941 132.505 87.3823 131.957 89.3438 131.487C92.2282 130.782 95.162 130.209 98.1454 129.768C100.618 129.403 103.09 129.149 105.562 128.958C107.528 128.809 109.512 128.729 111.508 128.704H112.59C114.791 128.704 116.979 128.791 119.148 128.939C119.377 128.481 119.624 128.018 119.853 127.566C120.718 125.915 121.614 124.27 122.517 122.662C122.515 122.648 122.515 122.633 122.517 122.619C122.671 122.335 122.826 122.056 122.986 121.784C123.716 120.467 124.476 119.162 125.255 117.87C125.613 117.252 125.966 116.67 126.33 116.089C126.407 115.945 126.492 115.804 126.584 115.669C126.955 115.05 127.332 114.432 127.715 113.813C129.623 110.763 131.607 107.766 133.667 104.822L134.192 104.068C134.514 103.61 134.811 103.165 135.169 102.707C136.022 101.514 136.9 100.314 137.784 99.1391C138.402 98.2981 139.02 97.4633 139.687 96.6656C141.294 94.6043 142.943 92.5431 144.632 90.4818C146.321 88.4205 148.077 86.386 149.898 84.3783C150.145 84.1001 150.393 83.828 150.652 83.5559L153.291 80.6742C153.421 80.5382 153.532 80.4145 153.656 80.2908C153.971 79.9507 154.274 79.6106 154.614 79.2829C156.03 77.7802 157.482 76.3084 158.941 74.8429C166.364 67.4454 174.273 60.5517 182.614 54.2074C182.941 53.9477 183.275 53.7004 183.603 53.453C185.173 52.2719 186.767 51.1031 188.362 49.953C197.133 43.6575 206.302 37.9358 215.811 32.8237C216.467 32.4465 217.134 32.0941 217.808 31.7478C226.333 27.2355 235.1 23.1975 244.07 19.6522C248.96 17.7167 253.96 15.8986 258.991 14.2352C262.341 13.1344 265.704 12.0894 269.109 11.1061C274.433 9.57255 279.794 8.19768 285.192 6.98152C301.095 3.4115 317.274 1.20618 333.551 0.389557C338.496 0.138081 343.497 0.00822244 348.553 -2.26648e-05C372.949 -0.0323356 397.25 3.04308 420.869 9.15204C421.113 9.52127 421.447 9.82228 421.84 10.0267C422.232 10.2312 422.671 10.3324 423.113 10.3208H425.19C426.092 10.5681 426.988 10.8155 427.891 11.0752C432.93 12.5264 437.898 14.1115 442.793 15.8306L444.029 16.2758C456.111 20.5742 467.867 25.7408 479.205 31.7354C489.425 37.1262 499.265 43.2087 508.657 49.9406C510.103 50.9795 511.529 52.0266 512.934 53.082C514.64 51.9895 516.375 50.9424 518.138 49.9406C524.949 46.0598 532.183 42.9745 539.697 40.7452C555.408 36.0939 572.031 35.4434 588.057 38.853C608.608 43.2126 627.213 54.0343 642.239 69.4258C648.357 75.7234 653.802 82.6412 658.488 90.0675C658.828 90.5993 659.168 91.1373 659.496 91.6814C663.523 98.2542 666.984 105.158 669.842 112.317C669.948 112.583 670.053 112.83 670.145 113.09C672.784 119.794 674.912 126.688 676.512 133.713C676.586 134.072 676.672 134.424 676.747 134.783C678.242 141.581 679.259 148.477 679.788 155.418C679.788 155.666 679.788 155.919 679.837 156.179C680.097 159.77 680.228 163.397 680.233 167.062C680.233 170.34 680.121 173.592 679.917 176.82C679.917 177.173 679.868 177.538 679.837 177.903C679.781 178.836 679.701 179.758 679.621 180.698C684.341 184.507 688.759 188.677 692.835 193.17C694.636 195.137 696.379 197.178 698.065 199.292C703.198 205.729 707.71 212.639 711.539 219.928C721.991 239.667 727.999 262.887 727.999 287.74Z" fill="#6C63FF"/>
<path opacity="0.1" d="M658.156 436.418C658.156 440.641 643.612 444.599 618.233 448H138.199C116.841 448.046 95.8524 442.432 77.3663 431.73L77.082 431.57C84.3755 428.911 97.5408 426.431 115.459 424.192L116.263 424.093C124.298 423.11 133.279 422.176 143.094 421.292C143.341 421.292 143.595 421.255 143.842 421.224C151.63 420.531 159.914 419.882 168.695 419.276C168.974 419.276 169.246 419.227 169.524 419.214C172.911 418.971 176.368 418.74 179.895 418.522L181.255 418.435C206.937 416.84 236.129 415.566 267.788 414.725H267.825C272.259 414.601 276.74 414.492 281.268 414.397C286.304 414.278 291.401 414.172 296.56 414.082C300.497 413.995 304.484 413.933 308.483 413.871H308.576C326.618 413.599 345.259 413.463 364.321 413.463C411.457 413.463 456.009 414.323 495.486 415.869H495.598C501.667 416.104 507.626 416.364 513.436 416.629L518.381 416.864C524.936 417.178 531.323 417.514 537.541 417.872C610.662 422.034 658.156 428.793 658.156 436.418Z" fill="#6C63FF"/>
<g opacity="0.2">
<path opacity="0.2" d="M420.475 410.625C420.455 411.292 420.379 411.956 420.247 412.61C415.945 411.926 411.618 411.307 407.267 410.755C407.267 410.582 407.267 410.402 407.267 410.223C407.307 408.369 407.84 406.559 408.812 404.979C410.085 402.963 412.02 401.702 414.152 401.77C416.285 401.838 418.133 403.217 419.276 405.301C420.141 406.938 420.555 408.775 420.475 410.625Z" fill="#3F3D56"/>
<path opacity="0.2" d="M420.83 400.058C420.981 395.276 418.144 391.305 414.493 391.19C410.842 391.074 407.761 394.858 407.609 399.64C407.458 404.422 410.295 408.393 413.946 408.508C417.597 408.624 420.679 404.84 420.83 400.058Z" fill="#3F3D56"/>
<path opacity="0.2" d="M421.168 389.471C421.319 384.689 418.482 380.718 414.831 380.603C411.18 380.487 408.098 384.271 407.947 389.053C407.796 393.835 410.633 397.806 414.284 397.921C417.935 398.037 421.017 394.253 421.168 389.471Z" fill="#3F3D56"/>
<path opacity="0.2" d="M421.499 378.884C421.65 374.102 418.813 370.131 415.162 370.016C411.511 369.9 408.429 373.684 408.278 378.466C408.127 383.248 410.964 387.219 414.615 387.334C418.266 387.45 421.348 383.666 421.499 378.884Z" fill="#3F3D56"/>
<path opacity="0.2" d="M421.83 368.297C421.981 363.515 419.144 359.544 415.493 359.429C411.842 359.313 408.761 363.097 408.609 367.879C408.458 372.661 411.295 376.632 414.946 376.747C418.597 376.863 421.679 373.079 421.83 368.297Z" fill="#3F3D56"/>
<path opacity="0.2" d="M392.723 294.839C391.853 293.66 391.068 292.42 390.374 291.129L407.842 288.822L389.039 288.371C387.361 284.389 386.513 280.106 386.546 275.785C386.579 271.464 387.493 267.195 389.231 263.239L414.029 277.122L391.314 259.288C393.605 255.58 396.636 252.385 400.218 249.901C403.799 247.418 407.853 245.7 412.128 244.855C416.403 244.01 420.806 244.056 425.062 244.989C429.318 245.923 433.336 247.725 436.865 250.282C440.394 252.839 443.358 256.097 445.572 259.852C447.786 263.606 449.203 267.778 449.733 272.105C450.263 276.432 449.896 280.822 448.655 285C447.413 289.179 445.323 293.057 442.517 296.391C443.87 298.225 445.021 300.201 445.947 302.284L423.022 313.291L447.331 305.976C448.862 311.03 449.109 316.386 448.049 321.559C446.989 326.732 444.657 331.559 441.262 335.603C444.791 340.393 446.902 346.081 447.352 352.016C447.803 357.95 446.575 363.892 443.809 369.161C441.043 374.43 436.851 378.814 431.712 381.811C426.573 384.809 420.694 386.299 414.749 386.112C408.803 385.924 403.03 384.066 398.09 380.751C393.15 377.435 389.242 372.796 386.813 367.363C384.385 361.93 383.534 355.923 384.357 350.029C385.18 344.134 387.644 338.591 391.468 334.032C387.252 328.307 385.081 321.329 385.306 314.221C385.53 307.113 388.136 300.287 392.705 294.839H392.723Z" fill="#6C63FF"/>
<path opacity="0.1" d="M448.679 316.223C448.463 323.335 445.849 330.165 441.262 335.603C444.791 340.393 446.902 346.081 447.352 352.016C447.803 357.95 446.575 363.892 443.809 369.161C441.043 374.43 436.851 378.814 431.712 381.811C426.573 384.809 420.694 386.299 414.749 386.112C408.803 385.924 403.03 384.066 398.09 380.751C393.15 377.435 389.242 372.796 386.813 367.363C384.385 361.93 383.534 355.923 384.357 350.029C385.18 344.134 387.644 338.591 391.468 334.032C387.408 328.51 448.79 312.667 448.679 316.223Z" fill="black"/>
</g>
<g opacity="0.2">
<path opacity="0.2" d="M326.525 410.625C326.505 411.292 326.429 411.956 326.296 412.61C321.994 411.926 317.668 411.307 313.316 410.755C313.316 410.582 313.316 410.402 313.316 410.223C313.357 408.369 313.89 406.559 314.862 404.979C316.135 402.963 318.07 401.702 320.202 401.77C322.334 401.838 324.182 403.217 325.326 405.301C326.191 406.938 326.605 408.775 326.525 410.625Z" fill="#3F3D56"/>
<path opacity="0.2" d="M326.874 400.06C327.025 395.278 324.188 391.308 320.537 391.192C316.886 391.077 313.804 394.86 313.653 399.642C313.502 404.425 316.339 408.395 319.99 408.511C323.641 408.626 326.723 404.843 326.874 400.06Z" fill="#3F3D56"/>
<path opacity="0.2" d="M327.211 389.473C327.362 384.691 324.525 380.721 320.874 380.605C317.223 380.49 314.141 384.273 313.99 389.055C313.839 393.838 316.676 397.808 320.327 397.924C323.978 398.039 327.06 394.256 327.211 389.473Z" fill="#3F3D56"/>
<path opacity="0.2" d="M327.542 378.886C327.693 374.104 324.856 370.134 321.205 370.018C317.554 369.903 314.472 373.686 314.321 378.469C314.17 383.251 317.007 387.221 320.658 387.337C324.309 387.452 327.391 383.669 327.542 378.886Z" fill="#3F3D56"/>
<path opacity="0.2" d="M327.873 368.299C328.024 363.517 325.187 359.547 321.536 359.431C317.885 359.316 314.803 363.099 314.652 367.881C314.501 372.664 317.338 376.634 320.989 376.75C324.64 376.865 327.722 373.082 327.873 368.299Z" fill="#3F3D56"/>
<path opacity="0.2" d="M298.773 294.839C297.903 293.66 297.118 292.42 296.424 291.129L313.891 288.822L295.089 288.371C293.411 284.389 292.563 280.106 292.596 275.785C292.629 271.464 293.542 267.195 295.281 263.239L320.079 277.122L297.364 259.288C299.655 255.58 302.686 252.385 306.267 249.901C309.849 247.418 313.903 245.7 318.178 244.855C322.453 244.01 326.856 244.056 331.112 244.989C335.368 245.923 339.386 247.725 342.915 250.282C346.444 252.839 349.408 256.097 351.622 259.852C353.836 263.606 355.252 267.778 355.783 272.105C356.313 276.432 355.946 280.822 354.704 285C353.463 289.179 351.373 293.057 348.566 296.391C349.92 298.225 351.07 300.201 351.997 302.284L329.072 313.291L353.381 305.976C354.912 311.03 355.159 316.386 354.099 321.559C353.039 326.732 350.706 331.559 347.312 335.603C350.841 340.393 352.952 346.081 353.402 352.016C353.852 357.95 352.625 363.892 349.859 369.161C347.093 374.43 342.901 378.814 337.762 381.811C332.623 384.809 326.744 386.299 320.798 386.112C314.853 385.924 309.08 384.066 304.14 380.751C299.2 377.435 295.292 372.796 292.863 367.363C290.435 361.93 289.583 355.923 290.407 350.029C291.23 344.134 293.694 338.591 297.518 334.032C293.302 328.307 291.131 321.329 291.355 314.221C291.58 307.113 294.185 300.287 298.754 294.839H298.773Z" fill="#6C63FF"/>
<path opacity="0.1" d="M354.729 316.223C354.512 323.335 351.898 330.165 347.312 335.603C350.841 340.393 352.952 346.081 353.402 352.016C353.852 357.95 352.625 363.892 349.859 369.161C347.093 374.43 342.901 378.814 337.762 381.811C332.623 384.809 326.744 386.299 320.798 386.112C314.853 385.924 309.08 384.066 304.14 380.751C299.2 377.435 295.292 372.796 292.863 367.363C290.435 361.93 289.583 355.923 290.407 350.029C291.23 344.134 293.694 338.591 297.518 334.032C293.457 328.51 354.84 312.667 354.729 316.223Z" fill="black"/>
</g>
<g opacity="0.2">
<path opacity="0.2" d="M583.157 417.39C583.109 418.654 582.958 419.911 582.705 421.15C574.423 419.826 566.081 418.643 557.679 417.6C557.679 417.266 557.679 416.926 557.679 416.58C557.757 413.009 558.786 409.523 560.658 406.482C563.13 402.604 566.839 400.174 570.937 400.298C575.035 400.422 578.601 403.087 580.826 407.1C582.504 410.262 583.309 413.814 583.157 417.39Z" fill="#3F3D56"/>
<path opacity="0.2" d="M583.829 397.031C584.12 387.821 578.656 380.175 571.624 379.953C564.592 379.73 558.656 387.016 558.365 396.226C558.074 405.435 563.538 413.082 570.57 413.304C577.602 413.526 583.539 406.24 583.829 397.031Z" fill="#3F3D56"/>
<path opacity="0.2" d="M584.471 376.649C584.762 367.439 579.297 359.793 572.265 359.57C565.233 359.348 559.297 366.634 559.006 375.843C558.715 385.053 564.18 392.699 571.212 392.922C578.244 393.144 584.18 385.858 584.471 376.649Z" fill="#3F3D56"/>
<path opacity="0.2" d="M585.12 356.266C585.411 347.057 579.946 339.411 572.914 339.188C565.882 338.966 559.946 346.252 559.655 355.461C559.364 364.671 564.828 372.317 571.86 372.54C578.892 372.762 584.829 365.476 585.12 356.266Z" fill="#3F3D56"/>
<path opacity="0.2" d="M585.037 334.957C585.314 325.742 579.834 318.102 572.799 317.89C565.763 317.679 559.836 324.978 559.56 334.192C559.284 343.406 564.763 351.047 571.798 351.258C578.834 351.47 584.761 344.171 585.037 334.957Z" fill="#3F3D56"/>
<path opacity="0.2" d="M529.723 194.488C528.055 192.218 526.545 189.835 525.204 187.358L558.828 182.918L522.639 182.046C519.407 174.381 517.771 166.137 517.833 157.818C517.895 149.499 519.652 141.28 522.998 133.664L570.745 160.384L527.021 126.051C531.442 118.93 537.282 112.796 544.176 108.032C551.071 103.267 558.872 99.9744 567.094 98.3585C575.316 96.7427 583.783 96.8384 591.966 98.6397C600.149 100.441 607.874 103.909 614.659 108.828C621.444 113.747 627.144 120.012 631.403 127.231C635.662 134.451 638.389 142.47 639.415 150.79C640.44 159.11 639.741 167.553 637.363 175.591C634.984 183.629 630.976 191.091 625.588 197.512C628.192 201.045 630.408 204.85 632.196 208.859L588.058 230.063L634.854 215.964C637.803 225.682 638.283 235.982 636.251 245.931C634.219 255.881 629.738 265.167 623.215 272.948C630.008 282.171 634.07 293.121 634.936 304.545C635.803 315.969 633.438 327.406 628.113 337.549C622.788 347.692 614.718 356.131 604.825 361.901C594.932 367.671 583.616 370.54 572.17 370.179C560.725 369.818 549.611 366.242 540.102 359.859C530.592 353.477 523.069 344.546 518.393 334.088C513.718 323.63 512.078 312.066 513.662 300.719C515.245 289.373 519.989 278.701 527.349 269.924C519.236 258.903 515.06 245.473 515.49 231.792C515.92 218.111 520.933 204.971 529.723 194.482V194.488Z" fill="#6C63FF"/>
<path opacity="0.1" d="M637.455 235.647C637.05 249.331 632.041 262.478 623.239 272.96C630.033 282.184 634.094 293.133 634.961 304.557C635.827 315.981 633.462 327.418 628.137 337.561C622.813 347.704 614.742 356.143 604.85 361.913C594.957 367.684 583.64 370.552 572.195 370.191C560.749 369.83 549.636 366.254 540.126 359.872C530.616 353.49 523.093 344.559 518.418 334.1C513.742 323.642 512.102 312.078 513.686 300.732C515.27 289.385 520.013 278.713 527.374 269.937C519.499 259.294 637.672 228.802 637.455 235.647Z" fill="black"/>
</g>
<path d="M97.5469 418.478L104.031 418.46H113.172L124.731 230.607L239.195 39.5085L234.219 34.1657V20.6354L110.428 226.18L97.5469 418.478Z" fill="#F1C0C0"/>
<path opacity="0.1" d="M104.724 418.46H113.173L124.731 230.607L239.196 39.5085L234.22 34.1656L116.152 227.744L104.724 418.46Z" fill="black"/>
<path d="M78.4414 420.043L375.032 442.75L375.286 442.768L662.321 425.107L662.537 425.095V412.969L346.26 407.162L82.391 406.908H80.4626L80.2524 408.269L78.4414 420.043Z" fill="#F1C0C0"/>
<path opacity="0.1" d="M78.4414 420.043L375.032 442.75L375.286 442.768L662.321 425.107L662.537 424.872V413.222H662.284L375.032 422.819L82.391 406.908H82.3477L81.8285 407.249L80.2524 408.269L78.4414 420.043Z" fill="black"/>
<path opacity="0.1" d="M78.4414 420.043L375.032 442.75V422.819L81.8285 407.249L80.2524 408.269L78.4414 420.043Z" fill="black"/>
<path d="M234.183 33.9121L364.94 174.322L360.897 421.304L372.005 422.646L372.19 422.671H383.297L384.626 184.927L629.47 266.752L633.599 412.443L642.537 413.445L645.565 413.785L638.556 256.648L382.605 166.747L242.261 20.7777H234.183V33.9121Z" fill="#F1C0C0"/>
<path opacity="0.1" d="M383.618 180.382L384.626 184.927L629.47 266.752L633.599 412.443L642.537 413.445L635.527 263.722L383.618 180.382Z" fill="black"/>
<path opacity="0.1" d="M234.183 33.9121L364.94 174.322L360.898 421.304L372.005 422.646L375.033 166.24L234.183 20.7777V33.9121Z" fill="black"/>
<path d="M384.094 279.503L473.896 297.195L473.927 297.201L631.213 328.201L638.413 325.313L638.389 324.806L637.919 314.757L384.186 263.462L384.094 279.503Z" fill="#F1C0C0"/>
<path opacity="0.1" d="M473.928 297.201L631.213 328.201L638.414 325.313L638.389 324.806L473.928 297.201Z" fill="black"/>
<path d="M479.941 216.78L482.371 350.561L483.625 419.196L494.683 418.825L501.643 418.59L499.479 218.716L494.683 217.12L493.632 216.78H479.941Z" fill="#F1C0C0"/>
<path opacity="0.1" d="M480.04 216.749V216.78L482.37 350.561L483.625 419.196L494.683 418.825V216.749H480.04Z" fill="black"/>
<path d="M306.734 250.946C307.383 251.299 308.003 251.702 308.588 252.152C309.281 252.758 309.903 253.441 310.443 254.186C313.094 257.618 315.542 261.607 315.282 265.936C315.288 266.565 315.169 267.19 314.932 267.774C314.696 268.357 314.346 268.889 313.904 269.337C312.81 270.271 311.24 270.314 309.806 270.314C308.249 270.314 306.611 270.314 305.263 269.51C303.916 268.706 302.791 267.142 301.196 267.179C300.971 267.216 300.741 267.216 300.516 267.179C299.966 266.999 299.855 266.276 299.496 265.818C298.878 264.996 297.574 265.2 296.604 265.558C295.633 265.917 294.558 266.455 293.6 266.041C293.044 265.747 292.589 265.292 292.296 264.736C290.002 261.026 289.514 256.567 289.082 252.257C288.816 249.635 286.788 240.693 292.382 242.728C294.854 243.618 297.166 245.399 299.416 246.704L306.734 250.946Z" fill="#3F3D56"/>
<path d="M301.208 251.83C301.708 252.19 302.313 252.372 302.928 252.347C303.543 252.323 304.132 252.093 304.601 251.694C305.522 250.862 306.108 249.724 306.252 248.491C306.87 248.299 307.185 249.109 307.58 249.604C308.273 250.445 309.682 250.433 310.312 251.329C310.751 251.948 310.652 252.807 310.961 253.506C311.363 254.409 312.358 254.879 313.038 255.609C313.68 256.406 314.144 257.332 314.398 258.323L315.412 261.366C315.897 262.631 316.209 263.956 316.339 265.305C316.403 265.979 316.332 266.659 316.13 267.306C315.929 267.953 315.6 268.553 315.164 269.071C313.805 270.536 311.573 270.691 309.602 270.648C308.943 270.662 308.286 270.585 307.648 270.419C305.899 269.875 304.78 268.112 304.317 266.338C303.853 264.563 303.903 262.701 303.631 260.883C303.337 259.098 302.818 257.356 302.086 255.701C301.542 254.415 300.046 252.498 300.071 251.132C300.516 251.132 300.837 251.54 301.208 251.83Z" fill="#3F3D56"/>
<path d="M303.427 245.566C303.138 244.688 302.97 243.775 302.927 242.851C302.927 240.996 303.774 239.252 304.627 237.595L297.562 238.554C296.709 238.671 295.757 238.844 295.275 239.555C295.092 239.908 294.996 240.299 294.996 240.696C294.996 241.094 295.092 241.485 295.275 241.837C295.629 242.543 295.911 243.282 296.115 244.045C296.131 244.712 296.208 245.377 296.344 246.03C296.564 246.51 296.872 246.944 297.253 247.31C299.274 249.549 300.788 252.189 302.296 254.805C302.253 254.731 306.555 251.397 306.382 250.309C306.283 249.691 305.041 248.949 304.645 248.355C304.099 247.493 303.688 246.553 303.427 245.566Z" fill="#BE6F72"/>
<path d="M364 221.406V227.497L259.746 247.842L254.338 251.119H235.678V247.687L338.108 222.927L364 221.406Z" fill="#F1C0C0"/>
<path opacity="0.1" d="M364 227.497L259.746 247.842L254.338 251.119H235.678L338.868 229.024L364 227.497Z" fill="black"/>
<path d="M280.298 394.318C279.137 392.911 277.533 391.938 275.749 391.559C273.965 391.179 272.104 391.415 270.471 392.228C270.121 392.393 269.813 392.634 269.568 392.933C268.95 393.799 269.346 394.992 269.402 396.062C269.544 398.672 267.467 400.793 265.6 402.617C264.599 403.594 263.579 404.639 263.128 405.969C262.677 407.298 263.01 408.986 264.222 409.679C264.751 409.944 265.326 410.104 265.916 410.149C267.891 410.534 269.917 410.591 271.911 410.316C273.883 409.939 275.817 408.819 276.67 407.001C276.835 406.508 277.107 406.058 277.468 405.684C278.555 404.824 280.224 405.832 281.46 405.22C282.48 404.713 282.524 403.915 282.536 402.864C282.573 399.958 282.14 396.668 280.298 394.318Z" fill="#6C63FF"/>
<path d="M295.132 394.207C295.892 396.21 295.997 398.393 296.096 400.533C296.152 401.77 296.189 403.093 295.521 404.138C294.854 405.183 293.55 405.734 292.301 405.993C289.724 406.525 286.738 406.024 285.076 403.977C283.802 402.413 283.536 400.267 283.771 398.239C283.969 396.575 284.389 394.627 283.197 393.446C282.887 393.131 282.486 392.908 282.201 392.568C281.583 391.814 281.682 390.676 282.016 389.748C282.451 388.861 282.776 387.925 282.986 386.959C283.036 386.502 291.355 387.281 292.122 387.658C293.166 388.171 293.006 389.031 293.321 390.07C293.76 391.517 294.6 392.822 295.132 394.207Z" fill="#6C63FF"/>
<path d="M296.659 305.37C298.291 306.427 298.922 308.505 299.175 310.435C299.874 315.722 298.65 321.065 298.557 326.401C298.47 333.877 300.634 341.49 298.786 348.731C297.679 353.06 298.619 358.007 297.58 362.379C297.271 363.677 296.703 364.902 296.406 366.2C295.788 369.014 296.437 371.957 297.308 374.709C297.587 375.451 297.763 376.227 297.834 377.016C297.792 378.23 297.484 379.421 296.931 380.504L293.223 389.278C292.809 390.262 291.177 390.422 290.132 390.552C288.167 390.787 285.973 390.954 284.409 389.736C282.845 388.518 282.468 386.477 282.227 384.572C281.765 380.916 281.558 377.232 281.609 373.547C281.677 372.585 281.591 371.618 281.356 370.684C281.016 369.626 280.268 368.711 280.064 367.592C279.804 366.145 280.54 364.722 280.812 363.263C280.998 361.93 280.977 360.576 280.75 359.25C280.509 357.271 280.231 355.292 279.915 353.326C279.47 350.574 280.107 347.859 280.533 345.101C280.935 342.51 280.422 339.87 279.915 337.297C279.959 339.385 279.699 341.468 279.143 343.481C278.815 344.464 278.345 345.404 278.061 346.406C276.794 350.902 279.495 355.62 279.112 360.276C278.933 362.453 278.08 364.605 278.321 366.751C278.488 368.321 279.217 369.762 279.718 371.259C280.218 372.755 280.478 374.468 279.718 375.866C277.709 379.663 279.211 384.826 281.009 388.722C281.374 389.413 281.692 390.128 281.961 390.861C282.493 392.618 282.048 394.504 282.19 396.334C281.672 396.419 281.142 396.384 280.64 396.233C280.137 396.082 279.676 395.819 279.291 395.462C279.019 395.178 278.797 394.844 278.531 394.547C277.788 393.839 276.909 393.29 275.947 392.933C275.382 392.617 274.739 392.469 274.093 392.506C273.414 392.696 272.803 393.076 272.331 393.601C271.72 394.139 271.072 394.633 270.391 395.079C270.101 395.302 269.762 395.452 269.402 395.518C269.221 395.546 269.036 395.516 268.872 395.433C268.709 395.35 268.577 395.217 268.493 395.054C268.454 394.951 268.432 394.842 268.425 394.733C268.195 392.865 268.074 390.986 268.06 389.105C268.06 385.871 264.191 383.645 263.703 380.448C263.313 377.869 264.037 375.241 263.796 372.644C263.678 371.308 263.307 369.997 263.332 368.661C263.332 367.796 263.53 366.949 263.598 366.089C263.654 365.135 263.64 364.178 263.555 363.226L263.363 360.239C263.177 357.289 262.974 354.278 261.811 351.582C260.434 348.434 259.618 345.068 259.401 341.638C259.277 339.474 259.358 337.309 259.11 335.139C258.888 333.179 258.393 331.231 258.536 329.264C258.653 327.743 259.154 326.271 259.271 324.75C259.512 321.825 258.4 318.981 257.528 316.179C256.657 313.378 256.014 310.274 257.157 307.571C257.321 307.128 257.593 306.732 257.948 306.421C258.387 306.131 258.886 305.945 259.407 305.877C270.012 303.648 280.882 302.955 291.684 303.818C293.445 303.918 295.154 304.451 296.659 305.37Z" fill="#3F3D56"/>
<path d="M261.57 239.691C267.038 239.691 271.472 235.256 271.472 229.785C271.472 224.314 267.038 219.879 261.57 219.879C256.101 219.879 251.668 224.314 251.668 229.785C251.668 235.256 256.101 239.691 261.57 239.691Z" fill="#BE6F72"/>
<path d="M259.654 242.159C259.796 242.725 259.796 243.318 259.654 243.884C259.498 244.28 259.279 244.647 259.005 244.972C258.046 246.209 256.986 247.364 255.834 248.423C256.421 249.734 257.477 250.778 258.795 251.348C260.103 251.905 261.475 252.298 262.88 252.517C263.581 252.701 264.311 252.752 265.031 252.665C265.695 252.498 266.323 252.213 266.885 251.824L272.386 248.528C273.216 248.078 273.985 247.523 274.673 246.877C275.682 245.84 276.253 244.453 276.268 243.006C276.294 242.747 276.223 242.487 276.07 242.276C275.859 242.093 275.595 241.982 275.316 241.961C273.382 241.534 271.855 239.964 270.99 238.183C270.207 236.357 269.701 234.425 269.488 232.45L263.622 235.542C262.75 236.006 261.885 236.47 260.983 236.872C260.408 237.131 259.246 237.348 258.838 237.873C258.059 238.844 259.45 240.99 259.654 242.159Z" fill="#BE6F72"/>
<path d="M255.872 246.624C255.037 247.309 254.384 248.19 253.974 249.19C253.591 250.427 253.974 251.731 254.32 252.956C255.942 258.175 257.182 263.505 258.029 268.904C258.548 272.614 258.74 276.38 258.993 280.134C259.512 287.789 260.266 299.996 261.274 307.602C264.982 307.769 268.598 306.687 272.276 306.291C279.149 305.562 286.226 307.231 292.957 305.673C291.325 299.223 289.694 288.21 288.062 281.766C287.34 279.227 286.839 276.631 286.566 274.006C286.424 272.119 286.51 270.227 286.535 268.329C286.591 264.618 286.387 260.908 286.183 257.198C285.948 252.869 285.713 248.541 284.687 244.305C284.616 243.765 284.363 243.265 283.97 242.889C283.352 242.437 282.548 242.598 281.813 242.697C279.561 242.983 277.281 242.443 275.397 241.176C274.581 240.619 273.487 239.939 272.727 240.557C272.403 240.93 272.189 241.386 272.109 241.874C271.773 242.749 271.253 243.542 270.586 244.2C269.919 244.858 269.119 245.366 268.24 245.69C266.478 246.328 264.634 246.707 262.763 246.815C262.191 246.938 261.594 246.871 261.064 246.624C260.186 246.086 260.124 244.15 259.018 244.02C258.047 243.909 256.527 245.999 255.872 246.624Z" fill="#3F3D56"/>
<path d="M270.495 261.724C268.215 259.542 267.213 256.375 265.551 253.685C264.419 251.877 262.972 250.285 261.28 248.986C260.429 248.424 259.649 247.761 258.956 247.013C258.369 246.29 257.923 245.325 257.033 245.047C256.666 244.967 256.284 244.977 255.921 245.077C255.558 245.177 255.225 245.364 254.95 245.622C254.406 246.141 253.89 246.69 253.405 247.267C250.785 249.981 246.18 250.359 244.103 253.5C243.543 254.166 243.162 254.964 242.997 255.819C242.399 260.391 243.58 265.018 246.297 268.743C246.823 269.606 247.631 270.262 248.584 270.598C248.455 271.751 248.608 272.918 249.029 273.999C250.174 277.913 251.58 281.745 253.238 285.47C252.842 286.927 252.565 288.414 252.41 289.917C251.977 293.695 252.379 297.529 251.971 301.313C251.637 304.405 250.735 307.417 250.704 310.515C250.704 311.01 250.747 311.597 251.174 311.851C251.401 311.967 251.655 312.021 251.909 312.005L259.512 312.234C263.925 312.364 268.382 312.494 272.727 311.677C273.305 311.592 273.867 311.414 274.389 311.152C275.86 310.329 276.349 308.474 276.584 306.823C276.89 304.682 277.012 302.517 276.948 300.355C277.869 303.267 278.963 306.279 281.745 307.54C283.216 308.208 284.897 308.159 286.51 308.116C289.987 307.961 293.452 307.603 296.888 307.046C297.1 307.072 297.315 307.048 297.516 306.977C297.716 306.905 297.898 306.787 298.045 306.633C298.192 306.478 298.301 306.291 298.363 306.087C298.425 305.883 298.439 305.667 298.402 305.457L298.439 302.08C298.514 295.222 296.814 288.667 296.152 281.84C295.942 279.689 295.961 277.512 295.435 275.403C295.219 274.519 294.904 273.653 294.712 272.763C294.547 271.891 294.444 271.008 294.403 270.122L293.921 263.32C293.692 260.172 293.365 257.136 293.124 253.995C292.991 250.936 292.548 247.898 291.801 244.929C291.263 243.074 290.145 240.972 288.21 240.743C287.178 240.625 286.176 241.077 285.194 241.392C282.778 242.153 280.186 242.142 277.777 241.361C277.032 241.067 276.257 240.86 275.465 240.743C275.066 240.688 274.661 240.741 274.289 240.895C273.918 241.05 273.594 241.3 273.351 241.621C273.111 242.104 272.998 242.64 273.023 243.179C272.733 249.357 272.195 255.72 270.495 261.724Z" fill="#6C63FF"/>
<path d="M260.55 261.91C257.701 258.905 254.777 255.844 251.106 253.933C249.659 253.178 248.015 252.609 246.414 252.894C244.814 253.178 243.324 254.57 243.398 256.196C243.448 257.204 244.06 258.095 244.251 259.084C244.474 260.197 244.152 261.384 244.498 262.46C244.78 263.169 245.2 263.815 245.735 264.359L250.111 269.547C251.965 271.711 253.819 273.907 256.205 275.403C258.591 276.9 261.681 277.598 264.302 276.535C266.167 275.668 267.717 274.244 268.74 272.46C269.828 270.728 270.594 268.836 271.614 267.049C273.201 264.193 275.296 261.651 277.795 259.548C276.509 259.214 274.896 258.744 274.086 257.693C273.856 257.358 273.659 257.002 273.499 256.629L272.498 254.465C272.157 254.447 271.817 254.5 271.498 254.62C271.179 254.74 270.888 254.925 270.644 255.163C270.214 255.66 269.754 256.129 269.265 256.567C268.394 257.223 267.213 257.402 266.422 258.15C266.116 258.471 265.839 258.819 265.594 259.189C264.995 259.976 264.236 260.626 263.366 261.095C262.496 261.564 261.536 261.842 260.55 261.91Z" fill="#3F3D56"/>
<path d="M278.024 248.98C280.169 245.065 280.07 240.372 280.682 235.95C280.748 234.779 281.159 233.654 281.862 232.716C283.099 231.319 285.28 231.3 287.147 231.479C287.697 231.541 288.383 231.801 288.352 232.351C288.309 232.548 288.213 232.73 288.074 232.877C286.265 235.213 285.201 238.04 285.021 240.99C285.991 241.664 287.493 240.279 288.427 240.99C289.045 241.51 288.76 242.536 288.389 243.278C287.528 244.997 286.64 246.704 285.725 248.398C284.995 249.892 284.043 251.266 282.901 252.473C282.116 253.228 281.195 253.822 280.397 254.564C278.543 256.301 277.424 258.756 275.508 260.451C275.346 260.626 275.127 260.738 274.89 260.766C274.646 260.749 274.417 260.646 274.241 260.475C273.284 259.696 272.49 258.736 271.905 257.649C271.176 256.301 271.287 255.905 272.436 254.953C274.587 253.253 276.683 251.428 278.024 248.98Z" fill="#BE6F72"/>
<path d="M256.965 259.251C257.336 259.48 257.794 259.739 258.202 259.548C258.368 259.447 258.51 259.309 258.616 259.146C259.322 258.202 259.912 257.177 260.371 256.091C260.45 255.938 260.495 255.769 260.501 255.596C260.501 255.201 260.149 254.91 259.821 254.681C258.066 253.562 256.179 252.665 254.203 252.01C252.571 251.391 250.865 250.853 249.134 251.008C248.484 251.052 247.849 251.226 247.268 251.522C246.687 251.817 246.172 252.227 245.753 252.727C244.517 254.316 246.588 254.799 247.886 255.374C250.89 256.74 254.141 257.532 256.965 259.251Z" fill="#6C63FF"/>
<path opacity="0.1" d="M255.019 269.763C254.998 269.905 255.01 270.049 255.055 270.184C255.101 270.319 255.177 270.442 255.278 270.543C255.457 269.664 255.223 268.737 255.408 267.853C255.68 266.523 256.972 265.521 257.083 264.186C254.716 263.722 255.037 268.329 255.019 269.763Z" fill="black"/>
<path opacity="0.2" d="M364 221.406V227.497L338.869 229.024L338.108 222.927L364 221.406Z" fill="black"/>
<path d="M252.657 231.257C254.227 229.977 253.318 227.293 254.381 225.574C254.999 224.634 256.044 224.139 257.07 223.719C258.308 223.139 259.635 222.771 260.995 222.63C261.676 222.565 262.363 222.654 263.005 222.89C263.647 223.127 264.227 223.505 264.703 223.997C265.105 224.455 265.377 225.011 265.754 225.487C266.221 226.043 266.83 226.461 267.515 226.699C268.201 226.936 268.938 226.983 269.648 226.835C270.47 226.65 271.323 226.025 271.267 225.184C271.175 224.673 270.914 224.207 270.526 223.861L268.758 221.901C266.749 219.674 264.518 217.312 261.57 216.756C259.518 216.366 257.416 216.916 255.438 217.578C254.641 217.844 253.745 218.24 253.522 219.05C253.374 219.606 253.596 220.212 253.466 220.775C253.213 221.894 251.779 222.272 251.112 223.212C250.444 224.152 250.648 225.265 250.456 226.303C250.265 227.342 249.708 228.357 249.64 229.433C249.597 230.082 249.925 231.288 250.654 231.523C251.384 231.758 252.206 230.484 252.657 231.257Z" fill="#3F3D56"/>
<path d="M270.669 224.294C270.147 221.573 269.024 219.004 267.38 216.774C265.919 214.691 263.886 213.076 261.527 212.124C260.348 211.663 259.079 211.475 257.817 211.575C256.555 211.674 255.332 212.059 254.24 212.699C252.618 213.857 251.356 215.45 250.599 217.294C248.998 220.744 248.405 224.962 250.265 228.276C251.007 227.373 252.28 227.781 253.405 227.454C254.814 227.052 256.007 226.112 257.349 225.524C261.397 223.737 266.342 225.184 270.669 224.294Z" fill="#FED253"/>
<path opacity="0.1" d="M251.21 224.102C251.068 222.989 250.975 221.697 251.766 220.905C251.806 220.856 251.856 220.818 251.913 220.792C251.97 220.766 252.032 220.754 252.094 220.757C252.149 220.774 252.2 220.803 252.244 220.842C252.287 220.88 252.323 220.927 252.347 220.979C252.804 221.7 253.193 222.462 253.509 223.255C253.049 223.149 252.567 223.183 252.126 223.354C251.685 223.525 251.306 223.824 251.037 224.213" fill="black"/>
<path opacity="0.1" d="M265.656 220.961L265.433 218.753C265.397 218.571 265.412 218.383 265.476 218.209C265.57 218.063 265.713 217.957 265.88 217.912C266.047 217.866 266.225 217.884 266.379 217.962C266.683 218.13 266.934 218.381 267.102 218.685C267.617 219.475 268.044 220.319 268.375 221.202C267.38 221.01 266.356 221.023 265.365 221.239" fill="black"/>
<path opacity="0.1" d="M271.188 310.558V315.604L266.929 315.889H244.529V310.558H271.188Z" fill="black"/>
<path d="M271.187 310.558V315.889H244.529L173.708 227.132V222.939H188.555L271.187 310.558Z" fill="#F1C0C0"/>
<path opacity="0.1" d="M271.187 310.558V315.889H244.529L173.708 227.132V222.939H188.555L271.187 310.558Z" fill="black"/>
<path opacity="0.1" d="M271.187 310.558V315.889H244.529L173.708 227.132V222.939L244.912 310.558H271.187Z" fill="black"/>
<path d="M182.992 399.519C183.038 399.77 183.033 400.027 182.975 400.276C182.918 400.524 182.81 400.759 182.658 400.963C182.506 401.168 182.313 401.34 182.092 401.467C181.871 401.594 181.626 401.674 181.372 401.702C179.654 402.283 177.831 402.858 176.613 404.175C175.395 405.492 175.154 407.935 176.613 409.005C177.359 409.455 178.215 409.688 179.085 409.679C181.885 409.871 184.803 409.833 187.343 408.646C189.16 407.805 190.872 406.37 192.869 406.5C193.901 406.562 195.001 407.044 195.922 406.575C196.843 406.105 197.103 404.794 197.109 403.699C197.132 401.414 196.788 399.14 196.089 396.965C195.996 396.668 192.065 396.439 191.596 396.346L186.83 395.728C185.928 395.611 183.981 394.93 183.27 395.685C182.559 396.439 182.992 398.622 182.992 399.519Z" fill="#6C63FF"/>
<path d="M211.43 384.084C211.632 385.198 211.959 386.285 212.406 387.324C213.068 389.006 213.915 390.793 215.534 391.61C217.005 392.345 218.81 392.08 220.306 391.381C220.93 391.122 221.477 390.707 221.894 390.175C222.377 389.334 222.592 388.365 222.512 387.398C222.512 385.005 222.37 382.532 221.276 380.405C220.337 378.549 218.699 376.954 218.674 374.901L213.043 375.989C212.742 376.018 212.455 376.132 212.215 376.317C212.036 376.505 211.913 376.738 211.856 376.991C211.255 379.305 211.11 381.714 211.43 384.084Z" fill="#6C63FF"/>
<path d="M144.189 325.338C143.954 327.329 144.053 329.462 145.091 331.181C146.129 332.9 148.317 334.038 150.209 333.352C150.306 333.327 150.397 333.283 150.476 333.222C150.556 333.162 150.622 333.086 150.672 332.999C150.723 332.79 150.694 332.57 150.592 332.381C149.757 330.151 149.826 327.684 150.784 325.504C150.907 325.22 151.173 324.886 151.463 324.997C151.585 325.059 151.683 325.159 151.742 325.282C152.041 325.8 152.191 326.391 152.174 326.989C152.087 327.53 152.07 328.081 152.125 328.627C152.242 329.159 152.811 329.66 153.305 329.431C153.448 329.343 153.572 329.227 153.669 329.09C153.765 328.953 153.833 328.798 153.868 328.634C155.246 324.645 154.622 320.285 153.991 316.111C153.997 316.015 153.981 315.92 153.945 315.831C153.909 315.741 153.854 315.661 153.784 315.596C153.714 315.53 153.63 315.481 153.539 315.452C153.448 315.422 153.351 315.413 153.256 315.425C150.339 315.134 148.744 314.435 147.075 317.15C145.641 319.438 144.189 322.586 144.189 325.338Z" fill="#6C63FF"/>
<path d="M178.294 315.19C177.429 318.789 176.558 322.431 176.502 326.129C176.517 328.432 176.691 330.732 177.021 333.012L177.67 338.367C177.893 340.173 178.109 341.972 178.424 343.759C178.625 344.68 178.735 345.618 178.752 346.56C178.691 347.489 178.544 348.411 178.313 349.312C177.924 351.206 177.707 353.131 177.664 355.063C177.596 358.155 177.979 361.247 178.22 364.339C178.701 370.5 178.629 376.693 178.004 382.841C177.754 384.501 178.114 386.194 179.018 387.609C179.384 388.055 179.686 388.55 179.914 389.08C180.377 390.497 179.296 391.913 179.018 393.366C178.84 394.499 179.119 395.656 179.793 396.584C180.468 397.512 181.482 398.133 182.615 398.313C187.56 398.9 192.64 398.634 197.097 400.898C197.567 399.525 196.54 397.967 197.01 396.569C197.307 395.703 198.123 395.141 198.679 394.411C199.426 393.299 199.799 391.977 199.742 390.639C199.764 388.892 199.454 387.156 198.827 385.525C198.302 384.164 197.548 382.822 197.591 381.363C197.591 380.646 197.845 379.891 197.554 379.23C197.355 378.85 197.084 378.511 196.757 378.234C194.91 376.209 193.774 373.636 193.524 370.906C193.283 368.197 193.37 365.469 193.784 362.781C194.087 360.221 194.495 357.518 196.12 355.521C195.366 349.464 195.809 343.319 197.424 337.433C197.585 336.889 197.838 336.258 198.395 336.128C198.616 336.106 198.839 336.137 199.045 336.218C199.252 336.3 199.436 336.43 199.581 336.598C200.552 337.507 201.015 338.824 201.436 340.086C201.899 341.453 202.369 342.912 202.017 344.31C201.868 344.928 201.572 345.472 201.399 346.066C201.023 347.259 201.088 348.547 201.584 349.696C201.826 350.115 201.977 350.581 202.029 351.062C201.972 351.476 201.846 351.877 201.658 352.25C201.429 352.981 201.356 353.753 201.445 354.515C201.533 355.277 201.781 356.011 202.171 356.671C202.959 357.984 203.931 359.177 205.058 360.214C204.52 362.588 204.659 365.065 205.46 367.363C205.517 367.466 205.554 367.58 205.568 367.698C205.582 367.816 205.572 367.935 205.54 368.049C205.429 368.284 205.144 368.371 204.922 368.538C204.304 369.045 204.687 370.003 205.101 370.665C206.236 372.481 207.489 374.221 208.853 375.872C210.089 377.35 209.978 380.2 211.82 380.732C212.594 380.9 213.394 380.9 214.168 380.732C215.986 380.454 218.013 379.928 218.903 378.321C219.268 377.659 219.416 376.855 219.985 376.36C220.553 375.866 221.289 375.779 221.604 375.185C221.919 374.592 221.567 373.813 221.672 373.126C221.777 372.44 222.377 371.889 222.568 371.166C223.026 369.496 221.079 368.123 220.813 366.417C220.43 363.943 223.545 362.088 223.415 359.615C223.143 354.241 222.97 348.842 222.692 343.469C222.343 338.655 222.293 333.824 222.544 329.005C222.76 326.005 223.162 322.864 222.061 320.075C220.479 316.142 216.115 313.935 211.894 313.514C207.672 313.094 203.463 314.095 199.279 314.751C192.334 315.822 185.278 315.969 178.294 315.19Z" fill="#3F3D56"/>
<path d="M190.841 256.085C196.31 256.085 200.743 251.65 200.743 246.178C200.743 240.707 196.31 236.272 190.841 236.272C185.373 236.272 180.939 240.707 180.939 246.178C180.939 251.65 185.373 256.085 190.841 256.085Z" fill="#FBBEBE"/>
<path d="M186.812 257.934C186.475 258.717 185.91 259.381 185.189 259.837C184.469 260.292 183.627 260.519 182.775 260.488C182.417 261.972 183.276 263.468 184.259 264.637C186.3 267.013 188.937 268.801 191.899 269.818C194.86 270.834 198.039 271.041 201.108 270.419C202.302 270.205 203.435 269.732 204.427 269.034C205.765 267.916 206.663 266.361 206.961 264.643C207.246 262.938 207.327 261.204 207.202 259.48C207.237 259.139 207.14 258.798 206.93 258.527C206.683 258.336 206.378 258.235 206.065 258.243C203.976 258.057 201.794 257.977 199.958 256.951C198.123 255.924 196.818 253.605 197.702 251.7C197.56 251.997 193.951 252.14 193.475 252.201C191.985 252.412 190.495 252.647 189.012 252.919C188.299 252.958 187.595 253.091 186.917 253.314C186.02 253.778 186.354 253.549 186.564 254.39C186.88 255.677 187.343 256.598 186.812 257.934Z" fill="#FBBEBE"/>
<path d="M194.346 263.957C193.013 263.972 191.682 263.825 190.384 263.518C189.074 263.212 187.919 262.44 187.133 261.347C186.676 260.655 186.379 259.783 185.65 259.393C184.457 258.775 183.097 259.82 182.145 260.778C181.278 261.724 180.274 262.533 179.166 263.178C177.843 263.876 176.298 264.124 175.049 264.946C174.074 265.684 173.237 266.588 172.577 267.618L163.819 279.552C160.302 284.351 157.242 289.502 154.108 294.567C151.395 298.951 149.973 303.997 147.928 308.728C147.766 309.017 147.699 309.35 147.736 309.68C147.81 310.002 148.2 310.261 148.471 310.076C147.551 310.991 148.36 312.549 148.144 313.836C147.898 314.736 147.385 315.54 146.673 316.142C148.033 315.965 149.414 316.03 150.752 316.334C152.135 316.726 153.44 317.353 154.609 318.189C155.357 318.072 155.289 316.742 155.845 316.247C156.179 315.957 156.674 315.994 157.112 315.907C158.763 315.586 159.418 313.601 160.685 312.481C161.742 311.548 163.238 311.245 164.356 310.366C166.174 308.938 166.563 306.396 167.515 304.288C168.325 302.501 169.598 300.942 170.309 299.112C170.772 297.925 170.995 296.638 171.656 295.544C172.713 293.775 174.703 292.835 176.601 291.988C177.8 291.45 179.073 290.894 180.365 290.98C180.297 293.856 179.932 296.688 180.557 299.495C180.773 300.485 181.076 301.449 181.335 302.433C182.516 306.86 182.794 311.473 182.85 316.037C185.69 315.387 188.59 315.039 191.503 314.998C193.796 314.93 196.083 315.227 198.376 315.184C201.096 315.134 203.784 314.609 206.504 314.423C209.224 314.238 212.067 314.423 214.471 315.66C214.276 311.741 214.386 307.813 214.799 303.911L215.454 297.764C215.602 295.978 215.877 294.205 216.276 292.458C216.635 291.048 217.154 289.688 217.549 288.284C218.94 283.337 218.687 278.056 218.421 272.905C218.285 270.258 217.265 267.655 216.066 265.299C215.632 264.424 215.136 263.58 214.582 262.776C213.133 260.778 211.202 259.181 208.969 258.132C206.736 257.083 204.274 256.617 201.813 256.777C201.498 256.787 201.188 256.854 200.898 256.975C200.376 257.309 199.969 257.795 199.73 258.367C198.451 260.666 196.596 262.593 194.346 263.957Z" fill="#3F3D56"/>
<path d="M182.133 249.462C182.411 248.844 183.159 248.615 183.616 248.12C184.494 247.18 184.098 245.677 184.234 244.41C184.457 242.555 185.996 241.002 187.757 240.341C189.554 239.764 191.465 239.643 193.32 239.988C194.213 240.054 195.075 240.34 195.829 240.823C196.151 241.058 196.447 241.361 196.75 241.578C197.302 241.911 197.963 242.016 198.591 241.869C199.219 241.723 199.765 241.336 200.113 240.792C197.925 238.158 195.502 235.375 192.176 234.565C191.036 234.332 189.873 234.222 188.709 234.237C187.17 234.206 185.581 234.182 184.16 234.769C182.225 235.567 180.865 237.403 180.167 239.382C179.556 241.388 179.23 243.47 179.197 245.566C179.07 246.965 179.07 248.372 179.197 249.771C179.436 251.681 180.145 253.502 181.261 255.071C181.412 255.314 181.625 255.513 181.879 255.646C184.698 256.883 181.904 249.975 182.133 249.462Z" fill="#3F3D56"/>
<path d="M199.792 239.265C199.452 236.352 197.376 233.947 195.169 232.011C193.391 230.333 191.272 229.057 188.957 228.27C186.627 227.584 183.945 227.732 181.948 229.123C180.341 230.243 179.321 232.024 178.536 233.817C177.505 235.933 176.994 238.265 177.047 240.619C177.201 242.957 178.338 245.325 180.366 246.506C181.095 245.43 182.362 244.874 183.58 244.434C188.887 242.42 194.299 240.694 199.792 239.265Z" fill="#FED253"/>
<path opacity="0.1" d="M181.045 238.053C181.243 238.053 181.373 238.257 181.472 238.424C181.975 239.208 182.407 240.036 182.764 240.897C182.04 241.052 180.798 241.225 180.44 240.588C180.248 240.267 180.477 238.022 181.045 238.053Z" fill="black"/>
<path opacity="0.1" d="M195.132 236.655C194.983 236.797 194.81 236.507 194.81 236.297V233.897C194.806 233.831 194.821 233.764 194.853 233.706C194.879 233.676 194.91 233.652 194.945 233.635C194.98 233.618 195.019 233.609 195.057 233.607C195.558 233.551 195.972 233.978 196.294 234.386C196.781 235.047 197.206 235.753 197.561 236.494L194.946 236.414" fill="black"/>
<path d="M227.76 276.386C228.329 275.846 228.936 275.348 229.577 274.896C231.289 273.752 233.36 273.301 235.282 272.571C237.204 271.841 239.158 270.66 239.906 268.743C240.28 267.544 240.402 266.281 240.264 265.033C240.282 264.51 240.189 263.99 239.992 263.505C239.757 263.077 239.422 262.713 239.015 262.442C236.407 260.512 232.909 260.358 229.67 260.556C222.529 260.999 215.53 262.747 209.019 265.713C208.675 265.827 208.373 266.042 208.154 266.331C208.027 266.599 207.97 266.895 207.987 267.191C207.872 269.015 208.109 270.843 208.686 272.577C209.539 274.779 211.294 276.553 212.03 278.798C212.363 279.806 212.475 280.876 212.765 281.89C213.003 282.937 213.623 283.859 214.502 284.475C216.943 285.934 219.249 283.974 220.942 282.453L227.76 276.386Z" fill="#3F3D56"/>
<path d="M195.787 284.951L192.653 278.112C192.194 277.164 191.797 276.187 191.466 275.187C191.108 273.993 190.935 272.756 190.601 271.557C189.501 267.562 186.726 264.235 185.372 260.321C185.286 259.967 185.112 259.642 184.865 259.375C184.668 259.235 184.442 259.14 184.203 259.097C183.965 259.055 183.721 259.065 183.487 259.127C181.595 259.455 180.118 260.896 178.388 261.712C177.584 262.083 176.719 262.33 175.915 262.757C175.514 262.947 175.158 263.222 174.872 263.563C174.586 263.903 174.377 264.301 174.259 264.73C174.067 265.676 174.537 266.585 174.932 267.506C176.614 271.303 176.997 275.545 177.071 279.701C177.127 282.496 176.984 285.495 175.334 287.74C172.163 292.069 174.191 298.425 175.377 303.663C175.52 304.282 175.686 304.949 175.785 305.605C175.89 306.425 175.937 307.252 175.928 308.078C175.928 310.855 175.773 313.718 174.611 316.235C175.758 316.846 177.023 317.204 178.32 317.286C181.909 317.744 185.512 318.065 189.13 318.251C190.263 318.357 191.406 318.299 192.523 318.078C193.85 317.719 195.019 316.929 195.846 315.831C196.673 314.734 197.111 313.392 197.091 312.018C197.289 313.73 197.653 315.592 198.896 316.779C200.138 317.966 201.949 318.146 203.637 318.238C208.399 318.491 213.174 318.357 217.914 317.836C218.217 317.823 218.515 317.754 218.792 317.632C219.707 317.175 219.756 315.913 219.682 314.899C219.546 313.001 219.404 311.102 219.175 309.216C218.981 308.014 218.882 306.798 218.879 305.58C218.973 304.327 219.18 303.086 219.497 301.87C220.325 298.011 220.98 294.072 220.702 290.121C220.592 289.158 220.553 288.189 220.585 287.22C220.745 285.037 221.895 282.96 221.679 280.789C221.061 274.407 220.56 267.859 218.78 261.7C218.458 260.599 218.05 259.418 217.092 258.787C215.856 257.959 214.119 258.391 212.704 257.866C212.04 257.557 211.408 257.182 210.819 256.746C209.538 255.945 208.07 255.493 206.56 255.435C205.423 255.392 204.156 255.646 203.47 256.561C203.152 257.076 202.942 257.65 202.852 258.249C201.955 262.021 200.905 265.75 199.854 269.479L198.846 273.053L196.145 282.651C195.88 283.671 196.059 283.986 195.787 284.951Z" fill="#6C63FF"/>
<path d="M211.591 247.508L271.379 310.366V315.697H244.721L199.792 257.031" fill="#F1C0C0"/>
<path opacity="0.1" d="M211.591 247.508L271.379 310.366V315.697H244.721L199.792 257.031" fill="black"/>
<path opacity="0.1" d="M200.744 256.202L200.935 256.27L245.104 310.367H271.379V315.697H244.721L199.792 257.031L200.744 256.202Z" fill="black"/>
<path d="M207.623 257.526C205.459 258.472 203.055 259.684 202.406 261.959C202.278 262.359 202.25 262.784 202.326 263.196C202.484 263.681 202.785 264.107 203.19 264.417C203.595 264.728 204.085 264.908 204.594 264.934C205.612 264.959 206.624 264.773 207.567 264.39L220.331 260.172C220.677 260.061 221.072 259.894 221.159 259.554C221.181 259.34 221.138 259.124 221.035 258.936C220.64 257.971 220.25 255.998 219.422 255.324C218.742 254.78 217.395 254.972 216.573 254.984C213.408 255.009 210.435 256.289 207.623 257.526Z" fill="#6C63FF"/>
<path d="M219.002 260.673C221.152 260.667 223.29 260.999 225.338 261.656C227.394 262.324 229.215 263.569 230.585 265.243C230.984 265.711 231.268 266.266 231.413 266.863C231.537 267.482 233.552 267.853 233.107 268.273C234.461 268.057 234.139 268.694 235.511 268.681C236.884 268.669 238.367 268.316 239.189 267.222C239.76 266.323 240.015 265.258 239.912 264.198C239.93 263.464 239.791 262.734 239.504 262.058C238.886 260.76 237.465 260.061 236.154 259.461L225.115 254.409C224.475 254.068 223.787 253.824 223.075 253.685C222.476 253.629 221.872 253.643 221.277 253.729L216.276 254.304C217.37 255.012 218.26 255.993 218.86 257.15C219.459 258.307 219.747 259.6 219.694 260.902" fill="#3F3D56"/>
</g>
<defs>
<clipPath id="clip0">
<rect width="728" height="448" fill="white"/>
</clipPath>
</defs>
</svg>
